  0
SECTION
  2
HEADER
  9
$ACADVER
  1
AC1014
  9
$ACADMAINTVER
 70
     0
  9
$DWGCODEPAGE
  3
ANSI_1252
  9
$INSBASE
 10
0.0
 20
0.0
 30
0.0
  9
$EXTMIN
 10
-3
 20
-3
 30
0
  9
$EXTMAX
 10
3
 20
3
 30
6
  9
$LIMMIN
 10
0.0
 20
0.0
  9
$LIMMAX
 10
420.0
 20
297.0
  9
$ORTHOMODE
 70
     0
  9
$REGENMODE
 70
     1
  9
$FILLMODE
 70
     1
  9
$QTEXTMODE
 70
     0
  9
$MIRRTEXT
 70
     1
  9
$DRAGMODE
 70
     2
  9
$LTSCALE
 40
1.0
  9
$OSMODE
 70
     0
  9
$ATTMODE
 70
     1
  9
$TEXTSIZE
 40
2.5
  9
$TRACEWID
 40
1.0
  9
$TEXTSTYLE
  7
STANDARD
  9
$CLAYER
  8
0
  9
$CELTYPE
  6
BYLAYER
  9
$CECOLOR
 62
   256
  9
$CELTSCALE
 40
1.0
  9
$DELOBJ
 70
     1
  9
$DISPSILH
 70
     0
  9
$DIMSCALE
 40
1.0
  9
$DIMASZ
 40
2.5
  9
$DIMEXO
 40
0.625
  9
$DIMDLI
 40
3.75
  9
$DIMRND
 40
0.0
  9
$DIMDLE
 40
0.0
  9
$DIMEXE
 40
1.25
  9
$DIMTP
 40
0.0
  9
$DIMTM
 40
0.0
  9
$DIMTXT
 40
2.5
  9
$DIMCEN
 40
2.5
  9
$DIMTSZ
 40
0.0
  9
$DIMTOL
 70
     0
  9
$DIMLIM
 70
     0
  9
$DIMTIH
 70
     0
  9
$DIMTOH
 70
     0
  9
$DIMSE1
 70
     0
  9
$DIMSE2
 70
     0
  9
$DIMTAD
 70
     1
  9
$DIMZIN
 70
     8
  9
$DIMBLK
  1

  9
$DIMASO
 70
     1
  9
$DIMSHO
 70
     1
  9
$DIMPOST
  1

  9
$DIMAPOST
  1

  9
$DIMALT
 70
     0
  9
$DIMALTD
 70
     4
  9
$DIMALTF
 40
0.0394
  9
$DIMLFAC
 40
1.0
  9
$DIMTOFL
 70
     1
  9
$DIMTVP
 40
0.0
  9
$DIMTIX
 70
     0
  9
$DIMSOXD
 70
     0
  9
$DIMSAH
 70
     0
  9
$DIMBLK1
  1

  9
$DIMBLK2
  1

  9
$DIMSTYLE
  2
STANDARD
  9
$DIMCLRD
 70
     0
  9
$DIMCLRE
 70
     0
  9
$DIMCLRT
 70
     0
  9
$DIMTFAC
 40
1.0
  9
$DIMGAP
 40
0.625
  9
$DIMJUST
 70
     0
  9
$DIMSD1
 70
     0
  9
$DIMSD2
 70
     0
  9
$DIMTOLJ
 70
     1
  9
$DIMTZIN
 70
     0
  9
$DIMALTZ
 70
     0
  9
$DIMALTTZ
 70
     0
  9
$DIMFIT
 70
     3
  9
$DIMUPT
 70
     0
  9
$DIMUNIT
 70
     8
  9
$DIMDEC
 70
     4
  9
$DIMTDEC
 70
     4
  9
$DIMALTU
 70
     8
  9
$DIMALTTD
 70
     4
  9
$DIMTXSTY
  7
STANDARD
  9
$DIMAUNIT
 70
     0
  9
$LUNITS
 70
     2
  9
$LUPREC
 70
     4
  9
$SKETCHINC
 40
1.0
  9
$FILLETRAD
 40
10.0
  9
$AUNITS
 70
     0
  9
$AUPREC
 70
     0
  9
$MENU
  1
.
  9
$ELEVATION
 40
0.0
  9
$PELEVATION
 40
0.0
  9
$THICKNESS
 40
0.0
  9
$LIMCHECK
 70
     0
  9
$BLIPMODE
 70
     0
  9
$CHAMFERA
 40
10.0
  9
$CHAMFERB
 40
10.0
  9
$CHAMFERC
 40
20.0
  9
$CHAMFERD
 40
0.0
  9
$SKPOLY
 70
     0
  9
$TDCREATE
 40
2451903.577087616
  9
$TDUPDATE
 40
2451903.577087616
  9
$TDINDWG
 40
0.0000000000
  9
$TDUSRTIMER
 40
0.0000000000
  9
$USRTIMER
 70
     1
  9
$ANGBASE
 50
0.0
  9
$ANGDIR
 70
     0
  9
$PDMODE
 70
     0
  9
$PDSIZE
 40
0.0
  9
$PLINEWID
 40
0.0
  9
$COORDS
 70
     1
  9
$SPLFRAME
 70
     0
  9
$SPLINETYPE
 70
     6
  9
$SPLINESEGS
 70
     8
  9
$ATTDIA
 70
     0
  9
$ATTREQ
 70
     1
  9
$HANDLING
 70
     1
  9
$HANDSEED
  5
326
  9
$SURFTAB1
 70
     6
  9
$SURFTAB2
 70
     6
  9
$SURFTYPE
 70
     6
  9
$SURFU
 70
     6
  9
$SURFV
 70
     6
  9
$UCSNAME
  2

  9
$UCSORG
 10
0.0
 20
0.0
 30
0.0
  9
$UCSXDIR
 10
1.0
 20
0.0
 30
0.0
  9
$UCSYDIR
 10
0.0
 20
1.0
 30
0.0
  9
$PUCSNAME
  2

  9
$PUCSORG
 10
0.0
 20
0.0
 30
0.0
  9
$PUCSXDIR
 10
1.0
 20
0.0
 30
0.0
  9
$PUCSYDIR
 10
0.0
 20
1.0
 30
0.0
  9
$USERI1
 70
     0
  9
$USERI2
 70
     0
  9
$USERI3
 70
     0
  9
$USERI4
 70
     0
  9
$USERI5
 70
     0
  9
$USERR1
 40
0.0
  9
$USERR2
 40
0.0
  9
$USERR3
 40
0.0
  9
$USERR4
 40
0.0
  9
$USERR5
 40
0.0
  9
$WORLDVIEW
 70
     1
  9
$SHADEDGE
 70
     3
  9
$SHADEDIF
 70
    70
  9
$TILEMODE
 70
     1
  9
$MAXACTVP
 70
    48
  9
$PINSBASE
 10
0.0
 20
0.0
 30
0.0
  9
$PLIMCHECK
 70
     0
  9
$PEXTMIN
 10
1.000000E+20
 20
1.000000E+20
 30
1.000000E+20
  9
$PEXTMAX
 10
-1.000000E+20
 20
-1.000000E+20
 30
-1.000000E+20
  9
$PLIMMIN
 10
0.0
 20
0.0
  9
$PLIMMAX
 10
420.0
 20
297.0
  9
$UNITMODE
 70
     0
  9
$VISRETAIN
 70
     1
  9
$PLINEGEN
 70
     0
  9
$PSLTSCALE
 70
     1
  9
$TREEDEPTH
 70
  3020
  9
$PICKSTYLE
 70
     1
  9
$CMLSTYLE
  2
STANDARD
  9
$CMLJUST
 70
     0
  9
$CMLSCALE
 40
20.0
  9
$PROXYGRAPHICS
 70
     1
  9
$MEASUREMENT
 70
     1
  0
ENDSEC
  0
SECTION
  2
CLASSES
  0
ENDSEC
  0
SECTION
  2
TABLES
  0
TABLE
  2
VPORT
  5
8
100
AcDbSymbolTable
 70
     3
  0
VPORT
  5
325
100
AcDbSymbolTableRecord
100
AcDbViewportTableRecord
  2
*ACTIVE
 70
     0
 10
0
 20
0
 11
1
 21
1
 12
0
 22
0
 13
0.0
 23
0.0
 14
1.0
 24
1.0
 15
1.0
 25
1.0
 16
0.0
 26
0.0
 36
1.0
 17
0.0
 27
0.0
 37
0.0
 40
18.749208
 41
1.732484
 42
50.0
 43
0.0
 44
0.0
 50
0.0
 51
0.0
 71
     0
 72
   100
 73
     1
 74
     1
 75
     0
 76
     0
 77
     0
 78
     0
  0
ENDTAB
  0
TABLE
  2
LTYPE
  5
5
100
AcDbSymbolTable
 70
     1
  0
LTYPE
  5
12
100
AcDbSymbolTableRecord
100
AcDbLinetypeTableRecord
  2
BYBLOCK
 70
     0
  3

 72
    65
 73
     0
 40
0.0
  0
LTYPE
  5
13
100
AcDbSymbolTableRecord
100
AcDbLinetypeTableRecord
  2
BYLAYER
 70
     0
  3

 72
    65
 73
     0
 40
0.0
  0
LTYPE
  5
14
100
AcDbSymbolTableRecord
100
AcDbLinetypeTableRecord
  2
CONTINUOUS
 70
     0
  3
Solid line
 72
    65
 73
     0
 40
0.0
  0
ENDTAB
  0
TABLE
  2
LAYER
  5
2
100
AcDbSymbolTable
 70
     4
  0
LAYER
  5
E
100
AcDbSymbolTableRecord
100
AcDbLayerTableRecord
  2
0
 70
     0
 62
     7
  6
CONTINUOUS
  0
LAYER
  5
21
100
AcDbSymbolTableRecord
100
AcDbLayerTableRecord
  2
RESTO
 70
     0
 62
     7
  6
CONTINUOUS
  0
LAYER
  5
23
100
AcDbSymbolTableRecord
100
AcDbLayerTableRecord
  2
CONTORNO
 70
     0
 62
     7
  6
CONTINUOUS
  0
LAYER
  5
32
100
AcDbSymbolTableRecord
100
AcDbLayerTableRecord
  2
SUPERFICI
 70
     0
 62
     7
  6
CONTINUOUS
  0
ENDTAB
  0
TABLE
  2
STYLE
  5
3
100
AcDbSymbolTable
 70
     1
  0
STYLE
  5
F
100
AcDbSymbolTableRecord
100
AcDbTextStyleTableRecord
  2
STANDARD
 70
     0
 40
0.0
 41
1.0
 50
0.0
 71
     0
 42
2.5
  3
txt
  4

  0
ENDTAB
  0
TABLE
  2
VIEW
  5
6
100
AcDbSymbolTable
 70
     0
  0
ENDTAB
  0
TABLE
  2
UCS
  5
7
100
AcDbSymbolTable
 70
     0
  0
ENDTAB
  0
TABLE
  2
APPID
  5
9
100
AcDbSymbolTable
 70
     1
  0
APPID
  5
10
100
AcDbSymbolTableRecord
100
AcDbRegAppTableRecord
  2
ACAD
 70
     0
  0
ENDTAB
  0
TABLE
  2
DIMSTYLE
  5
A
100
AcDbSymbolTable
 70
     1
  0
DIMSTYLE
105
1D
100
AcDbSymbolTableRecord
100
AcDbDimStyleTableRecord
  2
STANDARD
 70
     0
  3

  4

  5

  6

  7

 40
1.0
 41
0.18
 42
0.0625
 43
0.38
 44
0.18
 45
0.0
 46
0.0
 47
0.0
 48
0.0
140
0.18
141
0.09
142
0.0
143
25.4
144
1.0
145
0.0
146
1.0
147
0.09
 71
     0
 72
     0
 73
     1
 74
     1
 75
     0
 76
     0
 77
     0
 78
     0
170
     0
171
     2
172
     0
173
     0
174
     0
175
     0
176
     0
177
     0
178
     0
270
     2
271
     4
272
     4
273
     2
274
     2
340
F
275
     0
280
     0
281
     0
282
     0
283
     1
284
     0
285
     0
286
     0
287
     3
288
     0
  0
ENDTAB
  0
TABLE
  2
BLOCK_RECORD
  5
1
100
AcDbSymbolTable
 70
     0
  0
BLOCK_RECORD
  5
18
100
AcDbSymbolTableRecord
100
AcDbBlockTableRecord
  2
*MODEL_SPACE
  0
BLOCK_RECORD
  5
15
100
AcDbSymbolTableRecord
100
AcDbBlockTableRecord
  2
*PAPER_SPACE
  0
ENDTAB
  0
ENDSEC
  0
SECTION
  2
BLOCKS
  0
BLOCK
  5
19
100
AcDbEntity
  8
0
100
AcDbBlockBegin
  2
*MODEL_SPACE
 70
     0
 10
0.0
 20
0.0
 30
0.0
  3
*MODEL_SPACE
  1

  0
ENDBLK
  5
1A
100
AcDbEntity
  8
0
100
AcDbBlockEnd
  0
BLOCK
  5
16
100
AcDbEntity
 67
     1
  8
0
100
AcDbBlockBegin
  2
*PAPER_SPACE
 70
     0
 10
0.0
 20
0.0
 30
0.0
  3
*PAPER_SPACE
  1

  0
ENDBLK
  5
17
100
AcDbEntity
 67
     1
  8
0
100
AcDbBlockEnd
  0
ENDSEC
  0
SECTION
  2
ENTITIES
  0
POLYLINE
  5
500
100
AcDbEntity
  8
Hypar
100
AcDbPolyFaceMesh
 10
0.0
 20
0.0
 30
0.0
 70
   64
 71
361
 72
648
  0
VERTEX
  5
501
100
AcDbEntity
100
AcDbVertex
100
AcDbPolyFaceMeshVertex
 10
-3
 20
-3
 30
3
 70
   192
  0
VERTEX
  5
502
100
AcDbEntity
100
AcDbVertex
100
AcDbPolyFaceMeshVertex
 10
-2.84676
 20
-2.6627
 30
3.12937
 70
   192
  0
VERTEX
  5
503
100
AcDbEntity
100
AcDbVertex
100
AcDbPolyFaceMeshVertex
 10
-2.7156
 20
-2.32716
 30
3.25246
 70
   192
  0
VERTEX
  5
504
100
AcDbEntity
100
AcDbVertex
100
AcDbPolyFaceMeshVertex
 10
-2.6049
 20
-1.99297
 30
3.36996
 70
   192
  0
VERTEX
  5
505
100
AcDbEntity
100
AcDbVertex
100
AcDbPolyFaceMeshVertex
 10
-2.51308
 20
-1.65973
 30
3.48258
 70
   192
  0
VERTEX
  5
506
100
AcDbEntity
100
AcDbVertex
100
AcDbPolyFaceMeshVertex
 10
-2.43898
 20
-1.32714
 30
3.59108
 70
   192
  0
VERTEX
  5
507
100
AcDbEntity
100
AcDbVertex
100
AcDbPolyFaceMeshVertex
 10
-2.38206
 20
-0.99503
 30
3.69626
 70
   192
  0
VERTEX
  5
508
100
AcDbEntity
100
AcDbVertex
100
AcDbPolyFaceMeshVertex
 10
-2.34181
 20
-0.66323
 30
3.79893
 70
   192
  0
VERTEX
  5
509
100
AcDbEntity
100
AcDbVertex
100
AcDbPolyFaceMeshVertex
 10
-2.31774
 20
-0.331584
 30
3.89989
 70
   192
  0
VERTEX
  5
510
100
AcDbEntity
100
AcDbVertex
100
AcDbPolyFaceMeshVertex
 10
-2.30972
 20
5.95334e-09
 30
4
 70
   192
  0
VERTEX
  5
511
100
AcDbEntity
100
AcDbVertex
100
AcDbPolyFaceMeshVertex
 10
-2.31774
 20
0.331584
 30
4.10011
 70
   192
  0
VERTEX
  5
512
100
AcDbEntity
100
AcDbVertex
100
AcDbPolyFaceMeshVertex
 10
-2.34181
 20
0.66323
 30
4.20107
 70
   192
  0
VERTEX
  5
513
100
AcDbEntity
100
AcDbVertex
100
AcDbPolyFaceMeshVertex
 10
-2.38206
 20
0.99503
 30
4.30374
 70
   192
  0
VERTEX
  5
514
100
AcDbEntity
100
AcDbVertex
100
AcDbPolyFaceMeshVertex
 10
-2.43898
 20
1.32714
 30
4.40892
 70
   192
  0
VERTEX
  5
515
100
AcDbEntity
100
AcDbVertex
100
AcDbPolyFaceMeshVertex
 10
-2.51308
 20
1.65973
 30
4.51742
 70
   192
  0
VERTEX
  5
516
100
AcDbEntity
100
AcDbVertex
100
AcDbPolyFaceMeshVertex
 10
-2.6049
 20
1.99297
 30
4.63004
 70
   192
  0
VERTEX
  5
517
100
AcDbEntity
100
AcDbVertex
100
AcDbPolyFaceMeshVertex
 10
-2.7156
 20
2.32716
 30
4.74754
 70
   192
  0
VERTEX
  5
518
100
AcDbEntity
100
AcDbVertex
100
AcDbPolyFaceMeshVertex
 10
-2.84676
 20
2.6627
 30
4.87063
 70
   192
  0
VERTEX
  5
519
100
AcDbEntity
100
AcDbVertex
100
AcDbPolyFaceMeshVertex
 10
-3
 20
3
 30
5
 70
   192
  0
VERTEX
  5
520
100
AcDbEntity
100
AcDbVertex
100
AcDbPolyFaceMeshVertex
 10
-2.6627
 20
-2.84676
 30
3.12937
 70
   192
  0
VERTEX
  5
521
100
AcDbEntity
100
AcDbVertex
100
AcDbPolyFaceMeshVertex
 10
-2.54265
 20
-2.54265
 30
3.24072
 70
   192
  0
VERTEX
  5
522
100
AcDbEntity
100
AcDbVertex
100
AcDbPolyFaceMeshVertex
 10
-2.43572
 20
-2.2329
 30
3.34839
 70
   192
  0
VERTEX
  5
523
100
AcDbEntity
100
AcDbVertex
100
AcDbPolyFaceMeshVertex
 10
-2.34256
 20
-1.91899
 30
3.45199
 70
   192
  0
VERTEX
  5
524
100
AcDbEntity
100
AcDbVertex
100
AcDbPolyFaceMeshVertex
 10
-2.26376
 20
-1.60239
 30
3.55114
 70
   192
  0
VERTEX
  5
525
100
AcDbEntity
100
AcDbVertex
100
AcDbPolyFaceMeshVertex
 10
-2.19962
 20
-1.28407
 30
3.646
 70
   192
  0
VERTEX
  5
526
100
AcDbEntity
100
AcDbVertex
100
AcDbPolyFaceMeshVertex
 10
-2.14997
 20
-0.964362
 30
3.73742
 70
   192
  0
VERTEX
  5
527
100
AcDbEntity
100
AcDbVertex
100
AcDbPolyFaceMeshVertex
 10
-2.11465
 20
-0.643568
 30
3.82631
 70
   192
  0
VERTEX
  5
528
100
AcDbEntity
100
AcDbVertex
100
AcDbPolyFaceMeshVertex
 10
-2.09349
 20
-0.321988
 30
3.91356
 70
   192
  0
VERTEX
  5
529
100
AcDbEntity
100
AcDbVertex
100
AcDbPolyFaceMeshVertex
 10
-2.08644
 20
4.84857e-10
 30
4
 70
   192
  0
VERTEX
  5
530
100
AcDbEntity
100
AcDbVertex
100
AcDbPolyFaceMeshVertex
 10
-2.09349
 20
0.321988
 30
4.08644
 70
   192
  0
VERTEX
  5
531
100
AcDbEntity
100
AcDbVertex
100
AcDbPolyFaceMeshVertex
 10
-2.11465
 20
0.643568
 30
4.17369
 70
   192
  0
VERTEX
  5
532
100
AcDbEntity
100
AcDbVertex
100
AcDbPolyFaceMeshVertex
 10
-2.14997
 20
0.964362
 30
4.26258
 70
   192
  0
VERTEX
  5
533
100
AcDbEntity
100
AcDbVertex
100
AcDbPolyFaceMeshVertex
 10
-2.19962
 20
1.28407
 30
4.354
 70
   192
  0
VERTEX
  5
534
100
AcDbEntity
100
AcDbVertex
100
AcDbPolyFaceMeshVertex
 10
-2.26376
 20
1.60239
 30
4.44886
 70
   192
  0
VERTEX
  5
535
100
AcDbEntity
100
AcDbVertex
100
AcDbPolyFaceMeshVertex
 10
-2.34256
 20
1.91899
 30
4.54801
 70
   192
  0
VERTEX
  5
536
100
AcDbEntity
100
AcDbVertex
100
AcDbPolyFaceMeshVertex
 10
-2.43572
 20
2.2329
 30
4.65161
 70
   192
  0
VERTEX
  5
537
100
AcDbEntity
100
AcDbVertex
100
AcDbPolyFaceMeshVertex
 10
-2.54265
 20
2.54265
 30
4.75927
 70
   192
  0
VERTEX
  5
538
100
AcDbEntity
100
AcDbVertex
100
AcDbPolyFaceMeshVertex
 10
-2.6627
 20
2.84676
 30
4.87063
 70
   192
  0
VERTEX
  5
539
100
AcDbEntity
100
AcDbVertex
100
AcDbPolyFaceMeshVertex
 10
-2.32716
 20
-2.7156
 30
3.25246
 70
   192
  0
VERTEX
  5
540
100
AcDbEntity
100
AcDbVertex
100
AcDbPolyFaceMeshVertex
 10
-2.2329
 20
-2.43572
 30
3.34839
 70
   192
  0
VERTEX
  5
541
100
AcDbEntity
100
AcDbVertex
100
AcDbPolyFaceMeshVertex
 10
-2.14652
 20
-2.14652
 30
3.44145
 70
   192
  0
VERTEX
  5
542
100
AcDbEntity
100
AcDbVertex
100
AcDbPolyFaceMeshVertex
 10
-2.06952
 20
-1.85007
 30
3.53102
 70
   192
  0
VERTEX
  5
543
100
AcDbEntity
100
AcDbVertex
100
AcDbPolyFaceMeshVertex
 10
-2.00338
 20
-1.54844
 30
3.61653
 70
   192
  0
VERTEX
  5
544
100
AcDbEntity
100
AcDbVertex
100
AcDbPolyFaceMeshVertex
 10
-1.94901
 20
-1.24315
 30
3.69799
 70
   192
  0
VERTEX
  5
545
100
AcDbEntity
100
AcDbVertex
100
AcDbPolyFaceMeshVertex
 10
-1.90657
 20
-0.934941
 30
3.77622
 70
   192
  0
VERTEX
  5
546
100
AcDbEntity
100
AcDbVertex
100
AcDbPolyFaceMeshVertex
 10
-1.87617
 20
-0.624534
 30
3.85207
 70
   192
  0
VERTEX
  5
547
100
AcDbEntity
100
AcDbVertex
100
AcDbPolyFaceMeshVertex
 10
-1.85791
 20
-0.312641
 30
3.92641
 70
   192
  0
VERTEX
  5
548
100
AcDbEntity
100
AcDbVertex
100
AcDbPolyFaceMeshVertex
 10
-1.85182
 20
-4.61428e-09
 30
4
 70
   192
  0
VERTEX
  5
549
100
AcDbEntity
100
AcDbVertex
100
AcDbPolyFaceMeshVertex
 10
-1.85791
 20
0.312641
 30
4.07359
 70
   192
  0
VERTEX
  5
550
100
AcDbEntity
100
AcDbVertex
100
AcDbPolyFaceMeshVertex
 10
-1.87617
 20
0.624534
 30
4.14793
 70
   192
  0
VERTEX
  5
551
100
AcDbEntity
100
AcDbVertex
100
AcDbPolyFaceMeshVertex
 10
-1.90657
 20
0.934941
 30
4.22378
 70
   192
  0
VERTEX
  5
552
100
AcDbEntity
100
AcDbVertex
100
AcDbPolyFaceMeshVertex
 10
-1.94901
 20
1.24315
 30
4.30201
 70
   192
  0
VERTEX
  5
553
100
AcDbEntity
100
AcDbVertex
100
AcDbPolyFaceMeshVertex
 10
-2.00338
 20
1.54844
 30
4.38347
 70
   192
  0
VERTEX
  5
554
100
AcDbEntity
100
AcDbVertex
100
AcDbPolyFaceMeshVertex
 10
-2.06952
 20
1.85007
 30
4.46898
 70
   192
  0
VERTEX
  5
555
100
AcDbEntity
100
AcDbVertex
100
AcDbPolyFaceMeshVertex
 10
-2.14652
 20
2.14652
 30
4.55855
 70
   192
  0
VERTEX
  5
556
100
AcDbEntity
100
AcDbVertex
100
AcDbPolyFaceMeshVertex
 10
-2.2329
 20
2.43572
 30
4.65161
 70
   192
  0
VERTEX
  5
557
100
AcDbEntity
100
AcDbVertex
100
AcDbPolyFaceMeshVertex
 10
-2.32716
 20
2.7156
 30
4.74754
 70
   192
  0
VERTEX
  5
558
100
AcDbEntity
100
AcDbVertex
100
AcDbPolyFaceMeshVertex
 10
-1.99297
 20
-2.6049
 30
3.36996
 70
   192
  0
VERTEX
  5
559
100
AcDbEntity
100
AcDbVertex
100
AcDbPolyFaceMeshVertex
 10
-1.91899
 20
-2.34256
 30
3.45199
 70
   192
  0
VERTEX
  5
560
100
AcDbEntity
100
AcDbVertex
100
AcDbPolyFaceMeshVertex
 10
-1.85007
 20
-2.06952
 30
3.53102
 70
   192
  0
VERTEX
  5
561
100
AcDbEntity
100
AcDbVertex
100
AcDbPolyFaceMeshVertex
 10
-1.78775
 20
-1.78775
 30
3.60671
 70
   192
  0
VERTEX
  5
562
100
AcDbEntity
100
AcDbVertex
100
AcDbPolyFaceMeshVertex
 10
-1.73359
 20
-1.49922
 30
3.67872
 70
   192
  0
VERTEX
  5
563
100
AcDbEntity
100
AcDbVertex
100
AcDbPolyFaceMeshVertex
 10
-1.6886
 20
-1.20549
 30
3.74718
 70
   192
  0
VERTEX
  5
564
100
AcDbEntity
100
AcDbVertex
100
AcDbPolyFaceMeshVertex
 10
-1.65316
 20
-0.907658
 30
3.8128
 70
   192
  0
VERTEX
  5
565
100
AcDbEntity
100
AcDbVertex
100
AcDbPolyFaceMeshVertex
 10
-1.62759
 20
-0.606773
 30
3.87633
 70
   192
  0
VERTEX
  5
566
100
AcDbEntity
100
AcDbVertex
100
AcDbPolyFaceMeshVertex
 10
-1.6122
 20
-0.303883
 30
3.9385
 70
   192
  0
VERTEX
  5
567
100
AcDbEntity
100
AcDbVertex
100
AcDbPolyFaceMeshVertex
 10
-1.60706
 20
-9.30061e-09
 30
4
 70
   192
  0
VERTEX
  5
568
100
AcDbEntity
100
AcDbVertex
100
AcDbPolyFaceMeshVertex
 10
-1.6122
 20
0.303883
 30
4.0615
 70
   192
  0
VERTEX
  5
569
100
AcDbEntity
100
AcDbVertex
100
AcDbPolyFaceMeshVertex
 10
-1.62759
 20
0.606773
 30
4.12367
 70
   192
  0
VERTEX
  5
570
100
AcDbEntity
100
AcDbVertex
100
AcDbPolyFaceMeshVertex
 10
-1.65316
 20
0.907658
 30
4.1872
 70
   192
  0
VERTEX
  5
571
100
AcDbEntity
100
AcDbVertex
100
AcDbPolyFaceMeshVertex
 10
-1.6886
 20
1.20549
 30
4.25282
 70
   192
  0
VERTEX
  5
572
100
AcDbEntity
100
AcDbVertex
100
AcDbPolyFaceMeshVertex
 10
-1.73359
 20
1.49922
 30
4.32128
 70
   192
  0
VERTEX
  5
573
100
AcDbEntity
100
AcDbVertex
100
AcDbPolyFaceMeshVertex
 10
-1.78775
 20
1.78775
 30
4.39329
 70
   192
  0
VERTEX
  5
574
100
AcDbEntity
100
AcDbVertex
100
AcDbPolyFaceMeshVertex
 10
-1.85007
 20
2.06952
 30
4.46898
 70
   192
  0
VERTEX
  5
575
100
AcDbEntity
100
AcDbVertex
100
AcDbPolyFaceMeshVertex
 10
-1.91899
 20
2.34256
 30
4.54801
 70
   192
  0
VERTEX
  5
576
100
AcDbEntity
100
AcDbVertex
100
AcDbPolyFaceMeshVertex
 10
-1.99297
 20
2.6049
 30
4.63004
 70
   192
  0
VERTEX
  5
577
100
AcDbEntity
100
AcDbVertex
100
AcDbPolyFaceMeshVertex
 10
-1.65973
 20
-2.51308
 30
3.48258
 70
   192
  0
VERTEX
  5
578
100
AcDbEntity
100
AcDbVertex
100
AcDbPolyFaceMeshVertex
 10
-1.60239
 20
-2.26376
 30
3.55114
 70
   192
  0
VERTEX
  5
579
100
AcDbEntity
100
AcDbVertex
100
AcDbPolyFaceMeshVertex
 10
-1.54844
 20
-2.00338
 30
3.61653
 70
   192
  0
VERTEX
  5
580
100
AcDbEntity
100
AcDbVertex
100
AcDbPolyFaceMeshVertex
 10
-1.49922
 20
-1.73359
 30
3.67872
 70
   192
  0
VERTEX
  5
581
100
AcDbEntity
100
AcDbVertex
100
AcDbPolyFaceMeshVertex
 10
-1.45603
 20
-1.45603
 30
3.7377
 70
   192
  0
VERTEX
  5
582
100
AcDbEntity
100
AcDbVertex
100
AcDbPolyFaceMeshVertex
 10
-1.41981
 20
-1.1722
 30
3.7937
 70
   192
  0
VERTEX
  5
583
100
AcDbEntity
100
AcDbVertex
100
AcDbPolyFaceMeshVertex
 10
-1.39105
 20
-0.883398
 30
3.84733
 70
   192
  0
VERTEX
  5
584
100
AcDbEntity
100
AcDbVertex
100
AcDbPolyFaceMeshVertex
 10
-1.37016
 20
-0.590923
 30
3.89918
 70
   192
  0
VERTEX
  5
585
100
AcDbEntity
100
AcDbVertex
100
AcDbPolyFaceMeshVertex
 10
-1.35756
 20
-0.296053
 30
3.94988
 70
   192
  0
VERTEX
  5
586
100
AcDbEntity
100
AcDbVertex
100
AcDbPolyFaceMeshVertex
 10
-1.35336
 20
-1.35301e-08
 30
4
 70
   192
  0
VERTEX
  5
587
100
AcDbEntity
100
AcDbVertex
100
AcDbPolyFaceMeshVertex
 10
-1.35756
 20
0.296053
 30
4.05012
 70
   192
  0
VERTEX
  5
588
100
AcDbEntity
100
AcDbVertex
100
AcDbPolyFaceMeshVertex
 10
-1.37016
 20
0.590923
 30
4.10082
 70
   192
  0
VERTEX
  5
589
100
AcDbEntity
100
AcDbVertex
100
AcDbPolyFaceMeshVertex
 10
-1.39105
 20
0.883398
 30
4.15267
 70
   192
  0
VERTEX
  5
590
100
AcDbEntity
100
AcDbVertex
100
AcDbPolyFaceMeshVertex
 10
-1.41981
 20
1.1722
 30
4.2063
 70
   192
  0
VERTEX
  5
591
100
AcDbEntity
100
AcDbVertex
100
AcDbPolyFaceMeshVertex
 10
-1.45603
 20
1.45603
 30
4.2623
 70
   192
  0
VERTEX
  5
592
100
AcDbEntity
100
AcDbVertex
100
AcDbPolyFaceMeshVertex
 10
-1.49922
 20
1.73359
 30
4.32128
 70
   192
  0
VERTEX
  5
593
100
AcDbEntity
100
AcDbVertex
100
AcDbPolyFaceMeshVertex
 10
-1.54844
 20
2.00338
 30
4.38347
 70
   192
  0
VERTEX
  5
594
100
AcDbEntity
100
AcDbVertex
100
AcDbPolyFaceMeshVertex
 10
-1.60239
 20
2.26376
 30
4.44886
 70
   192
  0
VERTEX
  5
595
100
AcDbEntity
100
AcDbVertex
100
AcDbPolyFaceMeshVertex
 10
-1.65973
 20
2.51308
 30
4.51742
 70
   192
  0
VERTEX
  5
596
100
AcDbEntity
100
AcDbVertex
100
AcDbPolyFaceMeshVertex
 10
-1.32714
 20
-2.43898
 30
3.59108
 70
   192
  0
VERTEX
  5
597
100
AcDbEntity
100
AcDbVertex
100
AcDbPolyFaceMeshVertex
 10
-1.28407
 20
-2.19962
 30
3.646
 70
   192
  0
VERTEX
  5
598
100
AcDbEntity
100
AcDbVertex
100
AcDbPolyFaceMeshVertex
 10
-1.24315
 20
-1.94901
 30
3.69799
 70
   192
  0
VERTEX
  5
599
100
AcDbEntity
100
AcDbVertex
100
AcDbPolyFaceMeshVertex
 10
-1.20549
 20
-1.6886
 30
3.74718
 70
   192
  0
VERTEX
  5
600
100
AcDbEntity
100
AcDbVertex
100
AcDbPolyFaceMeshVertex
 10
-1.1722
 20
-1.41981
 30
3.7937
 70
   192
  0
VERTEX
  5
601
100
AcDbEntity
100
AcDbVertex
100
AcDbPolyFaceMeshVertex
 10
-1.14408
 20
-1.14408
 30
3.83783
 70
   192
  0
VERTEX
  5
602
100
AcDbEntity
100
AcDbVertex
100
AcDbPolyFaceMeshVertex
 10
-1.12162
 20
-0.862827
 30
3.88003
 70
   192
  0
VERTEX
  5
603
100
AcDbEntity
100
AcDbVertex
100
AcDbPolyFaceMeshVertex
 10
-1.10523
 20
-0.577462
 30
3.92081
 70
   192
  0
VERTEX
  5
604
100
AcDbEntity
100
AcDbVertex
100
AcDbPolyFaceMeshVertex
 10
-1.09532
 20
-0.2894
 30
3.96064
 70
   192
  0
VERTEX
  5
605
100
AcDbEntity
100
AcDbVertex
100
AcDbPolyFaceMeshVertex
 10
-1.09202
 20
-1.72369e-08
 30
4
 70
   192
  0
VERTEX
  5
606
100
AcDbEntity
100
AcDbVertex
100
AcDbPolyFaceMeshVertex
 10
-1.09532
 20
0.2894
 30
4.03936
 70
   192
  0
VERTEX
  5
607
100
AcDbEntity
100
AcDbVertex
100
AcDbPolyFaceMeshVertex
 10
-1.10523
 20
0.577462
 30
4.07919
 70
   192
  0
VERTEX
  5
608
100
AcDbEntity
100
AcDbVertex
100
AcDbPolyFaceMeshVertex
 10
-1.12162
 20
0.862827
 30
4.11997
 70
   192
  0
VERTEX
  5
609
100
AcDbEntity
100
AcDbVertex
100
AcDbPolyFaceMeshVertex
 10
-1.14408
 20
1.14408
 30
4.16217
 70
   192
  0
VERTEX
  5
610
100
AcDbEntity
100
AcDbVertex
100
AcDbPolyFaceMeshVertex
 10
-1.1722
 20
1.41981
 30
4.2063
 70
   192
  0
VERTEX
  5
611
100
AcDbEntity
100
AcDbVertex
100
AcDbPolyFaceMeshVertex
 10
-1.20549
 20
1.6886
 30
4.25282
 70
   192
  0
VERTEX
  5
612
100
AcDbEntity
100
AcDbVertex
100
AcDbPolyFaceMeshVertex
 10
-1.24315
 20
1.94901
 30
4.30201
 70
   192
  0
VERTEX
  5
613
100
AcDbEntity
100
AcDbVertex
100
AcDbPolyFaceMeshVertex
 10
-1.28407
 20
2.19962
 30
4.354
 70
   192
  0
VERTEX
  5
614
100
AcDbEntity
100
AcDbVertex
100
AcDbPolyFaceMeshVertex
 10
-1.32714
 20
2.43898
 30
4.40892
 70
   192
  0
VERTEX
  5
615
100
AcDbEntity
100
AcDbVertex
100
AcDbPolyFaceMeshVertex
 10
-0.99503
 20
-2.38206
 30
3.69626
 70
   192
  0
VERTEX
  5
616
100
AcDbEntity
100
AcDbVertex
100
AcDbPolyFaceMeshVertex
 10
-0.964362
 20
-2.14997
 30
3.73742
 70
   192
  0
VERTEX
  5
617
100
AcDbEntity
100
AcDbVertex
100
AcDbPolyFaceMeshVertex
 10
-0.934941
 20
-1.90657
 30
3.77622
 70
   192
  0
VERTEX
  5
618
100
AcDbEntity
100
AcDbVertex
100
AcDbPolyFaceMeshVertex
 10
-0.907658
 20
-1.65316
 30
3.8128
 70
   192
  0
VERTEX
  5
619
100
AcDbEntity
100
AcDbVertex
100
AcDbPolyFaceMeshVertex
 10
-0.883398
 20
-1.39105
 30
3.84733
 70
   192
  0
VERTEX
  5
620
100
AcDbEntity
100
AcDbVertex
100
AcDbPolyFaceMeshVertex
 10
-0.862827
 20
-1.12162
 30
3.88003
 70
   192
  0
VERTEX
  5
621
100
AcDbEntity
100
AcDbVertex
100
AcDbPolyFaceMeshVertex
 10
-0.846327
 20
-0.846327
 30
3.91128
 70
   192
  0
VERTEX
  5
622
100
AcDbEntity
100
AcDbVertex
100
AcDbPolyFaceMeshVertex
 10
-0.834261
 20
-0.56665
 30
3.94145
 70
   192
  0
VERTEX
  5
623
100
AcDbEntity
100
AcDbVertex
100
AcDbPolyFaceMeshVertex
 10
-0.826959
 20
-0.284054
 30
3.9709
 70
   192
  0
VERTEX
  5
624
100
AcDbEntity
100
AcDbVertex
100
AcDbPolyFaceMeshVertex
 10
-0.824524
 20
-2.03266e-08
 30
4
 70
   192
  0
VERTEX
  5
625
100
AcDbEntity
100
AcDbVertex
100
AcDbPolyFaceMeshVertex
 10
-0.826959
 20
0.284054
 30
4.0291
 70
   192
  0
VERTEX
  5
626
100
AcDbEntity
100
AcDbVertex
100
AcDbPolyFaceMeshVertex
 10
-0.834261
 20
0.56665
 30
4.05855
 70
   192
  0
VERTEX
  5
627
100
AcDbEntity
100
AcDbVertex
100
AcDbPolyFaceMeshVertex
 10
-0.846327
 20
0.846327
 30
4.08872
 70
   192
  0
VERTEX
  5
628
100
AcDbEntity
100
AcDbVertex
100
AcDbPolyFaceMeshVertex
 10
-0.862827
 20
1.12162
 30
4.11997
 70
   192
  0
VERTEX
  5
629
100
AcDbEntity
100
AcDbVertex
100
AcDbPolyFaceMeshVertex
 10
-0.883398
 20
1.39105
 30
4.15267
 70
   192
  0
VERTEX
  5
630
100
AcDbEntity
100
AcDbVertex
100
AcDbPolyFaceMeshVertex
 10
-0.907658
 20
1.65316
 30
4.1872
 70
   192
  0
VERTEX
  5
631
100
AcDbEntity
100
AcDbVertex
100
AcDbPolyFaceMeshVertex
 10
-0.934941
 20
1.90657
 30
4.22378
 70
   192
  0
VERTEX
  5
632
100
AcDbEntity
100
AcDbVertex
100
AcDbPolyFaceMeshVertex
 10
-0.964362
 20
2.14997
 30
4.26258
 70
   192
  0
VERTEX
  5
633
100
AcDbEntity
100
AcDbVertex
100
AcDbPolyFaceMeshVertex
 10
-0.99503
 20
2.38206
 30
4.30374
 70
   192
  0
VERTEX
  5
634
100
AcDbEntity
100
AcDbVertex
100
AcDbPolyFaceMeshVertex
 10
-0.66323
 20
-2.34181
 30
3.79893
 70
   192
  0
VERTEX
  5
635
100
AcDbEntity
100
AcDbVertex
100
AcDbPolyFaceMeshVertex
 10
-0.643568
 20
-2.11465
 30
3.82631
 70
   192
  0
VERTEX
  5
636
100
AcDbEntity
100
AcDbVertex
100
AcDbPolyFaceMeshVertex
 10
-0.624534
 20
-1.87617
 30
3.85207
 70
   192
  0
VERTEX
  5
637
100
AcDbEntity
100
AcDbVertex
100
AcDbPolyFaceMeshVertex
 10
-0.606773
 20
-1.62759
 30
3.87633
 70
   192
  0
VERTEX
  5
638
100
AcDbEntity
100
AcDbVertex
100
AcDbPolyFaceMeshVertex
 10
-0.590923
 20
-1.37016
 30
3.89918
 70
   192
  0
VERTEX
  5
639
100
AcDbEntity
100
AcDbVertex
100
AcDbPolyFaceMeshVertex
 10
-0.577462
 20
-1.10523
 30
3.92081
 70
   192
  0
VERTEX
  5
640
100
AcDbEntity
100
AcDbVertex
100
AcDbPolyFaceMeshVertex
 10
-0.56665
 20
-0.834261
 30
3.94145
 70
   192
  0
VERTEX
  5
641
100
AcDbEntity
100
AcDbVertex
100
AcDbPolyFaceMeshVertex
 10
-0.558736
 20
-0.558736
 30
3.96137
 70
   192
  0
VERTEX
  5
642
100
AcDbEntity
100
AcDbVertex
100
AcDbPolyFaceMeshVertex
 10
-0.553945
 20
-0.28014
 30
3.9808
 70
   192
  0
VERTEX
  5
643
100
AcDbEntity
100
AcDbVertex
100
AcDbPolyFaceMeshVertex
 10
-0.552348
 20
-2.27029e-08
 30
4
 70
   192
  0
VERTEX
  5
644
100
AcDbEntity
100
AcDbVertex
100
AcDbPolyFaceMeshVertex
 10
-0.553945
 20
0.28014
 30
4.0192
 70
   192
  0
VERTEX
  5
645
100
AcDbEntity
100
AcDbVertex
100
AcDbPolyFaceMeshVertex
 10
-0.558736
 20
0.558736
 30
4.03863
 70
   192
  0
VERTEX
  5
646
100
AcDbEntity
100
AcDbVertex
100
AcDbPolyFaceMeshVertex
 10
-0.56665
 20
0.83426
 30
4.05855
 70
   192
  0
VERTEX
  5
647
100
AcDbEntity
100
AcDbVertex
100
AcDbPolyFaceMeshVertex
 10
-0.577462
 20
1.10523
 30
4.07919
 70
   192
  0
VERTEX
  5
648
100
AcDbEntity
100
AcDbVertex
100
AcDbPolyFaceMeshVertex
 10
-0.590923
 20
1.37016
 30
4.10082
 70
   192
  0
VERTEX
  5
649
100
AcDbEntity
100
AcDbVertex
100
AcDbPolyFaceMeshVertex
 10
-0.606773
 20
1.62759
 30
4.12367
 70
   192
  0
VERTEX
  5
650
100
AcDbEntity
100
AcDbVertex
100
AcDbPolyFaceMeshVertex
 10
-0.624534
 20
1.87617
 30
4.14793
 70
   192
  0
VERTEX
  5
651
100
AcDbEntity
100
AcDbVertex
100
AcDbPolyFaceMeshVertex
 10
-0.643568
 20
2.11465
 30
4.17369
 70
   192
  0
VERTEX
  5
652
100
AcDbEntity
100
AcDbVertex
100
AcDbPolyFaceMeshVertex
 10
-0.66323
 20
2.34181
 30
4.20107
 70
   192
  0
VERTEX
  5
653
100
AcDbEntity
100
AcDbVertex
100
AcDbPolyFaceMeshVertex
 10
-0.331584
 20
-2.31774
 30
3.89989
 70
   192
  0
VERTEX
  5
654
100
AcDbEntity
100
AcDbVertex
100
AcDbPolyFaceMeshVertex
 10
-0.321988
 20
-2.09349
 30
3.91356
 70
   192
  0
VERTEX
  5
655
100
AcDbEntity
100
AcDbVertex
100
AcDbPolyFaceMeshVertex
 10
-0.312641
 20
-1.85791
 30
3.92641
 70
   192
  0
VERTEX
  5
656
100
AcDbEntity
100
AcDbVertex
100
AcDbPolyFaceMeshVertex
 10
-0.303883
 20
-1.6122
 30
3.9385
 70
   192
  0
VERTEX
  5
657
100
AcDbEntity
100
AcDbVertex
100
AcDbPolyFaceMeshVertex
 10
-0.296053
 20
-1.35756
 30
3.94988
 70
   192
  0
VERTEX
  5
658
100
AcDbEntity
100
AcDbVertex
100
AcDbPolyFaceMeshVertex
 10
-0.2894
 20
-1.09532
 30
3.96064
 70
   192
  0
VERTEX
  5
659
100
AcDbEntity
100
AcDbVertex
100
AcDbPolyFaceMeshVertex
 10
-0.284054
 20
-0.826959
 30
3.9709
 70
   192
  0
VERTEX
  5
660
100
AcDbEntity
100
AcDbVertex
100
AcDbPolyFaceMeshVertex
 10
-0.28014
 20
-0.553945
 30
3.9808
 70
   192
  0
VERTEX
  5
661
100
AcDbEntity
100
AcDbVertex
100
AcDbPolyFaceMeshVertex
 10
-0.277771
 20
-0.277771
 30
3.99046
 70
   192
  0
VERTEX
  5
662
100
AcDbEntity
100
AcDbVertex
100
AcDbPolyFaceMeshVertex
 10
-0.276981
 20
-2.42781e-08
 30
4
 70
   192
  0
VERTEX
  5
663
100
AcDbEntity
100
AcDbVertex
100
AcDbPolyFaceMeshVertex
 10
-0.277771
 20
0.277771
 30
4.00954
 70
   192
  0
VERTEX
  5
664
100
AcDbEntity
100
AcDbVertex
100
AcDbPolyFaceMeshVertex
 10
-0.28014
 20
0.553945
 30
4.0192
 70
   192
  0
VERTEX
  5
665
100
AcDbEntity
100
AcDbVertex
100
AcDbPolyFaceMeshVertex
 10
-0.284054
 20
0.826959
 30
4.0291
 70
   192
  0
VERTEX
  5
666
100
AcDbEntity
100
AcDbVertex
100
AcDbPolyFaceMeshVertex
 10
-0.2894
 20
1.09532
 30
4.03936
 70
   192
  0
VERTEX
  5
667
100
AcDbEntity
100
AcDbVertex
100
AcDbPolyFaceMeshVertex
 10
-0.296053
 20
1.35756
 30
4.05012
 70
   192
  0
VERTEX
  5
668
100
AcDbEntity
100
AcDbVertex
100
AcDbPolyFaceMeshVertex
 10
-0.303883
 20
1.6122
 30
4.0615
 70
   192
  0
VERTEX
  5
669
100
AcDbEntity
100
AcDbVertex
100
AcDbPolyFaceMeshVertex
 10
-0.312641
 20
1.85791
 30
4.07359
 70
   192
  0
VERTEX
  5
670
100
AcDbEntity
100
AcDbVertex
100
AcDbPolyFaceMeshVertex
 10
-0.321988
 20
2.09349
 30
4.08644
 70
   192
  0
VERTEX
  5
671
100
AcDbEntity
100
AcDbVertex
100
AcDbPolyFaceMeshVertex
 10
-0.331584
 20
2.31774
 30
4.10011
 70
   192
  0
VERTEX
  5
672
100
AcDbEntity
100
AcDbVertex
100
AcDbPolyFaceMeshVertex
 10
-1.09138e-08
 20
-2.30972
 30
4
 70
   192
  0
VERTEX
  5
673
100
AcDbEntity
100
AcDbVertex
100
AcDbPolyFaceMeshVertex
 10
-9.87843e-09
 20
-2.08644
 30
4
 70
   192
  0
VERTEX
  5
674
100
AcDbEntity
100
AcDbVertex
100
AcDbPolyFaceMeshVertex
 10
-9.37672e-09
 20
-1.85182
 30
4
 70
   192
  0
VERTEX
  5
675
100
AcDbEntity
100
AcDbVertex
100
AcDbPolyFaceMeshVertex
 10
-9.22969e-09
 20
-1.60706
 30
4
 70
   192
  0
VERTEX
  5
676
100
AcDbEntity
100
AcDbVertex
100
AcDbPolyFaceMeshVertex
 10
-9.2599e-09
 20
-1.35336
 30
4
 70
   192
  0
VERTEX
  5
677
100
AcDbEntity
100
AcDbVertex
100
AcDbPolyFaceMeshVertex
 10
-9.34946e-09
 20
-1.09202
 30
4
 70
   192
  0
VERTEX
  5
678
100
AcDbEntity
100
AcDbVertex
100
AcDbPolyFaceMeshVertex
 10
-9.45776e-09
 20
-0.824524
 30
4
 70
   192
  0
VERTEX
  5
679
100
AcDbEntity
100
AcDbVertex
100
AcDbPolyFaceMeshVertex
 10
-9.54939e-09
 20
-0.552348
 30
4
 70
   192
  0
VERTEX
  5
680
100
AcDbEntity
100
AcDbVertex
100
AcDbPolyFaceMeshVertex
 10
-9.59934e-09
 20
-0.276981
 30
4
 70
   192
  0
VERTEX
  5
681
100
AcDbEntity
100
AcDbVertex
100
AcDbPolyFaceMeshVertex
 10
-9.65964e-09
 20
-2.50279e-08
 30
4
 70
   192
  0
VERTEX
  5
682
100
AcDbEntity
100
AcDbVertex
100
AcDbPolyFaceMeshVertex
 10
-9.81682e-09
 20
0.276981
 30
4
 70
   192
  0
VERTEX
  5
683
100
AcDbEntity
100
AcDbVertex
100
AcDbPolyFaceMeshVertex
 10
-1.01574e-08
 20
0.552348
 30
4
 70
   192
  0
VERTEX
  5
684
100
AcDbEntity
100
AcDbVertex
100
AcDbPolyFaceMeshVertex
 10
-1.07288e-08
 20
0.824524
 30
4
 70
   192
  0
VERTEX
  5
685
100
AcDbEntity
100
AcDbVertex
100
AcDbPolyFaceMeshVertex
 10
-1.14915e-08
 20
1.09202
 30
4
 70
   192
  0
VERTEX
  5
686
100
AcDbEntity
100
AcDbVertex
100
AcDbPolyFaceMeshVertex
 10
-1.2394e-08
 20
1.35336
 30
4
 70
   192
  0
VERTEX
  5
687
100
AcDbEntity
100
AcDbVertex
100
AcDbPolyFaceMeshVertex
 10
-1.33813e-08
 20
1.60706
 30
4
 70
   192
  0
VERTEX
  5
688
100
AcDbEntity
100
AcDbVertex
100
AcDbPolyFaceMeshVertex
 10
-1.43447e-08
 20
1.85182
 30
4
 70
   192
  0
VERTEX
  5
689
100
AcDbEntity
100
AcDbVertex
100
AcDbPolyFaceMeshVertex
 10
-1.5134e-08
 20
2.08644
 30
4
 70
   192
  0
VERTEX
  5
690
100
AcDbEntity
100
AcDbVertex
100
AcDbPolyFaceMeshVertex
 10
-1.55981e-08
 20
2.30972
 30
4
 70
   192
  0
VERTEX
  5
691
100
AcDbEntity
100
AcDbVertex
100
AcDbPolyFaceMeshVertex
 10
0.331584
 20
-2.31774
 30
4.10011
 70
   192
  0
VERTEX
  5
692
100
AcDbEntity
100
AcDbVertex
100
AcDbPolyFaceMeshVertex
 10
0.321988
 20
-2.09349
 30
4.08644
 70
   192
  0
VERTEX
  5
693
100
AcDbEntity
100
AcDbVertex
100
AcDbPolyFaceMeshVertex
 10
0.312641
 20
-1.85791
 30
4.07359
 70
   192
  0
VERTEX
  5
694
100
AcDbEntity
100
AcDbVertex
100
AcDbPolyFaceMeshVertex
 10
0.303883
 20
-1.6122
 30
4.0615
 70
   192
  0
VERTEX
  5
695
100
AcDbEntity
100
AcDbVertex
100
AcDbPolyFaceMeshVertex
 10
0.296053
 20
-1.35756
 30
4.05012
 70
   192
  0
VERTEX
  5
696
100
AcDbEntity
100
AcDbVertex
100
AcDbPolyFaceMeshVertex
 10
0.2894
 20
-1.09532
 30
4.03936
 70
   192
  0
VERTEX
  5
697
100
AcDbEntity
100
AcDbVertex
100
AcDbPolyFaceMeshVertex
 10
0.284054
 20
-0.826959
 30
4.0291
 70
   192
  0
VERTEX
  5
698
100
AcDbEntity
100
AcDbVertex
100
AcDbPolyFaceMeshVertex
 10
0.28014
 20
-0.553945
 30
4.0192
 70
   192
  0
VERTEX
  5
699
100
AcDbEntity
100
AcDbVertex
100
AcDbPolyFaceMeshVertex
 10
0.277771
 20
-0.277771
 30
4.00954
 70
   192
  0
VERTEX
  5
700
100
AcDbEntity
100
AcDbVertex
100
AcDbPolyFaceMeshVertex
 10
0.276981
 20
-2.49562e-08
 30
4
 70
   192
  0
VERTEX
  5
701
100
AcDbEntity
100
AcDbVertex
100
AcDbPolyFaceMeshVertex
 10
0.277771
 20
0.277771
 30
3.99046
 70
   192
  0
VERTEX
  5
702
100
AcDbEntity
100
AcDbVertex
100
AcDbPolyFaceMeshVertex
 10
0.28014
 20
0.553945
 30
3.9808
 70
   192
  0
VERTEX
  5
703
100
AcDbEntity
100
AcDbVertex
100
AcDbPolyFaceMeshVertex
 10
0.284054
 20
0.826959
 30
3.9709
 70
   192
  0
VERTEX
  5
704
100
AcDbEntity
100
AcDbVertex
100
AcDbPolyFaceMeshVertex
 10
0.2894
 20
1.09532
 30
3.96064
 70
   192
  0
VERTEX
  5
705
100
AcDbEntity
100
AcDbVertex
100
AcDbPolyFaceMeshVertex
 10
0.296053
 20
1.35756
 30
3.94988
 70
   192
  0
VERTEX
  5
706
100
AcDbEntity
100
AcDbVertex
100
AcDbPolyFaceMeshVertex
 10
0.303883
 20
1.6122
 30
3.9385
 70
   192
  0
VERTEX
  5
707
100
AcDbEntity
100
AcDbVertex
100
AcDbPolyFaceMeshVertex
 10
0.312641
 20
1.85791
 30
3.92641
 70
   192
  0
VERTEX
  5
708
100
AcDbEntity
100
AcDbVertex
100
AcDbPolyFaceMeshVertex
 10
0.321988
 20
2.09349
 30
3.91356
 70
   192
  0
VERTEX
  5
709
100
AcDbEntity
100
AcDbVertex
100
AcDbPolyFaceMeshVertex
 10
0.331584
 20
2.31774
 30
3.89989
 70
   192
  0
VERTEX
  5
710
100
AcDbEntity
100
AcDbVertex
100
AcDbPolyFaceMeshVertex
 10
0.66323
 20
-2.34181
 30
4.20107
 70
   192
  0
VERTEX
  5
711
100
AcDbEntity
100
AcDbVertex
100
AcDbPolyFaceMeshVertex
 10
0.643568
 20
-2.11465
 30
4.17369
 70
   192
  0
VERTEX
  5
712
100
AcDbEntity
100
AcDbVertex
100
AcDbPolyFaceMeshVertex
 10
0.624534
 20
-1.87617
 30
4.14793
 70
   192
  0
VERTEX
  5
713
100
AcDbEntity
100
AcDbVertex
100
AcDbPolyFaceMeshVertex
 10
0.606773
 20
-1.62759
 30
4.12367
 70
   192
  0
VERTEX
  5
714
100
AcDbEntity
100
AcDbVertex
100
AcDbPolyFaceMeshVertex
 10
0.590923
 20
-1.37016
 30
4.10082
 70
   192
  0
VERTEX
  5
715
100
AcDbEntity
100
AcDbVertex
100
AcDbPolyFaceMeshVertex
 10
0.577462
 20
-1.10523
 30
4.07919
 70
   192
  0
VERTEX
  5
716
100
AcDbEntity
100
AcDbVertex
100
AcDbPolyFaceMeshVertex
 10
0.56665
 20
-0.834261
 30
4.05855
 70
   192
  0
VERTEX
  5
717
100
AcDbEntity
100
AcDbVertex
100
AcDbPolyFaceMeshVertex
 10
0.558736
 20
-0.558736
 30
4.03863
 70
   192
  0
VERTEX
  5
718
100
AcDbEntity
100
AcDbVertex
100
AcDbPolyFaceMeshVertex
 10
0.553945
 20
-0.28014
 30
4.0192
 70
   192
  0
VERTEX
  5
719
100
AcDbEntity
100
AcDbVertex
100
AcDbPolyFaceMeshVertex
 10
0.552348
 20
-2.40674e-08
 30
4
 70
   192
  0
VERTEX
  5
720
100
AcDbEntity
100
AcDbVertex
100
AcDbPolyFaceMeshVertex
 10
0.553945
 20
0.28014
 30
3.9808
 70
   192
  0
VERTEX
  5
721
100
AcDbEntity
100
AcDbVertex
100
AcDbPolyFaceMeshVertex
 10
0.558736
 20
0.558736
 30
3.96137
 70
   192
  0
VERTEX
  5
722
100
AcDbEntity
100
AcDbVertex
100
AcDbPolyFaceMeshVertex
 10
0.56665
 20
0.83426
 30
3.94145
 70
   192
  0
VERTEX
  5
723
100
AcDbEntity
100
AcDbVertex
100
AcDbPolyFaceMeshVertex
 10
0.577462
 20
1.10523
 30
3.92081
 70
   192
  0
VERTEX
  5
724
100
AcDbEntity
100
AcDbVertex
100
AcDbPolyFaceMeshVertex
 10
0.590923
 20
1.37016
 30
3.89918
 70
   192
  0
VERTEX
  5
725
100
AcDbEntity
100
AcDbVertex
100
AcDbPolyFaceMeshVertex
 10
0.606773
 20
1.62759
 30
3.87633
 70
   192
  0
VERTEX
  5
726
100
AcDbEntity
100
AcDbVertex
100
AcDbPolyFaceMeshVertex
 10
0.624534
 20
1.87617
 30
3.85207
 70
   192
  0
VERTEX
  5
727
100
AcDbEntity
100
AcDbVertex
100
AcDbPolyFaceMeshVertex
 10
0.643568
 20
2.11465
 30
3.82631
 70
   192
  0
VERTEX
  5
728
100
AcDbEntity
100
AcDbVertex
100
AcDbPolyFaceMeshVertex
 10
0.66323
 20
2.34181
 30
3.79893
 70
   192
  0
VERTEX
  5
729
100
AcDbEntity
100
AcDbVertex
100
AcDbPolyFaceMeshVertex
 10
0.99503
 20
-2.38206
 30
4.30374
 70
   192
  0
VERTEX
  5
730
100
AcDbEntity
100
AcDbVertex
100
AcDbPolyFaceMeshVertex
 10
0.964362
 20
-2.14997
 30
4.26258
 70
   192
  0
VERTEX
  5
731
100
AcDbEntity
100
AcDbVertex
100
AcDbPolyFaceMeshVertex
 10
0.934941
 20
-1.90657
 30
4.22378
 70
   192
  0
VERTEX
  5
732
100
AcDbEntity
100
AcDbVertex
100
AcDbPolyFaceMeshVertex
 10
0.907658
 20
-1.65316
 30
4.1872
 70
   192
  0
VERTEX
  5
733
100
AcDbEntity
100
AcDbVertex
100
AcDbPolyFaceMeshVertex
 10
0.883398
 20
-1.39105
 30
4.15267
 70
   192
  0
VERTEX
  5
734
100
AcDbEntity
100
AcDbVertex
100
AcDbPolyFaceMeshVertex
 10
0.862827
 20
-1.12162
 30
4.11997
 70
   192
  0
VERTEX
  5
735
100
AcDbEntity
100
AcDbVertex
100
AcDbPolyFaceMeshVertex
 10
0.846327
 20
-0.846327
 30
4.08872
 70
   192
  0
VERTEX
  5
736
100
AcDbEntity
100
AcDbVertex
100
AcDbPolyFaceMeshVertex
 10
0.834261
 20
-0.56665
 30
4.05855
 70
   192
  0
VERTEX
  5
737
100
AcDbEntity
100
AcDbVertex
100
AcDbPolyFaceMeshVertex
 10
0.826959
 20
-0.284054
 30
4.0291
 70
   192
  0
VERTEX
  5
738
100
AcDbEntity
100
AcDbVertex
100
AcDbPolyFaceMeshVertex
 10
0.824524
 20
-2.24228e-08
 30
4
 70
   192
  0
VERTEX
  5
739
100
AcDbEntity
100
AcDbVertex
100
AcDbPolyFaceMeshVertex
 10
0.826959
 20
0.284054
 30
3.9709
 70
   192
  0
VERTEX
  5
740
100
AcDbEntity
100
AcDbVertex
100
AcDbPolyFaceMeshVertex
 10
0.834261
 20
0.56665
 30
3.94145
 70
   192
  0
VERTEX
  5
741
100
AcDbEntity
100
AcDbVertex
100
AcDbPolyFaceMeshVertex
 10
0.846327
 20
0.846327
 30
3.91128
 70
   192
  0
VERTEX
  5
742
100
AcDbEntity
100
AcDbVertex
100
AcDbPolyFaceMeshVertex
 10
0.862827
 20
1.12162
 30
3.88003
 70
   192
  0
VERTEX
  5
743
100
AcDbEntity
100
AcDbVertex
100
AcDbPolyFaceMeshVertex
 10
0.883398
 20
1.39105
 30
3.84733
 70
   192
  0
VERTEX
  5
744
100
AcDbEntity
100
AcDbVertex
100
AcDbPolyFaceMeshVertex
 10
0.907658
 20
1.65316
 30
3.8128
 70
   192
  0
VERTEX
  5
745
100
AcDbEntity
100
AcDbVertex
100
AcDbPolyFaceMeshVertex
 10
0.934941
 20
1.90657
 30
3.77622
 70
   192
  0
VERTEX
  5
746
100
AcDbEntity
100
AcDbVertex
100
AcDbPolyFaceMeshVertex
 10
0.964362
 20
2.14997
 30
3.73742
 70
   192
  0
VERTEX
  5
747
100
AcDbEntity
100
AcDbVertex
100
AcDbPolyFaceMeshVertex
 10
0.99503
 20
2.38206
 30
3.69626
 70
   192
  0
VERTEX
  5
748
100
AcDbEntity
100
AcDbVertex
100
AcDbPolyFaceMeshVertex
 10
1.32714
 20
-2.43898
 30
4.40892
 70
   192
  0
VERTEX
  5
749
100
AcDbEntity
100
AcDbVertex
100
AcDbPolyFaceMeshVertex
 10
1.28407
 20
-2.19962
 30
4.354
 70
   192
  0
VERTEX
  5
750
100
AcDbEntity
100
AcDbVertex
100
AcDbPolyFaceMeshVertex
 10
1.24315
 20
-1.94901
 30
4.30201
 70
   192
  0
VERTEX
  5
751
100
AcDbEntity
100
AcDbVertex
100
AcDbPolyFaceMeshVertex
 10
1.20549
 20
-1.6886
 30
4.25282
 70
   192
  0
VERTEX
  5
752
100
AcDbEntity
100
AcDbVertex
100
AcDbPolyFaceMeshVertex
 10
1.1722
 20
-1.41981
 30
4.2063
 70
   192
  0
VERTEX
  5
753
100
AcDbEntity
100
AcDbVertex
100
AcDbPolyFaceMeshVertex
 10
1.14408
 20
-1.14408
 30
4.16217
 70
   192
  0
VERTEX
  5
754
100
AcDbEntity
100
AcDbVertex
100
AcDbPolyFaceMeshVertex
 10
1.12162
 20
-0.862827
 30
4.11997
 70
   192
  0
VERTEX
  5
755
100
AcDbEntity
100
AcDbVertex
100
AcDbPolyFaceMeshVertex
 10
1.10523
 20
-0.577462
 30
4.07919
 70
   192
  0
VERTEX
  5
756
100
AcDbEntity
100
AcDbVertex
100
AcDbPolyFaceMeshVertex
 10
1.09532
 20
-0.2894
 30
4.03936
 70
   192
  0
VERTEX
  5
757
100
AcDbEntity
100
AcDbVertex
100
AcDbPolyFaceMeshVertex
 10
1.09202
 20
-2.02108e-08
 30
4
 70
   192
  0
VERTEX
  5
758
100
AcDbEntity
100
AcDbVertex
100
AcDbPolyFaceMeshVertex
 10
1.09532
 20
0.2894
 30
3.96064
 70
   192
  0
VERTEX
  5
759
100
AcDbEntity
100
AcDbVertex
100
AcDbPolyFaceMeshVertex
 10
1.10523
 20
0.577462
 30
3.92081
 70
   192
  0
VERTEX
  5
760
100
AcDbEntity
100
AcDbVertex
100
AcDbPolyFaceMeshVertex
 10
1.12162
 20
0.862827
 30
3.88003
 70
   192
  0
VERTEX
  5
761
100
AcDbEntity
100
AcDbVertex
100
AcDbPolyFaceMeshVertex
 10
1.14408
 20
1.14408
 30
3.83783
 70
   192
  0
VERTEX
  5
762
100
AcDbEntity
100
AcDbVertex
100
AcDbPolyFaceMeshVertex
 10
1.1722
 20
1.41981
 30
3.7937
 70
   192
  0
VERTEX
  5
763
100
AcDbEntity
100
AcDbVertex
100
AcDbPolyFaceMeshVertex
 10
1.20549
 20
1.6886
 30
3.74718
 70
   192
  0
VERTEX
  5
764
100
AcDbEntity
100
AcDbVertex
100
AcDbPolyFaceMeshVertex
 10
1.24315
 20
1.94901
 30
3.69799
 70
   192
  0
VERTEX
  5
765
100
AcDbEntity
100
AcDbVertex
100
AcDbPolyFaceMeshVertex
 10
1.28407
 20
2.19962
 30
3.646
 70
   192
  0
VERTEX
  5
766
100
AcDbEntity
100
AcDbVertex
100
AcDbPolyFaceMeshVertex
 10
1.32714
 20
2.43898
 30
3.59108
 70
   192
  0
VERTEX
  5
767
100
AcDbEntity
100
AcDbVertex
100
AcDbPolyFaceMeshVertex
 10
1.65973
 20
-2.51308
 30
4.51742
 70
   192
  0
VERTEX
  5
768
100
AcDbEntity
100
AcDbVertex
100
AcDbPolyFaceMeshVertex
 10
1.60239
 20
-2.26376
 30
4.44886
 70
   192
  0
VERTEX
  5
769
100
AcDbEntity
100
AcDbVertex
100
AcDbPolyFaceMeshVertex
 10
1.54844
 20
-2.00338
 30
4.38347
 70
   192
  0
VERTEX
  5
770
100
AcDbEntity
100
AcDbVertex
100
AcDbPolyFaceMeshVertex
 10
1.49922
 20
-1.73359
 30
4.32128
 70
   192
  0
VERTEX
  5
771
100
AcDbEntity
100
AcDbVertex
100
AcDbPolyFaceMeshVertex
 10
1.45603
 20
-1.45603
 30
4.2623
 70
   192
  0
VERTEX
  5
772
100
AcDbEntity
100
AcDbVertex
100
AcDbPolyFaceMeshVertex
 10
1.41981
 20
-1.1722
 30
4.2063
 70
   192
  0
VERTEX
  5
773
100
AcDbEntity
100
AcDbVertex
100
AcDbPolyFaceMeshVertex
 10
1.39105
 20
-0.883398
 30
4.15267
 70
   192
  0
VERTEX
  5
774
100
AcDbEntity
100
AcDbVertex
100
AcDbPolyFaceMeshVertex
 10
1.37016
 20
-0.590923
 30
4.10082
 70
   192
  0
VERTEX
  5
775
100
AcDbEntity
100
AcDbVertex
100
AcDbPolyFaceMeshVertex
 10
1.35756
 20
-0.296053
 30
4.05012
 70
   192
  0
VERTEX
  5
776
100
AcDbEntity
100
AcDbVertex
100
AcDbPolyFaceMeshVertex
 10
1.35336
 20
-1.7637e-08
 30
4
 70
   192
  0
VERTEX
  5
777
100
AcDbEntity
100
AcDbVertex
100
AcDbPolyFaceMeshVertex
 10
1.35756
 20
0.296053
 30
3.94988
 70
   192
  0
VERTEX
  5
778
100
AcDbEntity
100
AcDbVertex
100
AcDbPolyFaceMeshVertex
 10
1.37016
 20
0.590923
 30
3.89918
 70
   192
  0
VERTEX
  5
779
100
AcDbEntity
100
AcDbVertex
100
AcDbPolyFaceMeshVertex
 10
1.39105
 20
0.883398
 30
3.84733
 70
   192
  0
VERTEX
  5
780
100
AcDbEntity
100
AcDbVertex
100
AcDbPolyFaceMeshVertex
 10
1.41981
 20
1.1722
 30
3.7937
 70
   192
  0
VERTEX
  5
781
100
AcDbEntity
100
AcDbVertex
100
AcDbPolyFaceMeshVertex
 10
1.45603
 20
1.45603
 30
3.7377
 70
   192
  0
VERTEX
  5
782
100
AcDbEntity
100
AcDbVertex
100
AcDbPolyFaceMeshVertex
 10
1.49922
 20
1.73359
 30
3.67872
 70
   192
  0
VERTEX
  5
783
100
AcDbEntity
100
AcDbVertex
100
AcDbPolyFaceMeshVertex
 10
1.54844
 20
2.00338
 30
3.61653
 70
   192
  0
VERTEX
  5
784
100
AcDbEntity
100
AcDbVertex
100
AcDbPolyFaceMeshVertex
 10
1.60239
 20
2.26376
 30
3.55114
 70
   192
  0
VERTEX
  5
785
100
AcDbEntity
100
AcDbVertex
100
AcDbPolyFaceMeshVertex
 10
1.65973
 20
2.51308
 30
3.48258
 70
   192
  0
VERTEX
  5
786
100
AcDbEntity
100
AcDbVertex
100
AcDbPolyFaceMeshVertex
 10
1.99297
 20
-2.6049
 30
4.63004
 70
   192
  0
VERTEX
  5
787
100
AcDbEntity
100
AcDbVertex
100
AcDbPolyFaceMeshVertex
 10
1.91899
 20
-2.34256
 30
4.54801
 70
   192
  0
VERTEX
  5
788
100
AcDbEntity
100
AcDbVertex
100
AcDbPolyFaceMeshVertex
 10
1.85007
 20
-2.06952
 30
4.46898
 70
   192
  0
VERTEX
  5
789
100
AcDbEntity
100
AcDbVertex
100
AcDbPolyFaceMeshVertex
 10
1.78775
 20
-1.78775
 30
4.39329
 70
   192
  0
VERTEX
  5
790
100
AcDbEntity
100
AcDbVertex
100
AcDbPolyFaceMeshVertex
 10
1.73359
 20
-1.49922
 30
4.32128
 70
   192
  0
VERTEX
  5
791
100
AcDbEntity
100
AcDbVertex
100
AcDbPolyFaceMeshVertex
 10
1.6886
 20
-1.20549
 30
4.25282
 70
   192
  0
VERTEX
  5
792
100
AcDbEntity
100
AcDbVertex
100
AcDbPolyFaceMeshVertex
 10
1.65316
 20
-0.907658
 30
4.1872
 70
   192
  0
VERTEX
  5
793
100
AcDbEntity
100
AcDbVertex
100
AcDbPolyFaceMeshVertex
 10
1.62759
 20
-0.606773
 30
4.12367
 70
   192
  0
VERTEX
  5
794
100
AcDbEntity
100
AcDbVertex
100
AcDbPolyFaceMeshVertex
 10
1.6122
 20
-0.303883
 30
4.0615
 70
   192
  0
VERTEX
  5
795
100
AcDbEntity
100
AcDbVertex
100
AcDbPolyFaceMeshVertex
 10
1.60706
 20
-1.49133e-08
 30
4
 70
   192
  0
VERTEX
  5
796
100
AcDbEntity
100
AcDbVertex
100
AcDbPolyFaceMeshVertex
 10
1.6122
 20
0.303883
 30
3.9385
 70
   192
  0
VERTEX
  5
797
100
AcDbEntity
100
AcDbVertex
100
AcDbPolyFaceMeshVertex
 10
1.62759
 20
0.606773
 30
3.87633
 70
   192
  0
VERTEX
  5
798
100
AcDbEntity
100
AcDbVertex
100
AcDbPolyFaceMeshVertex
 10
1.65316
 20
0.907658
 30
3.8128
 70
   192
  0
VERTEX
  5
799
100
AcDbEntity
100
AcDbVertex
100
AcDbPolyFaceMeshVertex
 10
1.6886
 20
1.20549
 30
3.74718
 70
   192
  0
VERTEX
  5
800
100
AcDbEntity
100
AcDbVertex
100
AcDbPolyFaceMeshVertex
 10
1.73359
 20
1.49922
 30
3.67872
 70
   192
  0
VERTEX
  5
801
100
AcDbEntity
100
AcDbVertex
100
AcDbPolyFaceMeshVertex
 10
1.78775
 20
1.78775
 30
3.60671
 70
   192
  0
VERTEX
  5
802
100
AcDbEntity
100
AcDbVertex
100
AcDbPolyFaceMeshVertex
 10
1.85007
 20
2.06952
 30
3.53102
 70
   192
  0
VERTEX
  5
803
100
AcDbEntity
100
AcDbVertex
100
AcDbPolyFaceMeshVertex
 10
1.91899
 20
2.34256
 30
3.45199
 70
   192
  0
VERTEX
  5
804
100
AcDbEntity
100
AcDbVertex
100
AcDbPolyFaceMeshVertex
 10
1.99297
 20
2.6049
 30
3.36996
 70
   192
  0
VERTEX
  5
805
100
AcDbEntity
100
AcDbVertex
100
AcDbPolyFaceMeshVertex
 10
2.32716
 20
-2.7156
 30
4.74754
 70
   192
  0
VERTEX
  5
806
100
AcDbEntity
100
AcDbVertex
100
AcDbPolyFaceMeshVertex
 10
2.2329
 20
-2.43572
 30
4.65161
 70
   192
  0
VERTEX
  5
807
100
AcDbEntity
100
AcDbVertex
100
AcDbPolyFaceMeshVertex
 10
2.14652
 20
-2.14652
 30
4.55855
 70
   192
  0
VERTEX
  5
808
100
AcDbEntity
100
AcDbVertex
100
AcDbPolyFaceMeshVertex
 10
2.06952
 20
-1.85007
 30
4.46898
 70
   192
  0
VERTEX
  5
809
100
AcDbEntity
100
AcDbVertex
100
AcDbPolyFaceMeshVertex
 10
2.00338
 20
-1.54844
 30
4.38347
 70
   192
  0
VERTEX
  5
810
100
AcDbEntity
100
AcDbVertex
100
AcDbPolyFaceMeshVertex
 10
1.94901
 20
-1.24315
 30
4.30201
 70
   192
  0
VERTEX
  5
811
100
AcDbEntity
100
AcDbVertex
100
AcDbPolyFaceMeshVertex
 10
1.90657
 20
-0.934941
 30
4.22378
 70
   192
  0
VERTEX
  5
812
100
AcDbEntity
100
AcDbVertex
100
AcDbPolyFaceMeshVertex
 10
1.87617
 20
-0.624534
 30
4.14793
 70
   192
  0
VERTEX
  5
813
100
AcDbEntity
100
AcDbVertex
100
AcDbPolyFaceMeshVertex
 10
1.85791
 20
-0.312641
 30
4.07359
 70
   192
  0
VERTEX
  5
814
100
AcDbEntity
100
AcDbVertex
100
AcDbPolyFaceMeshVertex
 10
1.85182
 20
-1.23483e-08
 30
4
 70
   192
  0
VERTEX
  5
815
100
AcDbEntity
100
AcDbVertex
100
AcDbPolyFaceMeshVertex
 10
1.85791
 20
0.312641
 30
3.92641
 70
   192
  0
VERTEX
  5
816
100
AcDbEntity
100
AcDbVertex
100
AcDbPolyFaceMeshVertex
 10
1.87617
 20
0.624534
 30
3.85207
 70
   192
  0
VERTEX
  5
817
100
AcDbEntity
100
AcDbVertex
100
AcDbPolyFaceMeshVertex
 10
1.90657
 20
0.934941
 30
3.77622
 70
   192
  0
VERTEX
  5
818
100
AcDbEntity
100
AcDbVertex
100
AcDbPolyFaceMeshVertex
 10
1.94901
 20
1.24315
 30
3.69799
 70
   192
  0
VERTEX
  5
819
100
AcDbEntity
100
AcDbVertex
100
AcDbPolyFaceMeshVertex
 10
2.00338
 20
1.54844
 30
3.61653
 70
   192
  0
VERTEX
  5
820
100
AcDbEntity
100
AcDbVertex
100
AcDbPolyFaceMeshVertex
 10
2.06952
 20
1.85007
 30
3.53102
 70
   192
  0
VERTEX
  5
821
100
AcDbEntity
100
AcDbVertex
100
AcDbPolyFaceMeshVertex
 10
2.14652
 20
2.14652
 30
3.44145
 70
   192
  0
VERTEX
  5
822
100
AcDbEntity
100
AcDbVertex
100
AcDbPolyFaceMeshVertex
 10
2.2329
 20
2.43572
 30
3.34839
 70
   192
  0
VERTEX
  5
823
100
AcDbEntity
100
AcDbVertex
100
AcDbPolyFaceMeshVertex
 10
2.32716
 20
2.7156
 30
3.25246
 70
   192
  0
VERTEX
  5
824
100
AcDbEntity
100
AcDbVertex
100
AcDbPolyFaceMeshVertex
 10
2.6627
 20
-2.84676
 30
4.87063
 70
   192
  0
VERTEX
  5
825
100
AcDbEntity
100
AcDbVertex
100
AcDbPolyFaceMeshVertex
 10
2.54264
 20
-2.54265
 30
4.75927
 70
   192
  0
VERTEX
  5
826
100
AcDbEntity
100
AcDbVertex
100
AcDbPolyFaceMeshVertex
 10
2.43572
 20
-2.2329
 30
4.65161
 70
   192
  0
VERTEX
  5
827
100
AcDbEntity
100
AcDbVertex
100
AcDbPolyFaceMeshVertex
 10
2.34256
 20
-1.91899
 30
4.54801
 70
   192
  0
VERTEX
  5
828
100
AcDbEntity
100
AcDbVertex
100
AcDbPolyFaceMeshVertex
 10
2.26376
 20
-1.60239
 30
4.44886
 70
   192
  0
VERTEX
  5
829
100
AcDbEntity
100
AcDbVertex
100
AcDbPolyFaceMeshVertex
 10
2.19962
 20
-1.28407
 30
4.354
 70
   192
  0
VERTEX
  5
830
100
AcDbEntity
100
AcDbVertex
100
AcDbPolyFaceMeshVertex
 10
2.14997
 20
-0.964362
 30
4.26258
 70
   192
  0
VERTEX
  5
831
100
AcDbEntity
100
AcDbVertex
100
AcDbPolyFaceMeshVertex
 10
2.11465
 20
-0.643568
 30
4.17369
 70
   192
  0
VERTEX
  5
832
100
AcDbEntity
100
AcDbVertex
100
AcDbPolyFaceMeshVertex
 10
2.09349
 20
-0.321988
 30
4.08644
 70
   192
  0
VERTEX
  5
833
100
AcDbEntity
100
AcDbVertex
100
AcDbPolyFaceMeshVertex
 10
2.08644
 20
-1.03243e-08
 30
4
 70
   192
  0
VERTEX
  5
834
100
AcDbEntity
100
AcDbVertex
100
AcDbPolyFaceMeshVertex
 10
2.09349
 20
0.321988
 30
3.91356
 70
   192
  0
VERTEX
  5
835
100
AcDbEntity
100
AcDbVertex
100
AcDbPolyFaceMeshVertex
 10
2.11465
 20
0.643568
 30
3.82631
 70
   192
  0
VERTEX
  5
836
100
AcDbEntity
100
AcDbVertex
100
AcDbPolyFaceMeshVertex
 10
2.14997
 20
0.964362
 30
3.73742
 70
   192
  0
VERTEX
  5
837
100
AcDbEntity
100
AcDbVertex
100
AcDbPolyFaceMeshVertex
 10
2.19962
 20
1.28407
 30
3.646
 70
   192
  0
VERTEX
  5
838
100
AcDbEntity
100
AcDbVertex
100
AcDbPolyFaceMeshVertex
 10
2.26376
 20
1.60239
 30
3.55114
 70
   192
  0
VERTEX
  5
839
100
AcDbEntity
100
AcDbVertex
100
AcDbPolyFaceMeshVertex
 10
2.34256
 20
1.91899
 30
3.45199
 70
   192
  0
VERTEX
  5
840
100
AcDbEntity
100
AcDbVertex
100
AcDbPolyFaceMeshVertex
 10
2.43572
 20
2.2329
 30
3.34839
 70
   192
  0
VERTEX
  5
841
100
AcDbEntity
100
AcDbVertex
100
AcDbPolyFaceMeshVertex
 10
2.54265
 20
2.54265
 30
3.24072
 70
   192
  0
VERTEX
  5
842
100
AcDbEntity
100
AcDbVertex
100
AcDbPolyFaceMeshVertex
 10
2.6627
 20
2.84676
 30
3.12937
 70
   192
  0
VERTEX
  5
843
100
AcDbEntity
100
AcDbVertex
100
AcDbPolyFaceMeshVertex
 10
3
 20
-3
 30
5
 70
   192
  0
VERTEX
  5
844
100
AcDbEntity
100
AcDbVertex
100
AcDbPolyFaceMeshVertex
 10
2.84676
 20
-2.6627
 30
4.87063
 70
   192
  0
VERTEX
  5
845
100
AcDbEntity
100
AcDbVertex
100
AcDbPolyFaceMeshVertex
 10
2.7156
 20
-2.32716
 30
4.74754
 70
   192
  0
VERTEX
  5
846
100
AcDbEntity
100
AcDbVertex
100
AcDbPolyFaceMeshVertex
 10
2.6049
 20
-1.99297
 30
4.63004
 70
   192
  0
VERTEX
  5
847
100
AcDbEntity
100
AcDbVertex
100
AcDbPolyFaceMeshVertex
 10
2.51308
 20
-1.65973
 30
4.51742
 70
   192
  0
VERTEX
  5
848
100
AcDbEntity
100
AcDbVertex
100
AcDbPolyFaceMeshVertex
 10
2.43898
 20
-1.32714
 30
4.40892
 70
   192
  0
VERTEX
  5
849
100
AcDbEntity
100
AcDbVertex
100
AcDbPolyFaceMeshVertex
 10
2.38206
 20
-0.99503
 30
4.30374
 70
   192
  0
VERTEX
  5
850
100
AcDbEntity
100
AcDbVertex
100
AcDbPolyFaceMeshVertex
 10
2.34181
 20
-0.66323
 30
4.20107
 70
   192
  0
VERTEX
  5
851
100
AcDbEntity
100
AcDbVertex
100
AcDbPolyFaceMeshVertex
 10
2.31774
 20
-0.331584
 30
4.10011
 70
   192
  0
VERTEX
  5
852
100
AcDbEntity
100
AcDbVertex
100
AcDbPolyFaceMeshVertex
 10
2.30972
 20
-9.22567e-09
 30
4
 70
   192
  0
VERTEX
  5
853
100
AcDbEntity
100
AcDbVertex
100
AcDbPolyFaceMeshVertex
 10
2.31774
 20
0.331584
 30
3.89989
 70
   192
  0
VERTEX
  5
854
100
AcDbEntity
100
AcDbVertex
100
AcDbPolyFaceMeshVertex
 10
2.34181
 20
0.66323
 30
3.79893
 70
   192
  0
VERTEX
  5
855
100
AcDbEntity
100
AcDbVertex
100
AcDbPolyFaceMeshVertex
 10
2.38206
 20
0.99503
 30
3.69626
 70
   192
  0
VERTEX
  5
856
100
AcDbEntity
100
AcDbVertex
100
AcDbPolyFaceMeshVertex
 10
2.43898
 20
1.32714
 30
3.59108
 70
   192
  0
VERTEX
  5
857
100
AcDbEntity
100
AcDbVertex
100
AcDbPolyFaceMeshVertex
 10
2.51308
 20
1.65973
 30
3.48258
 70
   192
  0
VERTEX
  5
858
100
AcDbEntity
100
AcDbVertex
100
AcDbPolyFaceMeshVertex
 10
2.6049
 20
1.99297
 30
3.36996
 70
   192
  0
VERTEX
  5
859
100
AcDbEntity
100
AcDbVertex
100
AcDbPolyFaceMeshVertex
 10
2.7156
 20
2.32716
 30
3.25246
 70
   192
  0
VERTEX
  5
860
100
AcDbEntity
100
AcDbVertex
100
AcDbPolyFaceMeshVertex
 10
2.84676
 20
2.6627
 30
3.12937
 70
   192
  0
VERTEX
  5
861
100
AcDbEntity
100
AcDbVertex
100
AcDbPolyFaceMeshVertex
 10
3
 20
3
 30
3
 70
   192
  0
VERTEX
  5
862
100
AcDbEntity
100
AcDbFaceRecord
 10
0.0
 20
0.0
 30
0.0
 70
   128
 71
361
 72
342
 73
360
  0
VERTEX
  5
863
100
AcDbEntity
100
AcDbFaceRecord
 10
0.0
 20
0.0
 30
0.0
 70
   128
 71
360
 72
342
 73
341
  0
VERTEX
  5
864
100
AcDbEntity
100
AcDbFaceRecord
 10
0.0
 20
0.0
 30
0.0
 70
   128
 71
360
 72
341
 73
359
  0
VERTEX
  5
865
100
AcDbEntity
100
AcDbFaceRecord
 10
0.0
 20
0.0
 30
0.0
 70
   128
 71
359
 72
341
 73
340
  0
VERTEX
  5
866
100
AcDbEntity
100
AcDbFaceRecord
 10
0.0
 20
0.0
 30
0.0
 70
   128
 71
359
 72
340
 73
358
  0
VERTEX
  5
867
100
AcDbEntity
100
AcDbFaceRecord
 10
0.0
 20
0.0
 30
0.0
 70
   128
 71
358
 72
340
 73
339
  0
VERTEX
  5
868
100
AcDbEntity
100
AcDbFaceRecord
 10
0.0
 20
0.0
 30
0.0
 70
   128
 71
358
 72
339
 73
357
  0
VERTEX
  5
869
100
AcDbEntity
100
AcDbFaceRecord
 10
0.0
 20
0.0
 30
0.0
 70
   128
 71
357
 72
339
 73
338
  0
VERTEX
  5
870
100
AcDbEntity
100
AcDbFaceRecord
 10
0.0
 20
0.0
 30
0.0
 70
   128
 71
357
 72
338
 73
356
  0
VERTEX
  5
871
100
AcDbEntity
100
AcDbFaceRecord
 10
0.0
 20
0.0
 30
0.0
 70
   128
 71
356
 72
338
 73
337
  0
VERTEX
  5
872
100
AcDbEntity
100
AcDbFaceRecord
 10
0.0
 20
0.0
 30
0.0
 70
   128
 71
356
 72
337
 73
355
  0
VERTEX
  5
873
100
AcDbEntity
100
AcDbFaceRecord
 10
0.0
 20
0.0
 30
0.0
 70
   128
 71
355
 72
337
 73
336
  0
VERTEX
  5
874
100
AcDbEntity
100
AcDbFaceRecord
 10
0.0
 20
0.0
 30
0.0
 70
   128
 71
355
 72
336
 73
354
  0
VERTEX
  5
875
100
AcDbEntity
100
AcDbFaceRecord
 10
0.0
 20
0.0
 30
0.0
 70
   128
 71
354
 72
336
 73
335
  0
VERTEX
  5
876
100
AcDbEntity
100
AcDbFaceRecord
 10
0.0
 20
0.0
 30
0.0
 70
   128
 71
354
 72
335
 73
353
  0
VERTEX
  5
877
100
AcDbEntity
100
AcDbFaceRecord
 10
0.0
 20
0.0
 30
0.0
 70
   128
 71
353
 72
335
 73
334
  0
VERTEX
  5
878
100
AcDbEntity
100
AcDbFaceRecord
 10
0.0
 20
0.0
 30
0.0
 70
   128
 71
353
 72
334
 73
352
  0
VERTEX
  5
879
100
AcDbEntity
100
AcDbFaceRecord
 10
0.0
 20
0.0
 30
0.0
 70
   128
 71
352
 72
334
 73
333
  0
VERTEX
  5
880
100
AcDbEntity
100
AcDbFaceRecord
 10
0.0
 20
0.0
 30
0.0
 70
   128
 71
352
 72
333
 73
351
  0
VERTEX
  5
881
100
AcDbEntity
100
AcDbFaceRecord
 10
0.0
 20
0.0
 30
0.0
 70
   128
 71
351
 72
333
 73
332
  0
VERTEX
  5
882
100
AcDbEntity
100
AcDbFaceRecord
 10
0.0
 20
0.0
 30
0.0
 70
   128
 71
351
 72
332
 73
350
  0
VERTEX
  5
883
100
AcDbEntity
100
AcDbFaceRecord
 10
0.0
 20
0.0
 30
0.0
 70
   128
 71
350
 72
332
 73
331
  0
VERTEX
  5
884
100
AcDbEntity
100
AcDbFaceRecord
 10
0.0
 20
0.0
 30
0.0
 70
   128
 71
350
 72
331
 73
349
  0
VERTEX
  5
885
100
AcDbEntity
100
AcDbFaceRecord
 10
0.0
 20
0.0
 30
0.0
 70
   128
 71
349
 72
331
 73
330
  0
VERTEX
  5
886
100
AcDbEntity
100
AcDbFaceRecord
 10
0.0
 20
0.0
 30
0.0
 70
   128
 71
349
 72
330
 73
348
  0
VERTEX
  5
887
100
AcDbEntity
100
AcDbFaceRecord
 10
0.0
 20
0.0
 30
0.0
 70
   128
 71
348
 72
330
 73
329
  0
VERTEX
  5
888
100
AcDbEntity
100
AcDbFaceRecord
 10
0.0
 20
0.0
 30
0.0
 70
   128
 71
348
 72
329
 73
347
  0
VERTEX
  5
889
100
AcDbEntity
100
AcDbFaceRecord
 10
0.0
 20
0.0
 30
0.0
 70
   128
 71
347
 72
329
 73
328
  0
VERTEX
  5
890
100
AcDbEntity
100
AcDbFaceRecord
 10
0.0
 20
0.0
 30
0.0
 70
   128
 71
347
 72
328
 73
346
  0
VERTEX
  5
891
100
AcDbEntity
100
AcDbFaceRecord
 10
0.0
 20
0.0
 30
0.0
 70
   128
 71
346
 72
328
 73
327
  0
VERTEX
  5
892
100
AcDbEntity
100
AcDbFaceRecord
 10
0.0
 20
0.0
 30
0.0
 70
   128
 71
346
 72
327
 73
345
  0
VERTEX
  5
893
100
AcDbEntity
100
AcDbFaceRecord
 10
0.0
 20
0.0
 30
0.0
 70
   128
 71
345
 72
327
 73
326
  0
VERTEX
  5
894
100
AcDbEntity
100
AcDbFaceRecord
 10
0.0
 20
0.0
 30
0.0
 70
   128
 71
345
 72
326
 73
344
  0
VERTEX
  5
895
100
AcDbEntity
100
AcDbFaceRecord
 10
0.0
 20
0.0
 30
0.0
 70
   128
 71
344
 72
326
 73
325
  0
VERTEX
  5
896
100
AcDbEntity
100
AcDbFaceRecord
 10
0.0
 20
0.0
 30
0.0
 70
   128
 71
344
 72
325
 73
343
  0
VERTEX
  5
897
100
AcDbEntity
100
AcDbFaceRecord
 10
0.0
 20
0.0
 30
0.0
 70
   128
 71
343
 72
325
 73
324
  0
VERTEX
  5
898
100
AcDbEntity
100
AcDbFaceRecord
 10
0.0
 20
0.0
 30
0.0
 70
   128
 71
342
 72
323
 73
341
  0
VERTEX
  5
899
100
AcDbEntity
100
AcDbFaceRecord
 10
0.0
 20
0.0
 30
0.0
 70
   128
 71
341
 72
323
 73
322
  0
VERTEX
  5
900
100
AcDbEntity
100
AcDbFaceRecord
 10
0.0
 20
0.0
 30
0.0
 70
   128
 71
341
 72
322
 73
340
  0
VERTEX
  5
901
100
AcDbEntity
100
AcDbFaceRecord
 10
0.0
 20
0.0
 30
0.0
 70
   128
 71
340
 72
322
 73
321
  0
VERTEX
  5
902
100
AcDbEntity
100
AcDbFaceRecord
 10
0.0
 20
0.0
 30
0.0
 70
   128
 71
340
 72
321
 73
339
  0
VERTEX
  5
903
100
AcDbEntity
100
AcDbFaceRecord
 10
0.0
 20
0.0
 30
0.0
 70
   128
 71
339
 72
321
 73
320
  0
VERTEX
  5
904
100
AcDbEntity
100
AcDbFaceRecord
 10
0.0
 20
0.0
 30
0.0
 70
   128
 71
339
 72
320
 73
338
  0
VERTEX
  5
905
100
AcDbEntity
100
AcDbFaceRecord
 10
0.0
 20
0.0
 30
0.0
 70
   128
 71
338
 72
320
 73
319
  0
VERTEX
  5
906
100
AcDbEntity
100
AcDbFaceRecord
 10
0.0
 20
0.0
 30
0.0
 70
   128
 71
338
 72
319
 73
337
  0
VERTEX
  5
907
100
AcDbEntity
100
AcDbFaceRecord
 10
0.0
 20
0.0
 30
0.0
 70
   128
 71
337
 72
319
 73
318
  0
VERTEX
  5
908
100
AcDbEntity
100
AcDbFaceRecord
 10
0.0
 20
0.0
 30
0.0
 70
   128
 71
337
 72
318
 73
336
  0
VERTEX
  5
909
100
AcDbEntity
100
AcDbFaceRecord
 10
0.0
 20
0.0
 30
0.0
 70
   128
 71
336
 72
318
 73
317
  0
VERTEX
  5
910
100
AcDbEntity
100
AcDbFaceRecord
 10
0.0
 20
0.0
 30
0.0
 70
   128
 71
336
 72
317
 73
335
  0
VERTEX
  5
911
100
AcDbEntity
100
AcDbFaceRecord
 10
0.0
 20
0.0
 30
0.0
 70
   128
 71
335
 72
317
 73
316
  0
VERTEX
  5
912
100
AcDbEntity
100
AcDbFaceRecord
 10
0.0
 20
0.0
 30
0.0
 70
   128
 71
335
 72
316
 73
334
  0
VERTEX
  5
913
100
AcDbEntity
100
AcDbFaceRecord
 10
0.0
 20
0.0
 30
0.0
 70
   128
 71
334
 72
316
 73
315
  0
VERTEX
  5
914
100
AcDbEntity
100
AcDbFaceRecord
 10
0.0
 20
0.0
 30
0.0
 70
   128
 71
334
 72
315
 73
333
  0
VERTEX
  5
915
100
AcDbEntity
100
AcDbFaceRecord
 10
0.0
 20
0.0
 30
0.0
 70
   128
 71
333
 72
315
 73
314
  0
VERTEX
  5
916
100
AcDbEntity
100
AcDbFaceRecord
 10
0.0
 20
0.0
 30
0.0
 70
   128
 71
333
 72
314
 73
332
  0
VERTEX
  5
917
100
AcDbEntity
100
AcDbFaceRecord
 10
0.0
 20
0.0
 30
0.0
 70
   128
 71
332
 72
314
 73
313
  0
VERTEX
  5
918
100
AcDbEntity
100
AcDbFaceRecord
 10
0.0
 20
0.0
 30
0.0
 70
   128
 71
332
 72
313
 73
331
  0
VERTEX
  5
919
100
AcDbEntity
100
AcDbFaceRecord
 10
0.0
 20
0.0
 30
0.0
 70
   128
 71
331
 72
313
 73
312
  0
VERTEX
  5
920
100
AcDbEntity
100
AcDbFaceRecord
 10
0.0
 20
0.0
 30
0.0
 70
   128
 71
331
 72
312
 73
330
  0
VERTEX
  5
921
100
AcDbEntity
100
AcDbFaceRecord
 10
0.0
 20
0.0
 30
0.0
 70
   128
 71
330
 72
312
 73
311
  0
VERTEX
  5
922
100
AcDbEntity
100
AcDbFaceRecord
 10
0.0
 20
0.0
 30
0.0
 70
   128
 71
330
 72
311
 73
329
  0
VERTEX
  5
923
100
AcDbEntity
100
AcDbFaceRecord
 10
0.0
 20
0.0
 30
0.0
 70
   128
 71
329
 72
311
 73
310
  0
VERTEX
  5
924
100
AcDbEntity
100
AcDbFaceRecord
 10
0.0
 20
0.0
 30
0.0
 70
   128
 71
329
 72
310
 73
328
  0
VERTEX
  5
925
100
AcDbEntity
100
AcDbFaceRecord
 10
0.0
 20
0.0
 30
0.0
 70
   128
 71
328
 72
310
 73
309
  0
VERTEX
  5
926
100
AcDbEntity
100
AcDbFaceRecord
 10
0.0
 20
0.0
 30
0.0
 70
   128
 71
328
 72
309
 73
327
  0
VERTEX
  5
927
100
AcDbEntity
100
AcDbFaceRecord
 10
0.0
 20
0.0
 30
0.0
 70
   128
 71
327
 72
309
 73
308
  0
VERTEX
  5
928
100
AcDbEntity
100
AcDbFaceRecord
 10
0.0
 20
0.0
 30
0.0
 70
   128
 71
327
 72
308
 73
326
  0
VERTEX
  5
929
100
AcDbEntity
100
AcDbFaceRecord
 10
0.0
 20
0.0
 30
0.0
 70
   128
 71
326
 72
308
 73
307
  0
VERTEX
  5
930
100
AcDbEntity
100
AcDbFaceRecord
 10
0.0
 20
0.0
 30
0.0
 70
   128
 71
326
 72
307
 73
325
  0
VERTEX
  5
931
100
AcDbEntity
100
AcDbFaceRecord
 10
0.0
 20
0.0
 30
0.0
 70
   128
 71
325
 72
307
 73
306
  0
VERTEX
  5
932
100
AcDbEntity
100
AcDbFaceRecord
 10
0.0
 20
0.0
 30
0.0
 70
   128
 71
325
 72
306
 73
324
  0
VERTEX
  5
933
100
AcDbEntity
100
AcDbFaceRecord
 10
0.0
 20
0.0
 30
0.0
 70
   128
 71
324
 72
306
 73
305
  0
VERTEX
  5
934
100
AcDbEntity
100
AcDbFaceRecord
 10
0.0
 20
0.0
 30
0.0
 70
   128
 71
323
 72
304
 73
322
  0
VERTEX
  5
935
100
AcDbEntity
100
AcDbFaceRecord
 10
0.0
 20
0.0
 30
0.0
 70
   128
 71
322
 72
304
 73
303
  0
VERTEX
  5
936
100
AcDbEntity
100
AcDbFaceRecord
 10
0.0
 20
0.0
 30
0.0
 70
   128
 71
322
 72
303
 73
321
  0
VERTEX
  5
937
100
AcDbEntity
100
AcDbFaceRecord
 10
0.0
 20
0.0
 30
0.0
 70
   128
 71
321
 72
303
 73
302
  0
VERTEX
  5
938
100
AcDbEntity
100
AcDbFaceRecord
 10
0.0
 20
0.0
 30
0.0
 70
   128
 71
321
 72
302
 73
320
  0
VERTEX
  5
939
100
AcDbEntity
100
AcDbFaceRecord
 10
0.0
 20
0.0
 30
0.0
 70
   128
 71
320
 72
302
 73
301
  0
VERTEX
  5
940
100
AcDbEntity
100
AcDbFaceRecord
 10
0.0
 20
0.0
 30
0.0
 70
   128
 71
320
 72
301
 73
319
  0
VERTEX
  5
941
100
AcDbEntity
100
AcDbFaceRecord
 10
0.0
 20
0.0
 30
0.0
 70
   128
 71
319
 72
301
 73
300
  0
VERTEX
  5
942
100
AcDbEntity
100
AcDbFaceRecord
 10
0.0
 20
0.0
 30
0.0
 70
   128
 71
319
 72
300
 73
318
  0
VERTEX
  5
943
100
AcDbEntity
100
AcDbFaceRecord
 10
0.0
 20
0.0
 30
0.0
 70
   128
 71
318
 72
300
 73
299
  0
VERTEX
  5
944
100
AcDbEntity
100
AcDbFaceRecord
 10
0.0
 20
0.0
 30
0.0
 70
   128
 71
318
 72
299
 73
317
  0
VERTEX
  5
945
100
AcDbEntity
100
AcDbFaceRecord
 10
0.0
 20
0.0
 30
0.0
 70
   128
 71
317
 72
299
 73
298
  0
VERTEX
  5
946
100
AcDbEntity
100
AcDbFaceRecord
 10
0.0
 20
0.0
 30
0.0
 70
   128
 71
317
 72
298
 73
316
  0
VERTEX
  5
947
100
AcDbEntity
100
AcDbFaceRecord
 10
0.0
 20
0.0
 30
0.0
 70
   128
 71
316
 72
298
 73
297
  0
VERTEX
  5
948
100
AcDbEntity
100
AcDbFaceRecord
 10
0.0
 20
0.0
 30
0.0
 70
   128
 71
316
 72
297
 73
315
  0
VERTEX
  5
949
100
AcDbEntity
100
AcDbFaceRecord
 10
0.0
 20
0.0
 30
0.0
 70
   128
 71
315
 72
297
 73
296
  0
VERTEX
  5
950
100
AcDbEntity
100
AcDbFaceRecord
 10
0.0
 20
0.0
 30
0.0
 70
   128
 71
315
 72
296
 73
314
  0
VERTEX
  5
951
100
AcDbEntity
100
AcDbFaceRecord
 10
0.0
 20
0.0
 30
0.0
 70
   128
 71
314
 72
296
 73
295
  0
VERTEX
  5
952
100
AcDbEntity
100
AcDbFaceRecord
 10
0.0
 20
0.0
 30
0.0
 70
   128
 71
314
 72
295
 73
313
  0
VERTEX
  5
953
100
AcDbEntity
100
AcDbFaceRecord
 10
0.0
 20
0.0
 30
0.0
 70
   128
 71
313
 72
295
 73
294
  0
VERTEX
  5
954
100
AcDbEntity
100
AcDbFaceRecord
 10
0.0
 20
0.0
 30
0.0
 70
   128
 71
313
 72
294
 73
312
  0
VERTEX
  5
955
100
AcDbEntity
100
AcDbFaceRecord
 10
0.0
 20
0.0
 30
0.0
 70
   128
 71
312
 72
294
 73
293
  0
VERTEX
  5
956
100
AcDbEntity
100
AcDbFaceRecord
 10
0.0
 20
0.0
 30
0.0
 70
   128
 71
312
 72
293
 73
311
  0
VERTEX
  5
957
100
AcDbEntity
100
AcDbFaceRecord
 10
0.0
 20
0.0
 30
0.0
 70
   128
 71
311
 72
293
 73
292
  0
VERTEX
  5
958
100
AcDbEntity
100
AcDbFaceRecord
 10
0.0
 20
0.0
 30
0.0
 70
   128
 71
311
 72
292
 73
310
  0
VERTEX
  5
959
100
AcDbEntity
100
AcDbFaceRecord
 10
0.0
 20
0.0
 30
0.0
 70
   128
 71
310
 72
292
 73
291
  0
VERTEX
  5
960
100
AcDbEntity
100
AcDbFaceRecord
 10
0.0
 20
0.0
 30
0.0
 70
   128
 71
310
 72
291
 73
309
  0
VERTEX
  5
961
100
AcDbEntity
100
AcDbFaceRecord
 10
0.0
 20
0.0
 30
0.0
 70
   128
 71
309
 72
291
 73
290
  0
VERTEX
  5
962
100
AcDbEntity
100
AcDbFaceRecord
 10
0.0
 20
0.0
 30
0.0
 70
   128
 71
309
 72
290
 73
308
  0
VERTEX
  5
963
100
AcDbEntity
100
AcDbFaceRecord
 10
0.0
 20
0.0
 30
0.0
 70
   128
 71
308
 72
290
 73
289
  0
VERTEX
  5
964
100
AcDbEntity
100
AcDbFaceRecord
 10
0.0
 20
0.0
 30
0.0
 70
   128
 71
308
 72
289
 73
307
  0
VERTEX
  5
965
100
AcDbEntity
100
AcDbFaceRecord
 10
0.0
 20
0.0
 30
0.0
 70
   128
 71
307
 72
289
 73
288
  0
VERTEX
  5
966
100
AcDbEntity
100
AcDbFaceRecord
 10
0.0
 20
0.0
 30
0.0
 70
   128
 71
307
 72
288
 73
306
  0
VERTEX
  5
967
100
AcDbEntity
100
AcDbFaceRecord
 10
0.0
 20
0.0
 30
0.0
 70
   128
 71
306
 72
288
 73
287
  0
VERTEX
  5
968
100
AcDbEntity
100
AcDbFaceRecord
 10
0.0
 20
0.0
 30
0.0
 70
   128
 71
306
 72
287
 73
305
  0
VERTEX
  5
969
100
AcDbEntity
100
AcDbFaceRecord
 10
0.0
 20
0.0
 30
0.0
 70
   128
 71
305
 72
287
 73
286
  0
VERTEX
  5
970
100
AcDbEntity
100
AcDbFaceRecord
 10
0.0
 20
0.0
 30
0.0
 70
   128
 71
304
 72
285
 73
303
  0
VERTEX
  5
971
100
AcDbEntity
100
AcDbFaceRecord
 10
0.0
 20
0.0
 30
0.0
 70
   128
 71
303
 72
285
 73
284
  0
VERTEX
  5
972
100
AcDbEntity
100
AcDbFaceRecord
 10
0.0
 20
0.0
 30
0.0
 70
   128
 71
303
 72
284
 73
302
  0
VERTEX
  5
973
100
AcDbEntity
100
AcDbFaceRecord
 10
0.0
 20
0.0
 30
0.0
 70
   128
 71
302
 72
284
 73
283
  0
VERTEX
  5
974
100
AcDbEntity
100
AcDbFaceRecord
 10
0.0
 20
0.0
 30
0.0
 70
   128
 71
302
 72
283
 73
301
  0
VERTEX
  5
975
100
AcDbEntity
100
AcDbFaceRecord
 10
0.0
 20
0.0
 30
0.0
 70
   128
 71
301
 72
283
 73
282
  0
VERTEX
  5
976
100
AcDbEntity
100
AcDbFaceRecord
 10
0.0
 20
0.0
 30
0.0
 70
   128
 71
301
 72
282
 73
300
  0
VERTEX
  5
977
100
AcDbEntity
100
AcDbFaceRecord
 10
0.0
 20
0.0
 30
0.0
 70
   128
 71
300
 72
282
 73
281
  0
VERTEX
  5
978
100
AcDbEntity
100
AcDbFaceRecord
 10
0.0
 20
0.0
 30
0.0
 70
   128
 71
300
 72
281
 73
299
  0
VERTEX
  5
979
100
AcDbEntity
100
AcDbFaceRecord
 10
0.0
 20
0.0
 30
0.0
 70
   128
 71
299
 72
281
 73
280
  0
VERTEX
  5
980
100
AcDbEntity
100
AcDbFaceRecord
 10
0.0
 20
0.0
 30
0.0
 70
   128
 71
299
 72
280
 73
298
  0
VERTEX
  5
981
100
AcDbEntity
100
AcDbFaceRecord
 10
0.0
 20
0.0
 30
0.0
 70
   128
 71
298
 72
280
 73
279
  0
VERTEX
  5
982
100
AcDbEntity
100
AcDbFaceRecord
 10
0.0
 20
0.0
 30
0.0
 70
   128
 71
298
 72
279
 73
297
  0
VERTEX
  5
983
100
AcDbEntity
100
AcDbFaceRecord
 10
0.0
 20
0.0
 30
0.0
 70
   128
 71
297
 72
279
 73
278
  0
VERTEX
  5
984
100
AcDbEntity
100
AcDbFaceRecord
 10
0.0
 20
0.0
 30
0.0
 70
   128
 71
297
 72
278
 73
296
  0
VERTEX
  5
985
100
AcDbEntity
100
AcDbFaceRecord
 10
0.0
 20
0.0
 30
0.0
 70
   128
 71
296
 72
278
 73
277
  0
VERTEX
  5
986
100
AcDbEntity
100
AcDbFaceRecord
 10
0.0
 20
0.0
 30
0.0
 70
   128
 71
296
 72
277
 73
295
  0
VERTEX
  5
987
100
AcDbEntity
100
AcDbFaceRecord
 10
0.0
 20
0.0
 30
0.0
 70
   128
 71
295
 72
277
 73
276
  0
VERTEX
  5
988
100
AcDbEntity
100
AcDbFaceRecord
 10
0.0
 20
0.0
 30
0.0
 70
   128
 71
295
 72
276
 73
294
  0
VERTEX
  5
989
100
AcDbEntity
100
AcDbFaceRecord
 10
0.0
 20
0.0
 30
0.0
 70
   128
 71
294
 72
276
 73
275
  0
VERTEX
  5
990
100
AcDbEntity
100
AcDbFaceRecord
 10
0.0
 20
0.0
 30
0.0
 70
   128
 71
294
 72
275
 73
293
  0
VERTEX
  5
991
100
AcDbEntity
100
AcDbFaceRecord
 10
0.0
 20
0.0
 30
0.0
 70
   128
 71
293
 72
275
 73
274
  0
VERTEX
  5
992
100
AcDbEntity
100
AcDbFaceRecord
 10
0.0
 20
0.0
 30
0.0
 70
   128
 71
293
 72
274
 73
292
  0
VERTEX
  5
993
100
AcDbEntity
100
AcDbFaceRecord
 10
0.0
 20
0.0
 30
0.0
 70
   128
 71
292
 72
274
 73
273
  0
VERTEX
  5
994
100
AcDbEntity
100
AcDbFaceRecord
 10
0.0
 20
0.0
 30
0.0
 70
   128
 71
292
 72
273
 73
291
  0
VERTEX
  5
995
100
AcDbEntity
100
AcDbFaceRecord
 10
0.0
 20
0.0
 30
0.0
 70
   128
 71
291
 72
273
 73
272
  0
VERTEX
  5
996
100
AcDbEntity
100
AcDbFaceRecord
 10
0.0
 20
0.0
 30
0.0
 70
   128
 71
291
 72
272
 73
290
  0
VERTEX
  5
997
100
AcDbEntity
100
AcDbFaceRecord
 10
0.0
 20
0.0
 30
0.0
 70
   128
 71
290
 72
272
 73
271
  0
VERTEX
  5
998
100
AcDbEntity
100
AcDbFaceRecord
 10
0.0
 20
0.0
 30
0.0
 70
   128
 71
290
 72
271
 73
289
  0
VERTEX
  5
999
100
AcDbEntity
100
AcDbFaceRecord
 10
0.0
 20
0.0
 30
0.0
 70
   128
 71
289
 72
271
 73
270
  0
VERTEX
  5
1000
100
AcDbEntity
100
AcDbFaceRecord
 10
0.0
 20
0.0
 30
0.0
 70
   128
 71
289
 72
270
 73
288
  0
VERTEX
  5
1001
100
AcDbEntity
100
AcDbFaceRecord
 10
0.0
 20
0.0
 30
0.0
 70
   128
 71
288
 72
270
 73
269
  0
VERTEX
  5
1002
100
AcDbEntity
100
AcDbFaceRecord
 10
0.0
 20
0.0
 30
0.0
 70
   128
 71
288
 72
269
 73
287
  0
VERTEX
  5
1003
100
AcDbEntity
100
AcDbFaceRecord
 10
0.0
 20
0.0
 30
0.0
 70
   128
 71
287
 72
269
 73
268
  0
VERTEX
  5
1004
100
AcDbEntity
100
AcDbFaceRecord
 10
0.0
 20
0.0
 30
0.0
 70
   128
 71
287
 72
268
 73
286
  0
VERTEX
  5
1005
100
AcDbEntity
100
AcDbFaceRecord
 10
0.0
 20
0.0
 30
0.0
 70
   128
 71
286
 72
268
 73
267
  0
VERTEX
  5
1006
100
AcDbEntity
100
AcDbFaceRecord
 10
0.0
 20
0.0
 30
0.0
 70
   128
 71
285
 72
266
 73
284
  0
VERTEX
  5
1007
100
AcDbEntity
100
AcDbFaceRecord
 10
0.0
 20
0.0
 30
0.0
 70
   128
 71
284
 72
266
 73
265
  0
VERTEX
  5
1008
100
AcDbEntity
100
AcDbFaceRecord
 10
0.0
 20
0.0
 30
0.0
 70
   128
 71
284
 72
265
 73
283
  0
VERTEX
  5
1009
100
AcDbEntity
100
AcDbFaceRecord
 10
0.0
 20
0.0
 30
0.0
 70
   128
 71
283
 72
265
 73
264
  0
VERTEX
  5
1010
100
AcDbEntity
100
AcDbFaceRecord
 10
0.0
 20
0.0
 30
0.0
 70
   128
 71
283
 72
264
 73
282
  0
VERTEX
  5
1011
100
AcDbEntity
100
AcDbFaceRecord
 10
0.0
 20
0.0
 30
0.0
 70
   128
 71
282
 72
264
 73
263
  0
VERTEX
  5
1012
100
AcDbEntity
100
AcDbFaceRecord
 10
0.0
 20
0.0
 30
0.0
 70
   128
 71
282
 72
263
 73
281
  0
VERTEX
  5
1013
100
AcDbEntity
100
AcDbFaceRecord
 10
0.0
 20
0.0
 30
0.0
 70
   128
 71
281
 72
263
 73
262
  0
VERTEX
  5
1014
100
AcDbEntity
100
AcDbFaceRecord
 10
0.0
 20
0.0
 30
0.0
 70
   128
 71
281
 72
262
 73
280
  0
VERTEX
  5
1015
100
AcDbEntity
100
AcDbFaceRecord
 10
0.0
 20
0.0
 30
0.0
 70
   128
 71
280
 72
262
 73
261
  0
VERTEX
  5
1016
100
AcDbEntity
100
AcDbFaceRecord
 10
0.0
 20
0.0
 30
0.0
 70
   128
 71
280
 72
261
 73
279
  0
VERTEX
  5
1017
100
AcDbEntity
100
AcDbFaceRecord
 10
0.0
 20
0.0
 30
0.0
 70
   128
 71
279
 72
261
 73
260
  0
VERTEX
  5
1018
100
AcDbEntity
100
AcDbFaceRecord
 10
0.0
 20
0.0
 30
0.0
 70
   128
 71
279
 72
260
 73
278
  0
VERTEX
  5
1019
100
AcDbEntity
100
AcDbFaceRecord
 10
0.0
 20
0.0
 30
0.0
 70
   128
 71
278
 72
260
 73
259
  0
VERTEX
  5
1020
100
AcDbEntity
100
AcDbFaceRecord
 10
0.0
 20
0.0
 30
0.0
 70
   128
 71
278
 72
259
 73
277
  0
VERTEX
  5
1021
100
AcDbEntity
100
AcDbFaceRecord
 10
0.0
 20
0.0
 30
0.0
 70
   128
 71
277
 72
259
 73
258
  0
VERTEX
  5
1022
100
AcDbEntity
100
AcDbFaceRecord
 10
0.0
 20
0.0
 30
0.0
 70
   128
 71
277
 72
258
 73
276
  0
VERTEX
  5
1023
100
AcDbEntity
100
AcDbFaceRecord
 10
0.0
 20
0.0
 30
0.0
 70
   128
 71
276
 72
258
 73
257
  0
VERTEX
  5
1024
100
AcDbEntity
100
AcDbFaceRecord
 10
0.0
 20
0.0
 30
0.0
 70
   128
 71
276
 72
257
 73
275
  0
VERTEX
  5
1025
100
AcDbEntity
100
AcDbFaceRecord
 10
0.0
 20
0.0
 30
0.0
 70
   128
 71
275
 72
257
 73
256
  0
VERTEX
  5
1026
100
AcDbEntity
100
AcDbFaceRecord
 10
0.0
 20
0.0
 30
0.0
 70
   128
 71
275
 72
256
 73
274
  0
VERTEX
  5
1027
100
AcDbEntity
100
AcDbFaceRecord
 10
0.0
 20
0.0
 30
0.0
 70
   128
 71
274
 72
256
 73
255
  0
VERTEX
  5
1028
100
AcDbEntity
100
AcDbFaceRecord
 10
0.0
 20
0.0
 30
0.0
 70
   128
 71
274
 72
255
 73
273
  0
VERTEX
  5
1029
100
AcDbEntity
100
AcDbFaceRecord
 10
0.0
 20
0.0
 30
0.0
 70
   128
 71
273
 72
255
 73
254
  0
VERTEX
  5
1030
100
AcDbEntity
100
AcDbFaceRecord
 10
0.0
 20
0.0
 30
0.0
 70
   128
 71
273
 72
254
 73
272
  0
VERTEX
  5
1031
100
AcDbEntity
100
AcDbFaceRecord
 10
0.0
 20
0.0
 30
0.0
 70
   128
 71
272
 72
254
 73
253
  0
VERTEX
  5
1032
100
AcDbEntity
100
AcDbFaceRecord
 10
0.0
 20
0.0
 30
0.0
 70
   128
 71
272
 72
253
 73
271
  0
VERTEX
  5
1033
100
AcDbEntity
100
AcDbFaceRecord
 10
0.0
 20
0.0
 30
0.0
 70
   128
 71
271
 72
253
 73
252
  0
VERTEX
  5
1034
100
AcDbEntity
100
AcDbFaceRecord
 10
0.0
 20
0.0
 30
0.0
 70
   128
 71
271
 72
252
 73
270
  0
VERTEX
  5
1035
100
AcDbEntity
100
AcDbFaceRecord
 10
0.0
 20
0.0
 30
0.0
 70
   128
 71
270
 72
252
 73
251
  0
VERTEX
  5
1036
100
AcDbEntity
100
AcDbFaceRecord
 10
0.0
 20
0.0
 30
0.0
 70
   128
 71
270
 72
251
 73
269
  0
VERTEX
  5
1037
100
AcDbEntity
100
AcDbFaceRecord
 10
0.0
 20
0.0
 30
0.0
 70
   128
 71
269
 72
251
 73
250
  0
VERTEX
  5
1038
100
AcDbEntity
100
AcDbFaceRecord
 10
0.0
 20
0.0
 30
0.0
 70
   128
 71
269
 72
250
 73
268
  0
VERTEX
  5
1039
100
AcDbEntity
100
AcDbFaceRecord
 10
0.0
 20
0.0
 30
0.0
 70
   128
 71
268
 72
250
 73
249
  0
VERTEX
  5
1040
100
AcDbEntity
100
AcDbFaceRecord
 10
0.0
 20
0.0
 30
0.0
 70
   128
 71
268
 72
249
 73
267
  0
VERTEX
  5
1041
100
AcDbEntity
100
AcDbFaceRecord
 10
0.0
 20
0.0
 30
0.0
 70
   128
 71
267
 72
249
 73
248
  0
VERTEX
  5
1042
100
AcDbEntity
100
AcDbFaceRecord
 10
0.0
 20
0.0
 30
0.0
 70
   128
 71
266
 72
247
 73
265
  0
VERTEX
  5
1043
100
AcDbEntity
100
AcDbFaceRecord
 10
0.0
 20
0.0
 30
0.0
 70
   128
 71
265
 72
247
 73
246
  0
VERTEX
  5
1044
100
AcDbEntity
100
AcDbFaceRecord
 10
0.0
 20
0.0
 30
0.0
 70
   128
 71
265
 72
246
 73
264
  0
VERTEX
  5
1045
100
AcDbEntity
100
AcDbFaceRecord
 10
0.0
 20
0.0
 30
0.0
 70
   128
 71
264
 72
246
 73
245
  0
VERTEX
  5
1046
100
AcDbEntity
100
AcDbFaceRecord
 10
0.0
 20
0.0
 30
0.0
 70
   128
 71
264
 72
245
 73
263
  0
VERTEX
  5
1047
100
AcDbEntity
100
AcDbFaceRecord
 10
0.0
 20
0.0
 30
0.0
 70
   128
 71
263
 72
245
 73
244
  0
VERTEX
  5
1048
100
AcDbEntity
100
AcDbFaceRecord
 10
0.0
 20
0.0
 30
0.0
 70
   128
 71
263
 72
244
 73
262
  0
VERTEX
  5
1049
100
AcDbEntity
100
AcDbFaceRecord
 10
0.0
 20
0.0
 30
0.0
 70
   128
 71
262
 72
244
 73
243
  0
VERTEX
  5
1050
100
AcDbEntity
100
AcDbFaceRecord
 10
0.0
 20
0.0
 30
0.0
 70
   128
 71
262
 72
243
 73
261
  0
VERTEX
  5
1051
100
AcDbEntity
100
AcDbFaceRecord
 10
0.0
 20
0.0
 30
0.0
 70
   128
 71
261
 72
243
 73
242
  0
VERTEX
  5
1052
100
AcDbEntity
100
AcDbFaceRecord
 10
0.0
 20
0.0
 30
0.0
 70
   128
 71
261
 72
242
 73
260
  0
VERTEX
  5
1053
100
AcDbEntity
100
AcDbFaceRecord
 10
0.0
 20
0.0
 30
0.0
 70
   128
 71
260
 72
242
 73
241
  0
VERTEX
  5
1054
100
AcDbEntity
100
AcDbFaceRecord
 10
0.0
 20
0.0
 30
0.0
 70
   128
 71
260
 72
241
 73
259
  0
VERTEX
  5
1055
100
AcDbEntity
100
AcDbFaceRecord
 10
0.0
 20
0.0
 30
0.0
 70
   128
 71
259
 72
241
 73
240
  0
VERTEX
  5
1056
100
AcDbEntity
100
AcDbFaceRecord
 10
0.0
 20
0.0
 30
0.0
 70
   128
 71
259
 72
240
 73
258
  0
VERTEX
  5
1057
100
AcDbEntity
100
AcDbFaceRecord
 10
0.0
 20
0.0
 30
0.0
 70
   128
 71
258
 72
240
 73
239
  0
VERTEX
  5
1058
100
AcDbEntity
100
AcDbFaceRecord
 10
0.0
 20
0.0
 30
0.0
 70
   128
 71
258
 72
239
 73
257
  0
VERTEX
  5
1059
100
AcDbEntity
100
AcDbFaceRecord
 10
0.0
 20
0.0
 30
0.0
 70
   128
 71
257
 72
239
 73
238
  0
VERTEX
  5
1060
100
AcDbEntity
100
AcDbFaceRecord
 10
0.0
 20
0.0
 30
0.0
 70
   128
 71
257
 72
238
 73
256
  0
VERTEX
  5
1061
100
AcDbEntity
100
AcDbFaceRecord
 10
0.0
 20
0.0
 30
0.0
 70
   128
 71
256
 72
238
 73
237
  0
VERTEX
  5
1062
100
AcDbEntity
100
AcDbFaceRecord
 10
0.0
 20
0.0
 30
0.0
 70
   128
 71
256
 72
237
 73
255
  0
VERTEX
  5
1063
100
AcDbEntity
100
AcDbFaceRecord
 10
0.0
 20
0.0
 30
0.0
 70
   128
 71
255
 72
237
 73
236
  0
VERTEX
  5
1064
100
AcDbEntity
100
AcDbFaceRecord
 10
0.0
 20
0.0
 30
0.0
 70
   128
 71
255
 72
236
 73
254
  0
VERTEX
  5
1065
100
AcDbEntity
100
AcDbFaceRecord
 10
0.0
 20
0.0
 30
0.0
 70
   128
 71
254
 72
236
 73
235
  0
VERTEX
  5
1066
100
AcDbEntity
100
AcDbFaceRecord
 10
0.0
 20
0.0
 30
0.0
 70
   128
 71
254
 72
235
 73
253
  0
VERTEX
  5
1067
100
AcDbEntity
100
AcDbFaceRecord
 10
0.0
 20
0.0
 30
0.0
 70
   128
 71
253
 72
235
 73
234
  0
VERTEX
  5
1068
100
AcDbEntity
100
AcDbFaceRecord
 10
0.0
 20
0.0
 30
0.0
 70
   128
 71
253
 72
234
 73
252
  0
VERTEX
  5
1069
100
AcDbEntity
100
AcDbFaceRecord
 10
0.0
 20
0.0
 30
0.0
 70
   128
 71
252
 72
234
 73
233
  0
VERTEX
  5
1070
100
AcDbEntity
100
AcDbFaceRecord
 10
0.0
 20
0.0
 30
0.0
 70
   128
 71
252
 72
233
 73
251
  0
VERTEX
  5
1071
100
AcDbEntity
100
AcDbFaceRecord
 10
0.0
 20
0.0
 30
0.0
 70
   128
 71
251
 72
233
 73
232
  0
VERTEX
  5
1072
100
AcDbEntity
100
AcDbFaceRecord
 10
0.0
 20
0.0
 30
0.0
 70
   128
 71
251
 72
232
 73
250
  0
VERTEX
  5
1073
100
AcDbEntity
100
AcDbFaceRecord
 10
0.0
 20
0.0
 30
0.0
 70
   128
 71
250
 72
232
 73
231
  0
VERTEX
  5
1074
100
AcDbEntity
100
AcDbFaceRecord
 10
0.0
 20
0.0
 30
0.0
 70
   128
 71
250
 72
231
 73
249
  0
VERTEX
  5
1075
100
AcDbEntity
100
AcDbFaceRecord
 10
0.0
 20
0.0
 30
0.0
 70
   128
 71
249
 72
231
 73
230
  0
VERTEX
  5
1076
100
AcDbEntity
100
AcDbFaceRecord
 10
0.0
 20
0.0
 30
0.0
 70
   128
 71
249
 72
230
 73
248
  0
VERTEX
  5
1077
100
AcDbEntity
100
AcDbFaceRecord
 10
0.0
 20
0.0
 30
0.0
 70
   128
 71
248
 72
230
 73
229
  0
VERTEX
  5
1078
100
AcDbEntity
100
AcDbFaceRecord
 10
0.0
 20
0.0
 30
0.0
 70
   128
 71
247
 72
228
 73
246
  0
VERTEX
  5
1079
100
AcDbEntity
100
AcDbFaceRecord
 10
0.0
 20
0.0
 30
0.0
 70
   128
 71
246
 72
228
 73
227
  0
VERTEX
  5
1080
100
AcDbEntity
100
AcDbFaceRecord
 10
0.0
 20
0.0
 30
0.0
 70
   128
 71
246
 72
227
 73
245
  0
VERTEX
  5
1081
100
AcDbEntity
100
AcDbFaceRecord
 10
0.0
 20
0.0
 30
0.0
 70
   128
 71
245
 72
227
 73
226
  0
VERTEX
  5
1082
100
AcDbEntity
100
AcDbFaceRecord
 10
0.0
 20
0.0
 30
0.0
 70
   128
 71
245
 72
226
 73
244
  0
VERTEX
  5
1083
100
AcDbEntity
100
AcDbFaceRecord
 10
0.0
 20
0.0
 30
0.0
 70
   128
 71
244
 72
226
 73
225
  0
VERTEX
  5
1084
100
AcDbEntity
100
AcDbFaceRecord
 10
0.0
 20
0.0
 30
0.0
 70
   128
 71
244
 72
225
 73
243
  0
VERTEX
  5
1085
100
AcDbEntity
100
AcDbFaceRecord
 10
0.0
 20
0.0
 30
0.0
 70
   128
 71
243
 72
225
 73
224
  0
VERTEX
  5
1086
100
AcDbEntity
100
AcDbFaceRecord
 10
0.0
 20
0.0
 30
0.0
 70
   128
 71
243
 72
224
 73
242
  0
VERTEX
  5
1087
100
AcDbEntity
100
AcDbFaceRecord
 10
0.0
 20
0.0
 30
0.0
 70
   128
 71
242
 72
224
 73
223
  0
VERTEX
  5
1088
100
AcDbEntity
100
AcDbFaceRecord
 10
0.0
 20
0.0
 30
0.0
 70
   128
 71
242
 72
223
 73
241
  0
VERTEX
  5
1089
100
AcDbEntity
100
AcDbFaceRecord
 10
0.0
 20
0.0
 30
0.0
 70
   128
 71
241
 72
223
 73
222
  0
VERTEX
  5
1090
100
AcDbEntity
100
AcDbFaceRecord
 10
0.0
 20
0.0
 30
0.0
 70
   128
 71
241
 72
222
 73
240
  0
VERTEX
  5
1091
100
AcDbEntity
100
AcDbFaceRecord
 10
0.0
 20
0.0
 30
0.0
 70
   128
 71
240
 72
222
 73
221
  0
VERTEX
  5
1092
100
AcDbEntity
100
AcDbFaceRecord
 10
0.0
 20
0.0
 30
0.0
 70
   128
 71
240
 72
221
 73
239
  0
VERTEX
  5
1093
100
AcDbEntity
100
AcDbFaceRecord
 10
0.0
 20
0.0
 30
0.0
 70
   128
 71
239
 72
221
 73
220
  0
VERTEX
  5
1094
100
AcDbEntity
100
AcDbFaceRecord
 10
0.0
 20
0.0
 30
0.0
 70
   128
 71
239
 72
220
 73
238
  0
VERTEX
  5
1095
100
AcDbEntity
100
AcDbFaceRecord
 10
0.0
 20
0.0
 30
0.0
 70
   128
 71
238
 72
220
 73
219
  0
VERTEX
  5
1096
100
AcDbEntity
100
AcDbFaceRecord
 10
0.0
 20
0.0
 30
0.0
 70
   128
 71
238
 72
219
 73
237
  0
VERTEX
  5
1097
100
AcDbEntity
100
AcDbFaceRecord
 10
0.0
 20
0.0
 30
0.0
 70
   128
 71
237
 72
219
 73
218
  0
VERTEX
  5
1098
100
AcDbEntity
100
AcDbFaceRecord
 10
0.0
 20
0.0
 30
0.0
 70
   128
 71
237
 72
218
 73
236
  0
VERTEX
  5
1099
100
AcDbEntity
100
AcDbFaceRecord
 10
0.0
 20
0.0
 30
0.0
 70
   128
 71
236
 72
218
 73
217
  0
VERTEX
  5
1100
100
AcDbEntity
100
AcDbFaceRecord
 10
0.0
 20
0.0
 30
0.0
 70
   128
 71
236
 72
217
 73
235
  0
VERTEX
  5
1101
100
AcDbEntity
100
AcDbFaceRecord
 10
0.0
 20
0.0
 30
0.0
 70
   128
 71
235
 72
217
 73
216
  0
VERTEX
  5
1102
100
AcDbEntity
100
AcDbFaceRecord
 10
0.0
 20
0.0
 30
0.0
 70
   128
 71
235
 72
216
 73
234
  0
VERTEX
  5
1103
100
AcDbEntity
100
AcDbFaceRecord
 10
0.0
 20
0.0
 30
0.0
 70
   128
 71
234
 72
216
 73
215
  0
VERTEX
  5
1104
100
AcDbEntity
100
AcDbFaceRecord
 10
0.0
 20
0.0
 30
0.0
 70
   128
 71
234
 72
215
 73
233
  0
VERTEX
  5
1105
100
AcDbEntity
100
AcDbFaceRecord
 10
0.0
 20
0.0
 30
0.0
 70
   128
 71
233
 72
215
 73
214
  0
VERTEX
  5
1106
100
AcDbEntity
100
AcDbFaceRecord
 10
0.0
 20
0.0
 30
0.0
 70
   128
 71
233
 72
214
 73
232
  0
VERTEX
  5
1107
100
AcDbEntity
100
AcDbFaceRecord
 10
0.0
 20
0.0
 30
0.0
 70
   128
 71
232
 72
214
 73
213
  0
VERTEX
  5
1108
100
AcDbEntity
100
AcDbFaceRecord
 10
0.0
 20
0.0
 30
0.0
 70
   128
 71
232
 72
213
 73
231
  0
VERTEX
  5
1109
100
AcDbEntity
100
AcDbFaceRecord
 10
0.0
 20
0.0
 30
0.0
 70
   128
 71
231
 72
213
 73
212
  0
VERTEX
  5
1110
100
AcDbEntity
100
AcDbFaceRecord
 10
0.0
 20
0.0
 30
0.0
 70
   128
 71
231
 72
212
 73
230
  0
VERTEX
  5
1111
100
AcDbEntity
100
AcDbFaceRecord
 10
0.0
 20
0.0
 30
0.0
 70
   128
 71
230
 72
212
 73
211
  0
VERTEX
  5
1112
100
AcDbEntity
100
AcDbFaceRecord
 10
0.0
 20
0.0
 30
0.0
 70
   128
 71
230
 72
211
 73
229
  0
VERTEX
  5
1113
100
AcDbEntity
100
AcDbFaceRecord
 10
0.0
 20
0.0
 30
0.0
 70
   128
 71
229
 72
211
 73
210
  0
VERTEX
  5
1114
100
AcDbEntity
100
AcDbFaceRecord
 10
0.0
 20
0.0
 30
0.0
 70
   128
 71
228
 72
209
 73
227
  0
VERTEX
  5
1115
100
AcDbEntity
100
AcDbFaceRecord
 10
0.0
 20
0.0
 30
0.0
 70
   128
 71
227
 72
209
 73
208
  0
VERTEX
  5
1116
100
AcDbEntity
100
AcDbFaceRecord
 10
0.0
 20
0.0
 30
0.0
 70
   128
 71
227
 72
208
 73
226
  0
VERTEX
  5
1117
100
AcDbEntity
100
AcDbFaceRecord
 10
0.0
 20
0.0
 30
0.0
 70
   128
 71
226
 72
208
 73
207
  0
VERTEX
  5
1118
100
AcDbEntity
100
AcDbFaceRecord
 10
0.0
 20
0.0
 30
0.0
 70
   128
 71
226
 72
207
 73
225
  0
VERTEX
  5
1119
100
AcDbEntity
100
AcDbFaceRecord
 10
0.0
 20
0.0
 30
0.0
 70
   128
 71
225
 72
207
 73
206
  0
VERTEX
  5
1120
100
AcDbEntity
100
AcDbFaceRecord
 10
0.0
 20
0.0
 30
0.0
 70
   128
 71
225
 72
206
 73
224
  0
VERTEX
  5
1121
100
AcDbEntity
100
AcDbFaceRecord
 10
0.0
 20
0.0
 30
0.0
 70
   128
 71
224
 72
206
 73
205
  0
VERTEX
  5
1122
100
AcDbEntity
100
AcDbFaceRecord
 10
0.0
 20
0.0
 30
0.0
 70
   128
 71
224
 72
205
 73
223
  0
VERTEX
  5
1123
100
AcDbEntity
100
AcDbFaceRecord
 10
0.0
 20
0.0
 30
0.0
 70
   128
 71
223
 72
205
 73
204
  0
VERTEX
  5
1124
100
AcDbEntity
100
AcDbFaceRecord
 10
0.0
 20
0.0
 30
0.0
 70
   128
 71
223
 72
204
 73
222
  0
VERTEX
  5
1125
100
AcDbEntity
100
AcDbFaceRecord
 10
0.0
 20
0.0
 30
0.0
 70
   128
 71
222
 72
204
 73
203
  0
VERTEX
  5
1126
100
AcDbEntity
100
AcDbFaceRecord
 10
0.0
 20
0.0
 30
0.0
 70
   128
 71
222
 72
203
 73
221
  0
VERTEX
  5
1127
100
AcDbEntity
100
AcDbFaceRecord
 10
0.0
 20
0.0
 30
0.0
 70
   128
 71
221
 72
203
 73
202
  0
VERTEX
  5
1128
100
AcDbEntity
100
AcDbFaceRecord
 10
0.0
 20
0.0
 30
0.0
 70
   128
 71
221
 72
202
 73
220
  0
VERTEX
  5
1129
100
AcDbEntity
100
AcDbFaceRecord
 10
0.0
 20
0.0
 30
0.0
 70
   128
 71
220
 72
202
 73
201
  0
VERTEX
  5
1130
100
AcDbEntity
100
AcDbFaceRecord
 10
0.0
 20
0.0
 30
0.0
 70
   128
 71
220
 72
201
 73
219
  0
VERTEX
  5
1131
100
AcDbEntity
100
AcDbFaceRecord
 10
0.0
 20
0.0
 30
0.0
 70
   128
 71
219
 72
201
 73
200
  0
VERTEX
  5
1132
100
AcDbEntity
100
AcDbFaceRecord
 10
0.0
 20
0.0
 30
0.0
 70
   128
 71
219
 72
200
 73
218
  0
VERTEX
  5
1133
100
AcDbEntity
100
AcDbFaceRecord
 10
0.0
 20
0.0
 30
0.0
 70
   128
 71
218
 72
200
 73
199
  0
VERTEX
  5
1134
100
AcDbEntity
100
AcDbFaceRecord
 10
0.0
 20
0.0
 30
0.0
 70
   128
 71
218
 72
199
 73
217
  0
VERTEX
  5
1135
100
AcDbEntity
100
AcDbFaceRecord
 10
0.0
 20
0.0
 30
0.0
 70
   128
 71
217
 72
199
 73
198
  0
VERTEX
  5
1136
100
AcDbEntity
100
AcDbFaceRecord
 10
0.0
 20
0.0
 30
0.0
 70
   128
 71
217
 72
198
 73
216
  0
VERTEX
  5
1137
100
AcDbEntity
100
AcDbFaceRecord
 10
0.0
 20
0.0
 30
0.0
 70
   128
 71
216
 72
198
 73
197
  0
VERTEX
  5
1138
100
AcDbEntity
100
AcDbFaceRecord
 10
0.0
 20
0.0
 30
0.0
 70
   128
 71
216
 72
197
 73
215
  0
VERTEX
  5
1139
100
AcDbEntity
100
AcDbFaceRecord
 10
0.0
 20
0.0
 30
0.0
 70
   128
 71
215
 72
197
 73
196
  0
VERTEX
  5
1140
100
AcDbEntity
100
AcDbFaceRecord
 10
0.0
 20
0.0
 30
0.0
 70
   128
 71
215
 72
196
 73
214
  0
VERTEX
  5
1141
100
AcDbEntity
100
AcDbFaceRecord
 10
0.0
 20
0.0
 30
0.0
 70
   128
 71
214
 72
196
 73
195
  0
VERTEX
  5
1142
100
AcDbEntity
100
AcDbFaceRecord
 10
0.0
 20
0.0
 30
0.0
 70
   128
 71
214
 72
195
 73
213
  0
VERTEX
  5
1143
100
AcDbEntity
100
AcDbFaceRecord
 10
0.0
 20
0.0
 30
0.0
 70
   128
 71
213
 72
195
 73
194
  0
VERTEX
  5
1144
100
AcDbEntity
100
AcDbFaceRecord
 10
0.0
 20
0.0
 30
0.0
 70
   128
 71
213
 72
194
 73
212
  0
VERTEX
  5
1145
100
AcDbEntity
100
AcDbFaceRecord
 10
0.0
 20
0.0
 30
0.0
 70
   128
 71
212
 72
194
 73
193
  0
VERTEX
  5
1146
100
AcDbEntity
100
AcDbFaceRecord
 10
0.0
 20
0.0
 30
0.0
 70
   128
 71
212
 72
193
 73
211
  0
VERTEX
  5
1147
100
AcDbEntity
100
AcDbFaceRecord
 10
0.0
 20
0.0
 30
0.0
 70
   128
 71
211
 72
193
 73
192
  0
VERTEX
  5
1148
100
AcDbEntity
100
AcDbFaceRecord
 10
0.0
 20
0.0
 30
0.0
 70
   128
 71
211
 72
192
 73
210
  0
VERTEX
  5
1149
100
AcDbEntity
100
AcDbFaceRecord
 10
0.0
 20
0.0
 30
0.0
 70
   128
 71
210
 72
192
 73
191
  0
VERTEX
  5
1150
100
AcDbEntity
100
AcDbFaceRecord
 10
0.0
 20
0.0
 30
0.0
 70
   128
 71
209
 72
190
 73
208
  0
VERTEX
  5
1151
100
AcDbEntity
100
AcDbFaceRecord
 10
0.0
 20
0.0
 30
0.0
 70
   128
 71
208
 72
190
 73
189
  0
VERTEX
  5
1152
100
AcDbEntity
100
AcDbFaceRecord
 10
0.0
 20
0.0
 30
0.0
 70
   128
 71
208
 72
189
 73
207
  0
VERTEX
  5
1153
100
AcDbEntity
100
AcDbFaceRecord
 10
0.0
 20
0.0
 30
0.0
 70
   128
 71
207
 72
189
 73
188
  0
VERTEX
  5
1154
100
AcDbEntity
100
AcDbFaceRecord
 10
0.0
 20
0.0
 30
0.0
 70
   128
 71
207
 72
188
 73
206
  0
VERTEX
  5
1155
100
AcDbEntity
100
AcDbFaceRecord
 10
0.0
 20
0.0
 30
0.0
 70
   128
 71
206
 72
188
 73
187
  0
VERTEX
  5
1156
100
AcDbEntity
100
AcDbFaceRecord
 10
0.0
 20
0.0
 30
0.0
 70
   128
 71
206
 72
187
 73
205
  0
VERTEX
  5
1157
100
AcDbEntity
100
AcDbFaceRecord
 10
0.0
 20
0.0
 30
0.0
 70
   128
 71
205
 72
187
 73
186
  0
VERTEX
  5
1158
100
AcDbEntity
100
AcDbFaceRecord
 10
0.0
 20
0.0
 30
0.0
 70
   128
 71
205
 72
186
 73
204
  0
VERTEX
  5
1159
100
AcDbEntity
100
AcDbFaceRecord
 10
0.0
 20
0.0
 30
0.0
 70
   128
 71
204
 72
186
 73
185
  0
VERTEX
  5
1160
100
AcDbEntity
100
AcDbFaceRecord
 10
0.0
 20
0.0
 30
0.0
 70
   128
 71
204
 72
185
 73
203
  0
VERTEX
  5
1161
100
AcDbEntity
100
AcDbFaceRecord
 10
0.0
 20
0.0
 30
0.0
 70
   128
 71
203
 72
185
 73
184
  0
VERTEX
  5
1162
100
AcDbEntity
100
AcDbFaceRecord
 10
0.0
 20
0.0
 30
0.0
 70
   128
 71
203
 72
184
 73
202
  0
VERTEX
  5
1163
100
AcDbEntity
100
AcDbFaceRecord
 10
0.0
 20
0.0
 30
0.0
 70
   128
 71
202
 72
184
 73
183
  0
VERTEX
  5
1164
100
AcDbEntity
100
AcDbFaceRecord
 10
0.0
 20
0.0
 30
0.0
 70
   128
 71
202
 72
183
 73
201
  0
VERTEX
  5
1165
100
AcDbEntity
100
AcDbFaceRecord
 10
0.0
 20
0.0
 30
0.0
 70
   128
 71
201
 72
183
 73
182
  0
VERTEX
  5
1166
100
AcDbEntity
100
AcDbFaceRecord
 10
0.0
 20
0.0
 30
0.0
 70
   128
 71
201
 72
182
 73
200
  0
VERTEX
  5
1167
100
AcDbEntity
100
AcDbFaceRecord
 10
0.0
 20
0.0
 30
0.0
 70
   128
 71
200
 72
182
 73
181
  0
VERTEX
  5
1168
100
AcDbEntity
100
AcDbFaceRecord
 10
0.0
 20
0.0
 30
0.0
 70
   128
 71
200
 72
181
 73
199
  0
VERTEX
  5
1169
100
AcDbEntity
100
AcDbFaceRecord
 10
0.0
 20
0.0
 30
0.0
 70
   128
 71
199
 72
181
 73
180
  0
VERTEX
  5
1170
100
AcDbEntity
100
AcDbFaceRecord
 10
0.0
 20
0.0
 30
0.0
 70
   128
 71
199
 72
180
 73
198
  0
VERTEX
  5
1171
100
AcDbEntity
100
AcDbFaceRecord
 10
0.0
 20
0.0
 30
0.0
 70
   128
 71
198
 72
180
 73
179
  0
VERTEX
  5
1172
100
AcDbEntity
100
AcDbFaceRecord
 10
0.0
 20
0.0
 30
0.0
 70
   128
 71
198
 72
179
 73
197
  0
VERTEX
  5
1173
100
AcDbEntity
100
AcDbFaceRecord
 10
0.0
 20
0.0
 30
0.0
 70
   128
 71
197
 72
179
 73
178
  0
VERTEX
  5
1174
100
AcDbEntity
100
AcDbFaceRecord
 10
0.0
 20
0.0
 30
0.0
 70
   128
 71
197
 72
178
 73
196
  0
VERTEX
  5
1175
100
AcDbEntity
100
AcDbFaceRecord
 10
0.0
 20
0.0
 30
0.0
 70
   128
 71
196
 72
178
 73
177
  0
VERTEX
  5
1176
100
AcDbEntity
100
AcDbFaceRecord
 10
0.0
 20
0.0
 30
0.0
 70
   128
 71
196
 72
177
 73
195
  0
VERTEX
  5
1177
100
AcDbEntity
100
AcDbFaceRecord
 10
0.0
 20
0.0
 30
0.0
 70
   128
 71
195
 72
177
 73
176
  0
VERTEX
  5
1178
100
AcDbEntity
100
AcDbFaceRecord
 10
0.0
 20
0.0
 30
0.0
 70
   128
 71
195
 72
176
 73
194
  0
VERTEX
  5
1179
100
AcDbEntity
100
AcDbFaceRecord
 10
0.0
 20
0.0
 30
0.0
 70
   128
 71
194
 72
176
 73
175
  0
VERTEX
  5
1180
100
AcDbEntity
100
AcDbFaceRecord
 10
0.0
 20
0.0
 30
0.0
 70
   128
 71
194
 72
175
 73
193
  0
VERTEX
  5
1181
100
AcDbEntity
100
AcDbFaceRecord
 10
0.0
 20
0.0
 30
0.0
 70
   128
 71
193
 72
175
 73
174
  0
VERTEX
  5
1182
100
AcDbEntity
100
AcDbFaceRecord
 10
0.0
 20
0.0
 30
0.0
 70
   128
 71
193
 72
174
 73
192
  0
VERTEX
  5
1183
100
AcDbEntity
100
AcDbFaceRecord
 10
0.0
 20
0.0
 30
0.0
 70
   128
 71
192
 72
174
 73
173
  0
VERTEX
  5
1184
100
AcDbEntity
100
AcDbFaceRecord
 10
0.0
 20
0.0
 30
0.0
 70
   128
 71
192
 72
173
 73
191
  0
VERTEX
  5
1185
100
AcDbEntity
100
AcDbFaceRecord
 10
0.0
 20
0.0
 30
0.0
 70
   128
 71
191
 72
173
 73
172
  0
VERTEX
  5
1186
100
AcDbEntity
100
AcDbFaceRecord
 10
0.0
 20
0.0
 30
0.0
 70
   128
 71
190
 72
171
 73
189
  0
VERTEX
  5
1187
100
AcDbEntity
100
AcDbFaceRecord
 10
0.0
 20
0.0
 30
0.0
 70
   128
 71
189
 72
171
 73
170
  0
VERTEX
  5
1188
100
AcDbEntity
100
AcDbFaceRecord
 10
0.0
 20
0.0
 30
0.0
 70
   128
 71
189
 72
170
 73
188
  0
VERTEX
  5
1189
100
AcDbEntity
100
AcDbFaceRecord
 10
0.0
 20
0.0
 30
0.0
 70
   128
 71
188
 72
170
 73
169
  0
VERTEX
  5
1190
100
AcDbEntity
100
AcDbFaceRecord
 10
0.0
 20
0.0
 30
0.0
 70
   128
 71
188
 72
169
 73
187
  0
VERTEX
  5
1191
100
AcDbEntity
100
AcDbFaceRecord
 10
0.0
 20
0.0
 30
0.0
 70
   128
 71
187
 72
169
 73
168
  0
VERTEX
  5
1192
100
AcDbEntity
100
AcDbFaceRecord
 10
0.0
 20
0.0
 30
0.0
 70
   128
 71
187
 72
168
 73
186
  0
VERTEX
  5
1193
100
AcDbEntity
100
AcDbFaceRecord
 10
0.0
 20
0.0
 30
0.0
 70
   128
 71
186
 72
168
 73
167
  0
VERTEX
  5
1194
100
AcDbEntity
100
AcDbFaceRecord
 10
0.0
 20
0.0
 30
0.0
 70
   128
 71
186
 72
167
 73
185
  0
VERTEX
  5
1195
100
AcDbEntity
100
AcDbFaceRecord
 10
0.0
 20
0.0
 30
0.0
 70
   128
 71
185
 72
167
 73
166
  0
VERTEX
  5
1196
100
AcDbEntity
100
AcDbFaceRecord
 10
0.0
 20
0.0
 30
0.0
 70
   128
 71
185
 72
166
 73
184
  0
VERTEX
  5
1197
100
AcDbEntity
100
AcDbFaceRecord
 10
0.0
 20
0.0
 30
0.0
 70
   128
 71
184
 72
166
 73
165
  0
VERTEX
  5
1198
100
AcDbEntity
100
AcDbFaceRecord
 10
0.0
 20
0.0
 30
0.0
 70
   128
 71
184
 72
165
 73
183
  0
VERTEX
  5
1199
100
AcDbEntity
100
AcDbFaceRecord
 10
0.0
 20
0.0
 30
0.0
 70
   128
 71
183
 72
165
 73
164
  0
VERTEX
  5
1200
100
AcDbEntity
100
AcDbFaceRecord
 10
0.0
 20
0.0
 30
0.0
 70
   128
 71
183
 72
164
 73
182
  0
VERTEX
  5
1201
100
AcDbEntity
100
AcDbFaceRecord
 10
0.0
 20
0.0
 30
0.0
 70
   128
 71
182
 72
164
 73
163
  0
VERTEX
  5
1202
100
AcDbEntity
100
AcDbFaceRecord
 10
0.0
 20
0.0
 30
0.0
 70
   128
 71
182
 72
163
 73
181
  0
VERTEX
  5
1203
100
AcDbEntity
100
AcDbFaceRecord
 10
0.0
 20
0.0
 30
0.0
 70
   128
 71
181
 72
163
 73
162
  0
VERTEX
  5
1204
100
AcDbEntity
100
AcDbFaceRecord
 10
0.0
 20
0.0
 30
0.0
 70
   128
 71
181
 72
162
 73
180
  0
VERTEX
  5
1205
100
AcDbEntity
100
AcDbFaceRecord
 10
0.0
 20
0.0
 30
0.0
 70
   128
 71
180
 72
162
 73
161
  0
VERTEX
  5
1206
100
AcDbEntity
100
AcDbFaceRecord
 10
0.0
 20
0.0
 30
0.0
 70
   128
 71
180
 72
161
 73
179
  0
VERTEX
  5
1207
100
AcDbEntity
100
AcDbFaceRecord
 10
0.0
 20
0.0
 30
0.0
 70
   128
 71
179
 72
161
 73
160
  0
VERTEX
  5
1208
100
AcDbEntity
100
AcDbFaceRecord
 10
0.0
 20
0.0
 30
0.0
 70
   128
 71
179
 72
160
 73
178
  0
VERTEX
  5
1209
100
AcDbEntity
100
AcDbFaceRecord
 10
0.0
 20
0.0
 30
0.0
 70
   128
 71
178
 72
160
 73
159
  0
VERTEX
  5
1210
100
AcDbEntity
100
AcDbFaceRecord
 10
0.0
 20
0.0
 30
0.0
 70
   128
 71
178
 72
159
 73
177
  0
VERTEX
  5
1211
100
AcDbEntity
100
AcDbFaceRecord
 10
0.0
 20
0.0
 30
0.0
 70
   128
 71
177
 72
159
 73
158
  0
VERTEX
  5
1212
100
AcDbEntity
100
AcDbFaceRecord
 10
0.0
 20
0.0
 30
0.0
 70
   128
 71
177
 72
158
 73
176
  0
VERTEX
  5
1213
100
AcDbEntity
100
AcDbFaceRecord
 10
0.0
 20
0.0
 30
0.0
 70
   128
 71
176
 72
158
 73
157
  0
VERTEX
  5
1214
100
AcDbEntity
100
AcDbFaceRecord
 10
0.0
 20
0.0
 30
0.0
 70
   128
 71
176
 72
157
 73
175
  0
VERTEX
  5
1215
100
AcDbEntity
100
AcDbFaceRecord
 10
0.0
 20
0.0
 30
0.0
 70
   128
 71
175
 72
157
 73
156
  0
VERTEX
  5
1216
100
AcDbEntity
100
AcDbFaceRecord
 10
0.0
 20
0.0
 30
0.0
 70
   128
 71
175
 72
156
 73
174
  0
VERTEX
  5
1217
100
AcDbEntity
100
AcDbFaceRecord
 10
0.0
 20
0.0
 30
0.0
 70
   128
 71
174
 72
156
 73
155
  0
VERTEX
  5
1218
100
AcDbEntity
100
AcDbFaceRecord
 10
0.0
 20
0.0
 30
0.0
 70
   128
 71
174
 72
155
 73
173
  0
VERTEX
  5
1219
100
AcDbEntity
100
AcDbFaceRecord
 10
0.0
 20
0.0
 30
0.0
 70
   128
 71
173
 72
155
 73
154
  0
VERTEX
  5
1220
100
AcDbEntity
100
AcDbFaceRecord
 10
0.0
 20
0.0
 30
0.0
 70
   128
 71
173
 72
154
 73
172
  0
VERTEX
  5
1221
100
AcDbEntity
100
AcDbFaceRecord
 10
0.0
 20
0.0
 30
0.0
 70
   128
 71
172
 72
154
 73
153
  0
VERTEX
  5
1222
100
AcDbEntity
100
AcDbFaceRecord
 10
0.0
 20
0.0
 30
0.0
 70
   128
 71
171
 72
152
 73
170
  0
VERTEX
  5
1223
100
AcDbEntity
100
AcDbFaceRecord
 10
0.0
 20
0.0
 30
0.0
 70
   128
 71
170
 72
152
 73
151
  0
VERTEX
  5
1224
100
AcDbEntity
100
AcDbFaceRecord
 10
0.0
 20
0.0
 30
0.0
 70
   128
 71
170
 72
151
 73
169
  0
VERTEX
  5
1225
100
AcDbEntity
100
AcDbFaceRecord
 10
0.0
 20
0.0
 30
0.0
 70
   128
 71
169
 72
151
 73
150
  0
VERTEX
  5
1226
100
AcDbEntity
100
AcDbFaceRecord
 10
0.0
 20
0.0
 30
0.0
 70
   128
 71
169
 72
150
 73
168
  0
VERTEX
  5
1227
100
AcDbEntity
100
AcDbFaceRecord
 10
0.0
 20
0.0
 30
0.0
 70
   128
 71
168
 72
150
 73
149
  0
VERTEX
  5
1228
100
AcDbEntity
100
AcDbFaceRecord
 10
0.0
 20
0.0
 30
0.0
 70
   128
 71
168
 72
149
 73
167
  0
VERTEX
  5
1229
100
AcDbEntity
100
AcDbFaceRecord
 10
0.0
 20
0.0
 30
0.0
 70
   128
 71
167
 72
149
 73
148
  0
VERTEX
  5
1230
100
AcDbEntity
100
AcDbFaceRecord
 10
0.0
 20
0.0
 30
0.0
 70
   128
 71
167
 72
148
 73
166
  0
VERTEX
  5
1231
100
AcDbEntity
100
AcDbFaceRecord
 10
0.0
 20
0.0
 30
0.0
 70
   128
 71
166
 72
148
 73
147
  0
VERTEX
  5
1232
100
AcDbEntity
100
AcDbFaceRecord
 10
0.0
 20
0.0
 30
0.0
 70
   128
 71
166
 72
147
 73
165
  0
VERTEX
  5
1233
100
AcDbEntity
100
AcDbFaceRecord
 10
0.0
 20
0.0
 30
0.0
 70
   128
 71
165
 72
147
 73
146
  0
VERTEX
  5
1234
100
AcDbEntity
100
AcDbFaceRecord
 10
0.0
 20
0.0
 30
0.0
 70
   128
 71
165
 72
146
 73
164
  0
VERTEX
  5
1235
100
AcDbEntity
100
AcDbFaceRecord
 10
0.0
 20
0.0
 30
0.0
 70
   128
 71
164
 72
146
 73
145
  0
VERTEX
  5
1236
100
AcDbEntity
100
AcDbFaceRecord
 10
0.0
 20
0.0
 30
0.0
 70
   128
 71
164
 72
145
 73
163
  0
VERTEX
  5
1237
100
AcDbEntity
100
AcDbFaceRecord
 10
0.0
 20
0.0
 30
0.0
 70
   128
 71
163
 72
145
 73
144
  0
VERTEX
  5
1238
100
AcDbEntity
100
AcDbFaceRecord
 10
0.0
 20
0.0
 30
0.0
 70
   128
 71
163
 72
144
 73
162
  0
VERTEX
  5
1239
100
AcDbEntity
100
AcDbFaceRecord
 10
0.0
 20
0.0
 30
0.0
 70
   128
 71
162
 72
144
 73
143
  0
VERTEX
  5
1240
100
AcDbEntity
100
AcDbFaceRecord
 10
0.0
 20
0.0
 30
0.0
 70
   128
 71
162
 72
143
 73
161
  0
VERTEX
  5
1241
100
AcDbEntity
100
AcDbFaceRecord
 10
0.0
 20
0.0
 30
0.0
 70
   128
 71
161
 72
143
 73
142
  0
VERTEX
  5
1242
100
AcDbEntity
100
AcDbFaceRecord
 10
0.0
 20
0.0
 30
0.0
 70
   128
 71
161
 72
142
 73
160
  0
VERTEX
  5
1243
100
AcDbEntity
100
AcDbFaceRecord
 10
0.0
 20
0.0
 30
0.0
 70
   128
 71
160
 72
142
 73
141
  0
VERTEX
  5
1244
100
AcDbEntity
100
AcDbFaceRecord
 10
0.0
 20
0.0
 30
0.0
 70
   128
 71
160
 72
141
 73
159
  0
VERTEX
  5
1245
100
AcDbEntity
100
AcDbFaceRecord
 10
0.0
 20
0.0
 30
0.0
 70
   128
 71
159
 72
141
 73
140
  0
VERTEX
  5
1246
100
AcDbEntity
100
AcDbFaceRecord
 10
0.0
 20
0.0
 30
0.0
 70
   128
 71
159
 72
140
 73
158
  0
VERTEX
  5
1247
100
AcDbEntity
100
AcDbFaceRecord
 10
0.0
 20
0.0
 30
0.0
 70
   128
 71
158
 72
140
 73
139
  0
VERTEX
  5
1248
100
AcDbEntity
100
AcDbFaceRecord
 10
0.0
 20
0.0
 30
0.0
 70
   128
 71
158
 72
139
 73
157
  0
VERTEX
  5
1249
100
AcDbEntity
100
AcDbFaceRecord
 10
0.0
 20
0.0
 30
0.0
 70
   128
 71
157
 72
139
 73
138
  0
VERTEX
  5
1250
100
AcDbEntity
100
AcDbFaceRecord
 10
0.0
 20
0.0
 30
0.0
 70
   128
 71
157
 72
138
 73
156
  0
VERTEX
  5
1251
100
AcDbEntity
100
AcDbFaceRecord
 10
0.0
 20
0.0
 30
0.0
 70
   128
 71
156
 72
138
 73
137
  0
VERTEX
  5
1252
100
AcDbEntity
100
AcDbFaceRecord
 10
0.0
 20
0.0
 30
0.0
 70
   128
 71
156
 72
137
 73
155
  0
VERTEX
  5
1253
100
AcDbEntity
100
AcDbFaceRecord
 10
0.0
 20
0.0
 30
0.0
 70
   128
 71
155
 72
137
 73
136
  0
VERTEX
  5
1254
100
AcDbEntity
100
AcDbFaceRecord
 10
0.0
 20
0.0
 30
0.0
 70
   128
 71
155
 72
136
 73
154
  0
VERTEX
  5
1255
100
AcDbEntity
100
AcDbFaceRecord
 10
0.0
 20
0.0
 30
0.0
 70
   128
 71
154
 72
136
 73
135
  0
VERTEX
  5
1256
100
AcDbEntity
100
AcDbFaceRecord
 10
0.0
 20
0.0
 30
0.0
 70
   128
 71
154
 72
135
 73
153
  0
VERTEX
  5
1257
100
AcDbEntity
100
AcDbFaceRecord
 10
0.0
 20
0.0
 30
0.0
 70
   128
 71
153
 72
135
 73
134
  0
VERTEX
  5
1258
100
AcDbEntity
100
AcDbFaceRecord
 10
0.0
 20
0.0
 30
0.0
 70
   128
 71
152
 72
133
 73
151
  0
VERTEX
  5
1259
100
AcDbEntity
100
AcDbFaceRecord
 10
0.0
 20
0.0
 30
0.0
 70
   128
 71
151
 72
133
 73
132
  0
VERTEX
  5
1260
100
AcDbEntity
100
AcDbFaceRecord
 10
0.0
 20
0.0
 30
0.0
 70
   128
 71
151
 72
132
 73
150
  0
VERTEX
  5
1261
100
AcDbEntity
100
AcDbFaceRecord
 10
0.0
 20
0.0
 30
0.0
 70
   128
 71
150
 72
132
 73
131
  0
VERTEX
  5
1262
100
AcDbEntity
100
AcDbFaceRecord
 10
0.0
 20
0.0
 30
0.0
 70
   128
 71
150
 72
131
 73
149
  0
VERTEX
  5
1263
100
AcDbEntity
100
AcDbFaceRecord
 10
0.0
 20
0.0
 30
0.0
 70
   128
 71
149
 72
131
 73
130
  0
VERTEX
  5
1264
100
AcDbEntity
100
AcDbFaceRecord
 10
0.0
 20
0.0
 30
0.0
 70
   128
 71
149
 72
130
 73
148
  0
VERTEX
  5
1265
100
AcDbEntity
100
AcDbFaceRecord
 10
0.0
 20
0.0
 30
0.0
 70
   128
 71
148
 72
130
 73
129
  0
VERTEX
  5
1266
100
AcDbEntity
100
AcDbFaceRecord
 10
0.0
 20
0.0
 30
0.0
 70
   128
 71
148
 72
129
 73
147
  0
VERTEX
  5
1267
100
AcDbEntity
100
AcDbFaceRecord
 10
0.0
 20
0.0
 30
0.0
 70
   128
 71
147
 72
129
 73
128
  0
VERTEX
  5
1268
100
AcDbEntity
100
AcDbFaceRecord
 10
0.0
 20
0.0
 30
0.0
 70
   128
 71
147
 72
128
 73
146
  0
VERTEX
  5
1269
100
AcDbEntity
100
AcDbFaceRecord
 10
0.0
 20
0.0
 30
0.0
 70
   128
 71
146
 72
128
 73
127
  0
VERTEX
  5
1270
100
AcDbEntity
100
AcDbFaceRecord
 10
0.0
 20
0.0
 30
0.0
 70
   128
 71
146
 72
127
 73
145
  0
VERTEX
  5
1271
100
AcDbEntity
100
AcDbFaceRecord
 10
0.0
 20
0.0
 30
0.0
 70
   128
 71
145
 72
127
 73
126
  0
VERTEX
  5
1272
100
AcDbEntity
100
AcDbFaceRecord
 10
0.0
 20
0.0
 30
0.0
 70
   128
 71
145
 72
126
 73
144
  0
VERTEX
  5
1273
100
AcDbEntity
100
AcDbFaceRecord
 10
0.0
 20
0.0
 30
0.0
 70
   128
 71
144
 72
126
 73
125
  0
VERTEX
  5
1274
100
AcDbEntity
100
AcDbFaceRecord
 10
0.0
 20
0.0
 30
0.0
 70
   128
 71
144
 72
125
 73
143
  0
VERTEX
  5
1275
100
AcDbEntity
100
AcDbFaceRecord
 10
0.0
 20
0.0
 30
0.0
 70
   128
 71
143
 72
125
 73
124
  0
VERTEX
  5
1276
100
AcDbEntity
100
AcDbFaceRecord
 10
0.0
 20
0.0
 30
0.0
 70
   128
 71
143
 72
124
 73
142
  0
VERTEX
  5
1277
100
AcDbEntity
100
AcDbFaceRecord
 10
0.0
 20
0.0
 30
0.0
 70
   128
 71
142
 72
124
 73
123
  0
VERTEX
  5
1278
100
AcDbEntity
100
AcDbFaceRecord
 10
0.0
 20
0.0
 30
0.0
 70
   128
 71
142
 72
123
 73
141
  0
VERTEX
  5
1279
100
AcDbEntity
100
AcDbFaceRecord
 10
0.0
 20
0.0
 30
0.0
 70
   128
 71
141
 72
123
 73
122
  0
VERTEX
  5
1280
100
AcDbEntity
100
AcDbFaceRecord
 10
0.0
 20
0.0
 30
0.0
 70
   128
 71
141
 72
122
 73
140
  0
VERTEX
  5
1281
100
AcDbEntity
100
AcDbFaceRecord
 10
0.0
 20
0.0
 30
0.0
 70
   128
 71
140
 72
122
 73
121
  0
VERTEX
  5
1282
100
AcDbEntity
100
AcDbFaceRecord
 10
0.0
 20
0.0
 30
0.0
 70
   128
 71
140
 72
121
 73
139
  0
VERTEX
  5
1283
100
AcDbEntity
100
AcDbFaceRecord
 10
0.0
 20
0.0
 30
0.0
 70
   128
 71
139
 72
121
 73
120
  0
VERTEX
  5
1284
100
AcDbEntity
100
AcDbFaceRecord
 10
0.0
 20
0.0
 30
0.0
 70
   128
 71
139
 72
120
 73
138
  0
VERTEX
  5
1285
100
AcDbEntity
100
AcDbFaceRecord
 10
0.0
 20
0.0
 30
0.0
 70
   128
 71
138
 72
120
 73
119
  0
VERTEX
  5
1286
100
AcDbEntity
100
AcDbFaceRecord
 10
0.0
 20
0.0
 30
0.0
 70
   128
 71
138
 72
119
 73
137
  0
VERTEX
  5
1287
100
AcDbEntity
100
AcDbFaceRecord
 10
0.0
 20
0.0
 30
0.0
 70
   128
 71
137
 72
119
 73
118
  0
VERTEX
  5
1288
100
AcDbEntity
100
AcDbFaceRecord
 10
0.0
 20
0.0
 30
0.0
 70
   128
 71
137
 72
118
 73
136
  0
VERTEX
  5
1289
100
AcDbEntity
100
AcDbFaceRecord
 10
0.0
 20
0.0
 30
0.0
 70
   128
 71
136
 72
118
 73
117
  0
VERTEX
  5
1290
100
AcDbEntity
100
AcDbFaceRecord
 10
0.0
 20
0.0
 30
0.0
 70
   128
 71
136
 72
117
 73
135
  0
VERTEX
  5
1291
100
AcDbEntity
100
AcDbFaceRecord
 10
0.0
 20
0.0
 30
0.0
 70
   128
 71
135
 72
117
 73
116
  0
VERTEX
  5
1292
100
AcDbEntity
100
AcDbFaceRecord
 10
0.0
 20
0.0
 30
0.0
 70
   128
 71
135
 72
116
 73
134
  0
VERTEX
  5
1293
100
AcDbEntity
100
AcDbFaceRecord
 10
0.0
 20
0.0
 30
0.0
 70
   128
 71
134
 72
116
 73
115
  0
VERTEX
  5
1294
100
AcDbEntity
100
AcDbFaceRecord
 10
0.0
 20
0.0
 30
0.0
 70
   128
 71
133
 72
114
 73
132
  0
VERTEX
  5
1295
100
AcDbEntity
100
AcDbFaceRecord
 10
0.0
 20
0.0
 30
0.0
 70
   128
 71
132
 72
114
 73
113
  0
VERTEX
  5
1296
100
AcDbEntity
100
AcDbFaceRecord
 10
0.0
 20
0.0
 30
0.0
 70
   128
 71
132
 72
113
 73
131
  0
VERTEX
  5
1297
100
AcDbEntity
100
AcDbFaceRecord
 10
0.0
 20
0.0
 30
0.0
 70
   128
 71
131
 72
113
 73
112
  0
VERTEX
  5
1298
100
AcDbEntity
100
AcDbFaceRecord
 10
0.0
 20
0.0
 30
0.0
 70
   128
 71
131
 72
112
 73
130
  0
VERTEX
  5
1299
100
AcDbEntity
100
AcDbFaceRecord
 10
0.0
 20
0.0
 30
0.0
 70
   128
 71
130
 72
112
 73
111
  0
VERTEX
  5
1300
100
AcDbEntity
100
AcDbFaceRecord
 10
0.0
 20
0.0
 30
0.0
 70
   128
 71
130
 72
111
 73
129
  0
VERTEX
  5
1301
100
AcDbEntity
100
AcDbFaceRecord
 10
0.0
 20
0.0
 30
0.0
 70
   128
 71
129
 72
111
 73
110
  0
VERTEX
  5
1302
100
AcDbEntity
100
AcDbFaceRecord
 10
0.0
 20
0.0
 30
0.0
 70
   128
 71
129
 72
110
 73
128
  0
VERTEX
  5
1303
100
AcDbEntity
100
AcDbFaceRecord
 10
0.0
 20
0.0
 30
0.0
 70
   128
 71
128
 72
110
 73
109
  0
VERTEX
  5
1304
100
AcDbEntity
100
AcDbFaceRecord
 10
0.0
 20
0.0
 30
0.0
 70
   128
 71
128
 72
109
 73
127
  0
VERTEX
  5
1305
100
AcDbEntity
100
AcDbFaceRecord
 10
0.0
 20
0.0
 30
0.0
 70
   128
 71
127
 72
109
 73
108
  0
VERTEX
  5
1306
100
AcDbEntity
100
AcDbFaceRecord
 10
0.0
 20
0.0
 30
0.0
 70
   128
 71
127
 72
108
 73
126
  0
VERTEX
  5
1307
100
AcDbEntity
100
AcDbFaceRecord
 10
0.0
 20
0.0
 30
0.0
 70
   128
 71
126
 72
108
 73
107
  0
VERTEX
  5
1308
100
AcDbEntity
100
AcDbFaceRecord
 10
0.0
 20
0.0
 30
0.0
 70
   128
 71
126
 72
107
 73
125
  0
VERTEX
  5
1309
100
AcDbEntity
100
AcDbFaceRecord
 10
0.0
 20
0.0
 30
0.0
 70
   128
 71
125
 72
107
 73
106
  0
VERTEX
  5
1310
100
AcDbEntity
100
AcDbFaceRecord
 10
0.0
 20
0.0
 30
0.0
 70
   128
 71
125
 72
106
 73
124
  0
VERTEX
  5
1311
100
AcDbEntity
100
AcDbFaceRecord
 10
0.0
 20
0.0
 30
0.0
 70
   128
 71
124
 72
106
 73
105
  0
VERTEX
  5
1312
100
AcDbEntity
100
AcDbFaceRecord
 10
0.0
 20
0.0
 30
0.0
 70
   128
 71
124
 72
105
 73
123
  0
VERTEX
  5
1313
100
AcDbEntity
100
AcDbFaceRecord
 10
0.0
 20
0.0
 30
0.0
 70
   128
 71
123
 72
105
 73
104
  0
VERTEX
  5
1314
100
AcDbEntity
100
AcDbFaceRecord
 10
0.0
 20
0.0
 30
0.0
 70
   128
 71
123
 72
104
 73
122
  0
VERTEX
  5
1315
100
AcDbEntity
100
AcDbFaceRecord
 10
0.0
 20
0.0
 30
0.0
 70
   128
 71
122
 72
104
 73
103
  0
VERTEX
  5
1316
100
AcDbEntity
100
AcDbFaceRecord
 10
0.0
 20
0.0
 30
0.0
 70
   128
 71
122
 72
103
 73
121
  0
VERTEX
  5
1317
100
AcDbEntity
100
AcDbFaceRecord
 10
0.0
 20
0.0
 30
0.0
 70
   128
 71
121
 72
103
 73
102
  0
VERTEX
  5
1318
100
AcDbEntity
100
AcDbFaceRecord
 10
0.0
 20
0.0
 30
0.0
 70
   128
 71
121
 72
102
 73
120
  0
VERTEX
  5
1319
100
AcDbEntity
100
AcDbFaceRecord
 10
0.0
 20
0.0
 30
0.0
 70
   128
 71
120
 72
102
 73
101
  0
VERTEX
  5
1320
100
AcDbEntity
100
AcDbFaceRecord
 10
0.0
 20
0.0
 30
0.0
 70
   128
 71
120
 72
101
 73
119
  0
VERTEX
  5
1321
100
AcDbEntity
100
AcDbFaceRecord
 10
0.0
 20
0.0
 30
0.0
 70
   128
 71
119
 72
101
 73
100
  0
VERTEX
  5
1322
100
AcDbEntity
100
AcDbFaceRecord
 10
0.0
 20
0.0
 30
0.0
 70
   128
 71
119
 72
100
 73
118
  0
VERTEX
  5
1323
100
AcDbEntity
100
AcDbFaceRecord
 10
0.0
 20
0.0
 30
0.0
 70
   128
 71
118
 72
100
 73
99
  0
VERTEX
  5
1324
100
AcDbEntity
100
AcDbFaceRecord
 10
0.0
 20
0.0
 30
0.0
 70
   128
 71
118
 72
99
 73
117
  0
VERTEX
  5
1325
100
AcDbEntity
100
AcDbFaceRecord
 10
0.0
 20
0.0
 30
0.0
 70
   128
 71
117
 72
99
 73
98
  0
VERTEX
  5
1326
100
AcDbEntity
100
AcDbFaceRecord
 10
0.0
 20
0.0
 30
0.0
 70
   128
 71
117
 72
98
 73
116
  0
VERTEX
  5
1327
100
AcDbEntity
100
AcDbFaceRecord
 10
0.0
 20
0.0
 30
0.0
 70
   128
 71
116
 72
98
 73
97
  0
VERTEX
  5
1328
100
AcDbEntity
100
AcDbFaceRecord
 10
0.0
 20
0.0
 30
0.0
 70
   128
 71
116
 72
97
 73
115
  0
VERTEX
  5
1329
100
AcDbEntity
100
AcDbFaceRecord
 10
0.0
 20
0.0
 30
0.0
 70
   128
 71
115
 72
97
 73
96
  0
VERTEX
  5
1330
100
AcDbEntity
100
AcDbFaceRecord
 10
0.0
 20
0.0
 30
0.0
 70
   128
 71
114
 72
95
 73
113
  0
VERTEX
  5
1331
100
AcDbEntity
100
AcDbFaceRecord
 10
0.0
 20
0.0
 30
0.0
 70
   128
 71
113
 72
95
 73
94
  0
VERTEX
  5
1332
100
AcDbEntity
100
AcDbFaceRecord
 10
0.0
 20
0.0
 30
0.0
 70
   128
 71
113
 72
94
 73
112
  0
VERTEX
  5
1333
100
AcDbEntity
100
AcDbFaceRecord
 10
0.0
 20
0.0
 30
0.0
 70
   128
 71
112
 72
94
 73
93
  0
VERTEX
  5
1334
100
AcDbEntity
100
AcDbFaceRecord
 10
0.0
 20
0.0
 30
0.0
 70
   128
 71
112
 72
93
 73
111
  0
VERTEX
  5
1335
100
AcDbEntity
100
AcDbFaceRecord
 10
0.0
 20
0.0
 30
0.0
 70
   128
 71
111
 72
93
 73
92
  0
VERTEX
  5
1336
100
AcDbEntity
100
AcDbFaceRecord
 10
0.0
 20
0.0
 30
0.0
 70
   128
 71
111
 72
92
 73
110
  0
VERTEX
  5
1337
100
AcDbEntity
100
AcDbFaceRecord
 10
0.0
 20
0.0
 30
0.0
 70
   128
 71
110
 72
92
 73
91
  0
VERTEX
  5
1338
100
AcDbEntity
100
AcDbFaceRecord
 10
0.0
 20
0.0
 30
0.0
 70
   128
 71
110
 72
91
 73
109
  0
VERTEX
  5
1339
100
AcDbEntity
100
AcDbFaceRecord
 10
0.0
 20
0.0
 30
0.0
 70
   128
 71
109
 72
91
 73
90
  0
VERTEX
  5
1340
100
AcDbEntity
100
AcDbFaceRecord
 10
0.0
 20
0.0
 30
0.0
 70
   128
 71
109
 72
90
 73
108
  0
VERTEX
  5
1341
100
AcDbEntity
100
AcDbFaceRecord
 10
0.0
 20
0.0
 30
0.0
 70
   128
 71
108
 72
90
 73
89
  0
VERTEX
  5
1342
100
AcDbEntity
100
AcDbFaceRecord
 10
0.0
 20
0.0
 30
0.0
 70
   128
 71
108
 72
89
 73
107
  0
VERTEX
  5
1343
100
AcDbEntity
100
AcDbFaceRecord
 10
0.0
 20
0.0
 30
0.0
 70
   128
 71
107
 72
89
 73
88
  0
VERTEX
  5
1344
100
AcDbEntity
100
AcDbFaceRecord
 10
0.0
 20
0.0
 30
0.0
 70
   128
 71
107
 72
88
 73
106
  0
VERTEX
  5
1345
100
AcDbEntity
100
AcDbFaceRecord
 10
0.0
 20
0.0
 30
0.0
 70
   128
 71
106
 72
88
 73
87
  0
VERTEX
  5
1346
100
AcDbEntity
100
AcDbFaceRecord
 10
0.0
 20
0.0
 30
0.0
 70
   128
 71
106
 72
87
 73
105
  0
VERTEX
  5
1347
100
AcDbEntity
100
AcDbFaceRecord
 10
0.0
 20
0.0
 30
0.0
 70
   128
 71
105
 72
87
 73
86
  0
VERTEX
  5
1348
100
AcDbEntity
100
AcDbFaceRecord
 10
0.0
 20
0.0
 30
0.0
 70
   128
 71
105
 72
86
 73
104
  0
VERTEX
  5
1349
100
AcDbEntity
100
AcDbFaceRecord
 10
0.0
 20
0.0
 30
0.0
 70
   128
 71
104
 72
86
 73
85
  0
VERTEX
  5
1350
100
AcDbEntity
100
AcDbFaceRecord
 10
0.0
 20
0.0
 30
0.0
 70
   128
 71
104
 72
85
 73
103
  0
VERTEX
  5
1351
100
AcDbEntity
100
AcDbFaceRecord
 10
0.0
 20
0.0
 30
0.0
 70
   128
 71
103
 72
85
 73
84
  0
VERTEX
  5
1352
100
AcDbEntity
100
AcDbFaceRecord
 10
0.0
 20
0.0
 30
0.0
 70
   128
 71
103
 72
84
 73
102
  0
VERTEX
  5
1353
100
AcDbEntity
100
AcDbFaceRecord
 10
0.0
 20
0.0
 30
0.0
 70
   128
 71
102
 72
84
 73
83
  0
VERTEX
  5
1354
100
AcDbEntity
100
AcDbFaceRecord
 10
0.0
 20
0.0
 30
0.0
 70
   128
 71
102
 72
83
 73
101
  0
VERTEX
  5
1355
100
AcDbEntity
100
AcDbFaceRecord
 10
0.0
 20
0.0
 30
0.0
 70
   128
 71
101
 72
83
 73
82
  0
VERTEX
  5
1356
100
AcDbEntity
100
AcDbFaceRecord
 10
0.0
 20
0.0
 30
0.0
 70
   128
 71
101
 72
82
 73
100
  0
VERTEX
  5
1357
100
AcDbEntity
100
AcDbFaceRecord
 10
0.0
 20
0.0
 30
0.0
 70
   128
 71
100
 72
82
 73
81
  0
VERTEX
  5
1358
100
AcDbEntity
100
AcDbFaceRecord
 10
0.0
 20
0.0
 30
0.0
 70
   128
 71
100
 72
81
 73
99
  0
VERTEX
  5
1359
100
AcDbEntity
100
AcDbFaceRecord
 10
0.0
 20
0.0
 30
0.0
 70
   128
 71
99
 72
81
 73
80
  0
VERTEX
  5
1360
100
AcDbEntity
100
AcDbFaceRecord
 10
0.0
 20
0.0
 30
0.0
 70
   128
 71
99
 72
80
 73
98
  0
VERTEX
  5
1361
100
AcDbEntity
100
AcDbFaceRecord
 10
0.0
 20
0.0
 30
0.0
 70
   128
 71
98
 72
80
 73
79
  0
VERTEX
  5
1362
100
AcDbEntity
100
AcDbFaceRecord
 10
0.0
 20
0.0
 30
0.0
 70
   128
 71
98
 72
79
 73
97
  0
VERTEX
  5
1363
100
AcDbEntity
100
AcDbFaceRecord
 10
0.0
 20
0.0
 30
0.0
 70
   128
 71
97
 72
79
 73
78
  0
VERTEX
  5
1364
100
AcDbEntity
100
AcDbFaceRecord
 10
0.0
 20
0.0
 30
0.0
 70
   128
 71
97
 72
78
 73
96
  0
VERTEX
  5
1365
100
AcDbEntity
100
AcDbFaceRecord
 10
0.0
 20
0.0
 30
0.0
 70
   128
 71
96
 72
78
 73
77
  0
VERTEX
  5
1366
100
AcDbEntity
100
AcDbFaceRecord
 10
0.0
 20
0.0
 30
0.0
 70
   128
 71
95
 72
76
 73
94
  0
VERTEX
  5
1367
100
AcDbEntity
100
AcDbFaceRecord
 10
0.0
 20
0.0
 30
0.0
 70
   128
 71
94
 72
76
 73
75
  0
VERTEX
  5
1368
100
AcDbEntity
100
AcDbFaceRecord
 10
0.0
 20
0.0
 30
0.0
 70
   128
 71
94
 72
75
 73
93
  0
VERTEX
  5
1369
100
AcDbEntity
100
AcDbFaceRecord
 10
0.0
 20
0.0
 30
0.0
 70
   128
 71
93
 72
75
 73
74
  0
VERTEX
  5
1370
100
AcDbEntity
100
AcDbFaceRecord
 10
0.0
 20
0.0
 30
0.0
 70
   128
 71
93
 72
74
 73
92
  0
VERTEX
  5
1371
100
AcDbEntity
100
AcDbFaceRecord
 10
0.0
 20
0.0
 30
0.0
 70
   128
 71
92
 72
74
 73
73
  0
VERTEX
  5
1372
100
AcDbEntity
100
AcDbFaceRecord
 10
0.0
 20
0.0
 30
0.0
 70
   128
 71
92
 72
73
 73
91
  0
VERTEX
  5
1373
100
AcDbEntity
100
AcDbFaceRecord
 10
0.0
 20
0.0
 30
0.0
 70
   128
 71
91
 72
73
 73
72
  0
VERTEX
  5
1374
100
AcDbEntity
100
AcDbFaceRecord
 10
0.0
 20
0.0
 30
0.0
 70
   128
 71
91
 72
72
 73
90
  0
VERTEX
  5
1375
100
AcDbEntity
100
AcDbFaceRecord
 10
0.0
 20
0.0
 30
0.0
 70
   128
 71
90
 72
72
 73
71
  0
VERTEX
  5
1376
100
AcDbEntity
100
AcDbFaceRecord
 10
0.0
 20
0.0
 30
0.0
 70
   128
 71
90
 72
71
 73
89
  0
VERTEX
  5
1377
100
AcDbEntity
100
AcDbFaceRecord
 10
0.0
 20
0.0
 30
0.0
 70
   128
 71
89
 72
71
 73
70
  0
VERTEX
  5
1378
100
AcDbEntity
100
AcDbFaceRecord
 10
0.0
 20
0.0
 30
0.0
 70
   128
 71
89
 72
70
 73
88
  0
VERTEX
  5
1379
100
AcDbEntity
100
AcDbFaceRecord
 10
0.0
 20
0.0
 30
0.0
 70
   128
 71
88
 72
70
 73
69
  0
VERTEX
  5
1380
100
AcDbEntity
100
AcDbFaceRecord
 10
0.0
 20
0.0
 30
0.0
 70
   128
 71
88
 72
69
 73
87
  0
VERTEX
  5
1381
100
AcDbEntity
100
AcDbFaceRecord
 10
0.0
 20
0.0
 30
0.0
 70
   128
 71
87
 72
69
 73
68
  0
VERTEX
  5
1382
100
AcDbEntity
100
AcDbFaceRecord
 10
0.0
 20
0.0
 30
0.0
 70
   128
 71
87
 72
68
 73
86
  0
VERTEX
  5
1383
100
AcDbEntity
100
AcDbFaceRecord
 10
0.0
 20
0.0
 30
0.0
 70
   128
 71
86
 72
68
 73
67
  0
VERTEX
  5
1384
100
AcDbEntity
100
AcDbFaceRecord
 10
0.0
 20
0.0
 30
0.0
 70
   128
 71
86
 72
67
 73
85
  0
VERTEX
  5
1385
100
AcDbEntity
100
AcDbFaceRecord
 10
0.0
 20
0.0
 30
0.0
 70
   128
 71
85
 72
67
 73
66
  0
VERTEX
  5
1386
100
AcDbEntity
100
AcDbFaceRecord
 10
0.0
 20
0.0
 30
0.0
 70
   128
 71
85
 72
66
 73
84
  0
VERTEX
  5
1387
100
AcDbEntity
100
AcDbFaceRecord
 10
0.0
 20
0.0
 30
0.0
 70
   128
 71
84
 72
66
 73
65
  0
VERTEX
  5
1388
100
AcDbEntity
100
AcDbFaceRecord
 10
0.0
 20
0.0
 30
0.0
 70
   128
 71
84
 72
65
 73
83
  0
VERTEX
  5
1389
100
AcDbEntity
100
AcDbFaceRecord
 10
0.0
 20
0.0
 30
0.0
 70
   128
 71
83
 72
65
 73
64
  0
VERTEX
  5
1390
100
AcDbEntity
100
AcDbFaceRecord
 10
0.0
 20
0.0
 30
0.0
 70
   128
 71
83
 72
64
 73
82
  0
VERTEX
  5
1391
100
AcDbEntity
100
AcDbFaceRecord
 10
0.0
 20
0.0
 30
0.0
 70
   128
 71
82
 72
64
 73
63
  0
VERTEX
  5
1392
100
AcDbEntity
100
AcDbFaceRecord
 10
0.0
 20
0.0
 30
0.0
 70
   128
 71
82
 72
63
 73
81
  0
VERTEX
  5
1393
100
AcDbEntity
100
AcDbFaceRecord
 10
0.0
 20
0.0
 30
0.0
 70
   128
 71
81
 72
63
 73
62
  0
VERTEX
  5
1394
100
AcDbEntity
100
AcDbFaceRecord
 10
0.0
 20
0.0
 30
0.0
 70
   128
 71
81
 72
62
 73
80
  0
VERTEX
  5
1395
100
AcDbEntity
100
AcDbFaceRecord
 10
0.0
 20
0.0
 30
0.0
 70
   128
 71
80
 72
62
 73
61
  0
VERTEX
  5
1396
100
AcDbEntity
100
AcDbFaceRecord
 10
0.0
 20
0.0
 30
0.0
 70
   128
 71
80
 72
61
 73
79
  0
VERTEX
  5
1397
100
AcDbEntity
100
AcDbFaceRecord
 10
0.0
 20
0.0
 30
0.0
 70
   128
 71
79
 72
61
 73
60
  0
VERTEX
  5
1398
100
AcDbEntity
100
AcDbFaceRecord
 10
0.0
 20
0.0
 30
0.0
 70
   128
 71
79
 72
60
 73
78
  0
VERTEX
  5
1399
100
AcDbEntity
100
AcDbFaceRecord
 10
0.0
 20
0.0
 30
0.0
 70
   128
 71
78
 72
60
 73
59
  0
VERTEX
  5
1400
100
AcDbEntity
100
AcDbFaceRecord
 10
0.0
 20
0.0
 30
0.0
 70
   128
 71
78
 72
59
 73
77
  0
VERTEX
  5
1401
100
AcDbEntity
100
AcDbFaceRecord
 10
0.0
 20
0.0
 30
0.0
 70
   128
 71
77
 72
59
 73
58
  0
VERTEX
  5
1402
100
AcDbEntity
100
AcDbFaceRecord
 10
0.0
 20
0.0
 30
0.0
 70
   128
 71
76
 72
57
 73
75
  0
VERTEX
  5
1403
100
AcDbEntity
100
AcDbFaceRecord
 10
0.0
 20
0.0
 30
0.0
 70
   128
 71
75
 72
57
 73
56
  0
VERTEX
  5
1404
100
AcDbEntity
100
AcDbFaceRecord
 10
0.0
 20
0.0
 30
0.0
 70
   128
 71
75
 72
56
 73
74
  0
VERTEX
  5
1405
100
AcDbEntity
100
AcDbFaceRecord
 10
0.0
 20
0.0
 30
0.0
 70
   128
 71
74
 72
56
 73
55
  0
VERTEX
  5
1406
100
AcDbEntity
100
AcDbFaceRecord
 10
0.0
 20
0.0
 30
0.0
 70
   128
 71
74
 72
55
 73
73
  0
VERTEX
  5
1407
100
AcDbEntity
100
AcDbFaceRecord
 10
0.0
 20
0.0
 30
0.0
 70
   128
 71
73
 72
55
 73
54
  0
VERTEX
  5
1408
100
AcDbEntity
100
AcDbFaceRecord
 10
0.0
 20
0.0
 30
0.0
 70
   128
 71
73
 72
54
 73
72
  0
VERTEX
  5
1409
100
AcDbEntity
100
AcDbFaceRecord
 10
0.0
 20
0.0
 30
0.0
 70
   128
 71
72
 72
54
 73
53
  0
VERTEX
  5
1410
100
AcDbEntity
100
AcDbFaceRecord
 10
0.0
 20
0.0
 30
0.0
 70
   128
 71
72
 72
53
 73
71
  0
VERTEX
  5
1411
100
AcDbEntity
100
AcDbFaceRecord
 10
0.0
 20
0.0
 30
0.0
 70
   128
 71
71
 72
53
 73
52
  0
VERTEX
  5
1412
100
AcDbEntity
100
AcDbFaceRecord
 10
0.0
 20
0.0
 30
0.0
 70
   128
 71
71
 72
52
 73
70
  0
VERTEX
  5
1413
100
AcDbEntity
100
AcDbFaceRecord
 10
0.0
 20
0.0
 30
0.0
 70
   128
 71
70
 72
52
 73
51
  0
VERTEX
  5
1414
100
AcDbEntity
100
AcDbFaceRecord
 10
0.0
 20
0.0
 30
0.0
 70
   128
 71
70
 72
51
 73
69
  0
VERTEX
  5
1415
100
AcDbEntity
100
AcDbFaceRecord
 10
0.0
 20
0.0
 30
0.0
 70
   128
 71
69
 72
51
 73
50
  0
VERTEX
  5
1416
100
AcDbEntity
100
AcDbFaceRecord
 10
0.0
 20
0.0
 30
0.0
 70
   128
 71
69
 72
50
 73
68
  0
VERTEX
  5
1417
100
AcDbEntity
100
AcDbFaceRecord
 10
0.0
 20
0.0
 30
0.0
 70
   128
 71
68
 72
50
 73
49
  0
VERTEX
  5
1418
100
AcDbEntity
100
AcDbFaceRecord
 10
0.0
 20
0.0
 30
0.0
 70
   128
 71
68
 72
49
 73
67
  0
VERTEX
  5
1419
100
AcDbEntity
100
AcDbFaceRecord
 10
0.0
 20
0.0
 30
0.0
 70
   128
 71
67
 72
49
 73
48
  0
VERTEX
  5
1420
100
AcDbEntity
100
AcDbFaceRecord
 10
0.0
 20
0.0
 30
0.0
 70
   128
 71
67
 72
48
 73
66
  0
VERTEX
  5
1421
100
AcDbEntity
100
AcDbFaceRecord
 10
0.0
 20
0.0
 30
0.0
 70
   128
 71
66
 72
48
 73
47
  0
VERTEX
  5
1422
100
AcDbEntity
100
AcDbFaceRecord
 10
0.0
 20
0.0
 30
0.0
 70
   128
 71
66
 72
47
 73
65
  0
VERTEX
  5
1423
100
AcDbEntity
100
AcDbFaceRecord
 10
0.0
 20
0.0
 30
0.0
 70
   128
 71
65
 72
47
 73
46
  0
VERTEX
  5
1424
100
AcDbEntity
100
AcDbFaceRecord
 10
0.0
 20
0.0
 30
0.0
 70
   128
 71
65
 72
46
 73
64
  0
VERTEX
  5
1425
100
AcDbEntity
100
AcDbFaceRecord
 10
0.0
 20
0.0
 30
0.0
 70
   128
 71
64
 72
46
 73
45
  0
VERTEX
  5
1426
100
AcDbEntity
100
AcDbFaceRecord
 10
0.0
 20
0.0
 30
0.0
 70
   128
 71
64
 72
45
 73
63
  0
VERTEX
  5
1427
100
AcDbEntity
100
AcDbFaceRecord
 10
0.0
 20
0.0
 30
0.0
 70
   128
 71
63
 72
45
 73
44
  0
VERTEX
  5
1428
100
AcDbEntity
100
AcDbFaceRecord
 10
0.0
 20
0.0
 30
0.0
 70
   128
 71
63
 72
44
 73
62
  0
VERTEX
  5
1429
100
AcDbEntity
100
AcDbFaceRecord
 10
0.0
 20
0.0
 30
0.0
 70
   128
 71
62
 72
44
 73
43
  0
VERTEX
  5
1430
100
AcDbEntity
100
AcDbFaceRecord
 10
0.0
 20
0.0
 30
0.0
 70
   128
 71
62
 72
43
 73
61
  0
VERTEX
  5
1431
100
AcDbEntity
100
AcDbFaceRecord
 10
0.0
 20
0.0
 30
0.0
 70
   128
 71
61
 72
43
 73
42
  0
VERTEX
  5
1432
100
AcDbEntity
100
AcDbFaceRecord
 10
0.0
 20
0.0
 30
0.0
 70
   128
 71
61
 72
42
 73
60
  0
VERTEX
  5
1433
100
AcDbEntity
100
AcDbFaceRecord
 10
0.0
 20
0.0
 30
0.0
 70
   128
 71
60
 72
42
 73
41
  0
VERTEX
  5
1434
100
AcDbEntity
100
AcDbFaceRecord
 10
0.0
 20
0.0
 30
0.0
 70
   128
 71
60
 72
41
 73
59
  0
VERTEX
  5
1435
100
AcDbEntity
100
AcDbFaceRecord
 10
0.0
 20
0.0
 30
0.0
 70
   128
 71
59
 72
41
 73
40
  0
VERTEX
  5
1436
100
AcDbEntity
100
AcDbFaceRecord
 10
0.0
 20
0.0
 30
0.0
 70
   128
 71
59
 72
40
 73
58
  0
VERTEX
  5
1437
100
AcDbEntity
100
AcDbFaceRecord
 10
0.0
 20
0.0
 30
0.0
 70
   128
 71
58
 72
40
 73
39
  0
VERTEX
  5
1438
100
AcDbEntity
100
AcDbFaceRecord
 10
0.0
 20
0.0
 30
0.0
 70
   128
 71
57
 72
38
 73
56
  0
VERTEX
  5
1439
100
AcDbEntity
100
AcDbFaceRecord
 10
0.0
 20
0.0
 30
0.0
 70
   128
 71
56
 72
38
 73
37
  0
VERTEX
  5
1440
100
AcDbEntity
100
AcDbFaceRecord
 10
0.0
 20
0.0
 30
0.0
 70
   128
 71
56
 72
37
 73
55
  0
VERTEX
  5
1441
100
AcDbEntity
100
AcDbFaceRecord
 10
0.0
 20
0.0
 30
0.0
 70
   128
 71
55
 72
37
 73
36
  0
VERTEX
  5
1442
100
AcDbEntity
100
AcDbFaceRecord
 10
0.0
 20
0.0
 30
0.0
 70
   128
 71
55
 72
36
 73
54
  0
VERTEX
  5
1443
100
AcDbEntity
100
AcDbFaceRecord
 10
0.0
 20
0.0
 30
0.0
 70
   128
 71
54
 72
36
 73
35
  0
VERTEX
  5
1444
100
AcDbEntity
100
AcDbFaceRecord
 10
0.0
 20
0.0
 30
0.0
 70
   128
 71
54
 72
35
 73
53
  0
VERTEX
  5
1445
100
AcDbEntity
100
AcDbFaceRecord
 10
0.0
 20
0.0
 30
0.0
 70
   128
 71
53
 72
35
 73
34
  0
VERTEX
  5
1446
100
AcDbEntity
100
AcDbFaceRecord
 10
0.0
 20
0.0
 30
0.0
 70
   128
 71
53
 72
34
 73
52
  0
VERTEX
  5
1447
100
AcDbEntity
100
AcDbFaceRecord
 10
0.0
 20
0.0
 30
0.0
 70
   128
 71
52
 72
34
 73
33
  0
VERTEX
  5
1448
100
AcDbEntity
100
AcDbFaceRecord
 10
0.0
 20
0.0
 30
0.0
 70
   128
 71
52
 72
33
 73
51
  0
VERTEX
  5
1449
100
AcDbEntity
100
AcDbFaceRecord
 10
0.0
 20
0.0
 30
0.0
 70
   128
 71
51
 72
33
 73
32
  0
VERTEX
  5
1450
100
AcDbEntity
100
AcDbFaceRecord
 10
0.0
 20
0.0
 30
0.0
 70
   128
 71
51
 72
32
 73
50
  0
VERTEX
  5
1451
100
AcDbEntity
100
AcDbFaceRecord
 10
0.0
 20
0.0
 30
0.0
 70
   128
 71
50
 72
32
 73
31
  0
VERTEX
  5
1452
100
AcDbEntity
100
AcDbFaceRecord
 10
0.0
 20
0.0
 30
0.0
 70
   128
 71
50
 72
31
 73
49
  0
VERTEX
  5
1453
100
AcDbEntity
100
AcDbFaceRecord
 10
0.0
 20
0.0
 30
0.0
 70
   128
 71
49
 72
31
 73
30
  0
VERTEX
  5
1454
100
AcDbEntity
100
AcDbFaceRecord
 10
0.0
 20
0.0
 30
0.0
 70
   128
 71
49
 72
30
 73
48
  0
VERTEX
  5
1455
100
AcDbEntity
100
AcDbFaceRecord
 10
0.0
 20
0.0
 30
0.0
 70
   128
 71
48
 72
30
 73
29
  0
VERTEX
  5
1456
100
AcDbEntity
100
AcDbFaceRecord
 10
0.0
 20
0.0
 30
0.0
 70
   128
 71
48
 72
29
 73
47
  0
VERTEX
  5
1457
100
AcDbEntity
100
AcDbFaceRecord
 10
0.0
 20
0.0
 30
0.0
 70
   128
 71
47
 72
29
 73
28
  0
VERTEX
  5
1458
100
AcDbEntity
100
AcDbFaceRecord
 10
0.0
 20
0.0
 30
0.0
 70
   128
 71
47
 72
28
 73
46
  0
VERTEX
  5
1459
100
AcDbEntity
100
AcDbFaceRecord
 10
0.0
 20
0.0
 30
0.0
 70
   128
 71
46
 72
28
 73
27
  0
VERTEX
  5
1460
100
AcDbEntity
100
AcDbFaceRecord
 10
0.0
 20
0.0
 30
0.0
 70
   128
 71
46
 72
27
 73
45
  0
VERTEX
  5
1461
100
AcDbEntity
100
AcDbFaceRecord
 10
0.0
 20
0.0
 30
0.0
 70
   128
 71
45
 72
27
 73
26
  0
VERTEX
  5
1462
100
AcDbEntity
100
AcDbFaceRecord
 10
0.0
 20
0.0
 30
0.0
 70
   128
 71
45
 72
26
 73
44
  0
VERTEX
  5
1463
100
AcDbEntity
100
AcDbFaceRecord
 10
0.0
 20
0.0
 30
0.0
 70
   128
 71
44
 72
26
 73
25
  0
VERTEX
  5
1464
100
AcDbEntity
100
AcDbFaceRecord
 10
0.0
 20
0.0
 30
0.0
 70
   128
 71
44
 72
25
 73
43
  0
VERTEX
  5
1465
100
AcDbEntity
100
AcDbFaceRecord
 10
0.0
 20
0.0
 30
0.0
 70
   128
 71
43
 72
25
 73
24
  0
VERTEX
  5
1466
100
AcDbEntity
100
AcDbFaceRecord
 10
0.0
 20
0.0
 30
0.0
 70
   128
 71
43
 72
24
 73
42
  0
VERTEX
  5
1467
100
AcDbEntity
100
AcDbFaceRecord
 10
0.0
 20
0.0
 30
0.0
 70
   128
 71
42
 72
24
 73
23
  0
VERTEX
  5
1468
100
AcDbEntity
100
AcDbFaceRecord
 10
0.0
 20
0.0
 30
0.0
 70
   128
 71
42
 72
23
 73
41
  0
VERTEX
  5
1469
100
AcDbEntity
100
AcDbFaceRecord
 10
0.0
 20
0.0
 30
0.0
 70
   128
 71
41
 72
23
 73
22
  0
VERTEX
  5
1470
100
AcDbEntity
100
AcDbFaceRecord
 10
0.0
 20
0.0
 30
0.0
 70
   128
 71
41
 72
22
 73
40
  0
VERTEX
  5
1471
100
AcDbEntity
100
AcDbFaceRecord
 10
0.0
 20
0.0
 30
0.0
 70
   128
 71
40
 72
22
 73
21
  0
VERTEX
  5
1472
100
AcDbEntity
100
AcDbFaceRecord
 10
0.0
 20
0.0
 30
0.0
 70
   128
 71
40
 72
21
 73
39
  0
VERTEX
  5
1473
100
AcDbEntity
100
AcDbFaceRecord
 10
0.0
 20
0.0
 30
0.0
 70
   128
 71
39
 72
21
 73
20
  0
VERTEX
  5
1474
100
AcDbEntity
100
AcDbFaceRecord
 10
0.0
 20
0.0
 30
0.0
 70
   128
 71
38
 72
19
 73
37
  0
VERTEX
  5
1475
100
AcDbEntity
100
AcDbFaceRecord
 10
0.0
 20
0.0
 30
0.0
 70
   128
 71
37
 72
19
 73
18
  0
VERTEX
  5
1476
100
AcDbEntity
100
AcDbFaceRecord
 10
0.0
 20
0.0
 30
0.0
 70
   128
 71
37
 72
18
 73
36
  0
VERTEX
  5
1477
100
AcDbEntity
100
AcDbFaceRecord
 10
0.0
 20
0.0
 30
0.0
 70
   128
 71
36
 72
18
 73
17
  0
VERTEX
  5
1478
100
AcDbEntity
100
AcDbFaceRecord
 10
0.0
 20
0.0
 30
0.0
 70
   128
 71
36
 72
17
 73
35
  0
VERTEX
  5
1479
100
AcDbEntity
100
AcDbFaceRecord
 10
0.0
 20
0.0
 30
0.0
 70
   128
 71
35
 72
17
 73
16
  0
VERTEX
  5
1480
100
AcDbEntity
100
AcDbFaceRecord
 10
0.0
 20
0.0
 30
0.0
 70
   128
 71
35
 72
16
 73
34
  0
VERTEX
  5
1481
100
AcDbEntity
100
AcDbFaceRecord
 10
0.0
 20
0.0
 30
0.0
 70
   128
 71
34
 72
16
 73
15
  0
VERTEX
  5
1482
100
AcDbEntity
100
AcDbFaceRecord
 10
0.0
 20
0.0
 30
0.0
 70
   128
 71
34
 72
15
 73
33
  0
VERTEX
  5
1483
100
AcDbEntity
100
AcDbFaceRecord
 10
0.0
 20
0.0
 30
0.0
 70
   128
 71
33
 72
15
 73
14
  0
VERTEX
  5
1484
100
AcDbEntity
100
AcDbFaceRecord
 10
0.0
 20
0.0
 30
0.0
 70
   128
 71
33
 72
14
 73
32
  0
VERTEX
  5
1485
100
AcDbEntity
100
AcDbFaceRecord
 10
0.0
 20
0.0
 30
0.0
 70
   128
 71
32
 72
14
 73
13
  0
VERTEX
  5
1486
100
AcDbEntity
100
AcDbFaceRecord
 10
0.0
 20
0.0
 30
0.0
 70
   128
 71
32
 72
13
 73
31
  0
VERTEX
  5
1487
100
AcDbEntity
100
AcDbFaceRecord
 10
0.0
 20
0.0
 30
0.0
 70
   128
 71
31
 72
13
 73
12
  0
VERTEX
  5
1488
100
AcDbEntity
100
AcDbFaceRecord
 10
0.0
 20
0.0
 30
0.0
 70
   128
 71
31
 72
12
 73
30
  0
VERTEX
  5
1489
100
AcDbEntity
100
AcDbFaceRecord
 10
0.0
 20
0.0
 30
0.0
 70
   128
 71
30
 72
12
 73
11
  0
VERTEX
  5
1490
100
AcDbEntity
100
AcDbFaceRecord
 10
0.0
 20
0.0
 30
0.0
 70
   128
 71
30
 72
11
 73
29
  0
VERTEX
  5
1491
100
AcDbEntity
100
AcDbFaceRecord
 10
0.0
 20
0.0
 30
0.0
 70
   128
 71
29
 72
11
 73
10
  0
VERTEX
  5
1492
100
AcDbEntity
100
AcDbFaceRecord
 10
0.0
 20
0.0
 30
0.0
 70
   128
 71
29
 72
10
 73
28
  0
VERTEX
  5
1493
100
AcDbEntity
100
AcDbFaceRecord
 10
0.0
 20
0.0
 30
0.0
 70
   128
 71
28
 72
10
 73
9
  0
VERTEX
  5
1494
100
AcDbEntity
100
AcDbFaceRecord
 10
0.0
 20
0.0
 30
0.0
 70
   128
 71
28
 72
9
 73
27
  0
VERTEX
  5
1495
100
AcDbEntity
100
AcDbFaceRecord
 10
0.0
 20
0.0
 30
0.0
 70
   128
 71
27
 72
9
 73
8
  0
VERTEX
  5
1496
100
AcDbEntity
100
AcDbFaceRecord
 10
0.0
 20
0.0
 30
0.0
 70
   128
 71
27
 72
8
 73
26
  0
VERTEX
  5
1497
100
AcDbEntity
100
AcDbFaceRecord
 10
0.0
 20
0.0
 30
0.0
 70
   128
 71
26
 72
8
 73
7
  0
VERTEX
  5
1498
100
AcDbEntity
100
AcDbFaceRecord
 10
0.0
 20
0.0
 30
0.0
 70
   128
 71
26
 72
7
 73
25
  0
VERTEX
  5
1499
100
AcDbEntity
100
AcDbFaceRecord
 10
0.0
 20
0.0
 30
0.0
 70
   128
 71
25
 72
7
 73
6
  0
VERTEX
  5
1500
100
AcDbEntity
100
AcDbFaceRecord
 10
0.0
 20
0.0
 30
0.0
 70
   128
 71
25
 72
6
 73
24
  0
VERTEX
  5
1501
100
AcDbEntity
100
AcDbFaceRecord
 10
0.0
 20
0.0
 30
0.0
 70
   128
 71
24
 72
6
 73
5
  0
VERTEX
  5
1502
100
AcDbEntity
100
AcDbFaceRecord
 10
0.0
 20
0.0
 30
0.0
 70
   128
 71
24
 72
5
 73
23
  0
VERTEX
  5
1503
100
AcDbEntity
100
AcDbFaceRecord
 10
0.0
 20
0.0
 30
0.0
 70
   128
 71
23
 72
5
 73
4
  0
VERTEX
  5
1504
100
AcDbEntity
100
AcDbFaceRecord
 10
0.0
 20
0.0
 30
0.0
 70
   128
 71
23
 72
4
 73
22
  0
VERTEX
  5
1505
100
AcDbEntity
100
AcDbFaceRecord
 10
0.0
 20
0.0
 30
0.0
 70
   128
 71
22
 72
4
 73
3
  0
VERTEX
  5
1506
100
AcDbEntity
100
AcDbFaceRecord
 10
0.0
 20
0.0
 30
0.0
 70
   128
 71
22
 72
3
 73
21
  0
VERTEX
  5
1507
100
AcDbEntity
100
AcDbFaceRecord
 10
0.0
 20
0.0
 30
0.0
 70
   128
 71
21
 72
3
 73
2
  0
VERTEX
  5
1508
100
AcDbEntity
100
AcDbFaceRecord
 10
0.0
 20
0.0
 30
0.0
 70
   128
 71
21
 72
2
 73
20
  0
VERTEX
  5
1509
100
AcDbEntity
100
AcDbFaceRecord
 10
0.0
 20
0.0
 30
0.0
 70
   128
 71
20
 72
2
 73
1
  0
SEQEND
  5
1510
100
AcDbEntity
  0
ENDSEC
  0
SECTION
  2
OBJECTS
  0
DICTIONARY
  5
C
100
AcDbDictionary
  3
ACAD_GROUP
350
D
  3
ACAD_MLINESTYLE
350
1B
  0
DICTIONARY
  5
D
102
{ACAD_REACTORS
330
C
102
}
100
AcDbDictionary
  0
DICTIONARY
  5
1B
102
{ACAD_REACTORS
330
C
102
}
100
AcDbDictionary
  3
STANDARD
350
1C
  0
MLINESTYLE
  5
1C
102
{ACAD_REACTORS
330
1B
102
}
100
AcDbMlineStyle
  2
STANDARD
 70
     0
  3

 62
   256
 51
90.0
 52
90.0
 71
     2
 49
0.5
 62
   256
  6
BYLAYER
 49
-0.5
 62
   256
  6
BYLAYER
  0
ENDSEC
  0
EOF
